<svg width="79" height="40" viewBox="0 0 79 40" fill="none" xmlns="http://www.w3.org/2000/svg">
<path d="M61.2394 12.2174C61.2394 10.1049 61.2284 6.79095 61.2065 2.27571C61.2055 2.06837 61.3707 1.89946 61.5755 1.89844C61.5761 1.89844 61.5767 1.89844 61.5773 1.89844H64.4709C64.6757 1.89844 64.8417 2.06652 64.8417 2.27386C64.8417 2.27393 64.8417 2.27399 64.8417 2.27406C64.8375 10.3295 64.8388 16.2903 64.8454 20.1566C64.8492 22.437 64.4143 24.5923 63.2074 26.5502C62.7916 27.225 62.3113 27.8425 61.7707 28.4092C61.6474 28.5385 61.3993 28.7686 61.0263 29.0995C60.8723 29.2361 60.638 29.2205 60.503 29.0646C60.4983 29.0591 60.4938 29.0536 60.4894 29.0479L58.7249 26.7546C58.6068 26.6012 58.624 26.3818 58.7647 26.2492C59.0697 25.9616 59.2703 25.765 59.3664 25.6594C60.5101 24.4042 61.1208 22.8798 61.2047 21.1169C61.3594 17.868 59.1581 14.8475 56.0466 13.9989C51.9188 12.8731 47.8956 15.5008 47.1461 19.6225C47.1189 19.7721 47.0905 20.0902 47.0609 20.577C47.0489 20.775 46.8868 20.9293 46.6908 20.9293H43.7868C43.582 20.9293 43.416 20.7612 43.416 20.5539C43.416 20.5482 43.4161 20.5426 43.4164 20.537C43.4371 20.0715 43.458 19.7562 43.4788 19.5911C44.0985 14.689 47.9412 10.7336 52.8578 10.1613C55.902 9.80689 58.6225 10.6517 61.0015 12.612C61.048 12.6503 61.0924 12.6916 61.1394 12.7291C61.1482 12.736 61.1653 12.7318 61.2394 12.7374V12.2174Z" fill="#004680"/>
<path d="M32.5282 39.1211C26.1273 41.564 19.0396 37.3025 18.1375 30.4453C17.9911 29.3321 17.9546 27.5955 18.028 25.2353C18.0343 25.0326 18.1983 24.8717 18.3986 24.8717H21.2664C21.4712 24.8717 21.6372 25.0398 21.6372 25.2471C21.6372 25.2478 21.6372 25.2485 21.6372 25.2493C21.6276 26.9484 21.6278 28.1808 21.638 28.9464C21.6843 32.4153 23.9391 35.2357 27.2588 35.9958C31.2559 36.9109 35.262 34.0758 35.8039 29.9554C35.8557 29.5616 35.879 29.1692 35.8808 28.7737C35.8884 27.1602 35.8997 24.6701 35.9148 21.3034C35.9157 21.0967 36.0814 20.9297 36.2856 20.9297H39.1498C39.3546 20.9297 39.5206 21.0978 39.5206 21.3051C39.5206 26.4071 39.5206 31.5091 39.5206 36.6111C39.5206 37.5784 39.5206 38.5456 39.5206 39.5129C39.5206 39.7202 39.3546 39.8883 39.1498 39.8883H36.2872C36.0825 39.8883 35.9164 39.7202 35.9164 39.5129C35.9164 38.4013 35.9164 37.5821 35.9164 37.0552C34.8253 37.9646 33.7451 38.6566 32.5282 39.1211Z" fill="#004680"/>
<path d="M7.38188 10.6726C10.8811 9.59451 14.0846 10.0961 16.9915 12.1757C17.0929 12.2482 17.2752 12.3907 17.5385 12.6031C17.6987 12.7324 17.725 12.9686 17.5974 13.1307C17.5824 13.1498 17.5655 13.1674 17.5471 13.1832L15.3075 15.105C15.1783 15.2158 14.9915 15.224 14.8534 15.125C14.7199 15.0293 14.6307 14.967 14.5858 14.9383C10.6791 12.4392 5.6064 14.1236 4.00528 18.6467C3.7167 19.462 3.65422 20.3065 3.65265 21.1615C3.65133 21.8834 3.65123 22.9938 3.65235 24.4927C3.65251 24.7001 3.48662 24.8683 3.28183 24.8684C3.28173 24.8684 3.28164 24.8684 3.28155 24.8684H0.371433C0.166652 24.8684 0.000641546 24.7003 0.000616045 24.493L0 10.4145C-2.55003e-05 10.2072 0.16598 10.0391 0.370768 10.0391C0.370773 10.0391 0.370779 10.0391 0.370784 10.0391H3.29482C3.49961 10.0391 3.66562 10.2072 3.66562 10.4145C3.66562 11.2132 3.66562 12.0118 3.66562 12.8105C4.85209 11.8339 6.03059 11.0889 7.38188 10.6726Z" fill="#004680"/>
<ellipse cx="4.82319" cy="30.2202" rx="1.2978" ry="1.31399" fill="#FF8D6D"/>
<ellipse cx="48.5771" cy="30.2202" rx="1.2978" ry="1.31399" fill="#FF8D6D"/>
<ellipse cx="52.6562" cy="30.2202" rx="1.2978" ry="1.31399" fill="#FF8D6D"/>
<ellipse cx="73.623" cy="15.4077" rx="1.2978" ry="1.31399" fill="#FF8D6D"/>
<ellipse cx="77.7021" cy="11.2827" rx="1.2978" ry="1.31399" fill="#FF8D6D"/>
<ellipse cx="52.6562" cy="34.3531" rx="1.2978" ry="1.31399" fill="#FF8D6D"/>
<ellipse cx="4.82319" cy="34.3531" rx="1.2978" ry="1.31399" fill="#FF8D6D"/>
<ellipse cx="9.27241" cy="34.3531" rx="1.2978" ry="1.31399" fill="#FF8D6D"/>
<ellipse cx="4.82319" cy="38.4781" rx="1.2978" ry="1.31399" fill="#FF8D6D"/>
<ellipse cx="26.4648" cy="19.5406" rx="1.2978" ry="1.31399" fill="#FF8D6D"/>
<ellipse cx="26.4648" cy="11.2827" rx="1.2978" ry="1.31399" fill="#FF8D6D"/>
<ellipse cx="30.914" cy="19.5406" rx="1.2978" ry="1.31399" fill="#FF8D6D"/>
<rect x="68.7861" y="24.8125" width="3.708" height="15.1877" rx="0.3708" fill="#004680"/>
<ellipse cx="70.6401" cy="1.87713" rx="1.854" ry="1.87713" fill="#004680"/>
</svg>
