<?xml version="1.0" encoding="utf-8"?>
<!-- Generator: Adobe Illustrator 26.3.1, SVG Export Plug-In . SVG Version: 6.00 Build 0)  -->
<svg version="1.1" id="Calque_1" xmlns="http://www.w3.org/2000/svg" xmlns:xlink="http://www.w3.org/1999/xlink" x="0px" y="0px"
	 viewBox="0 0 20 20" style="enable-background:new 0 0 20 20;" xml:space="preserve">
<style type="text/css">
	.st0{fill-rule:evenodd;clip-rule:evenodd;}
	.st1{fill-rule:evenodd;clip-rule:evenodd;}
</style>
<path class="st0" d="M10,0C4.5,0,0,4.5,0,10c0,5.5,4.5,10,10,10c5.5,0,10-4.5,10-10C20,4.5,15.5,0,10,0z M1,10c0,5,4,9,9,9
	c5,0,9-4,9-9c0-5-4-9-9-9C5,1,1,5,1,10z"/>
<g>
	<g>
		<path class="st1" d="M5,9.9l2-2.2c0.1-0.1,0.1-0.2,0.1-0.3C7.1,7.2,7.1,7.1,7,7C6.9,6.9,6.8,6.9,6.7,6.9C6.6,6.9,6.5,7,6.4,7.1
			L4.1,9.6C4,9.7,4,10,4.1,10.2l2.3,2.5c0.1,0.1,0.2,0.1,0.3,0.1c0.1,0,0.2,0,0.3-0.1c0.2-0.2,0.2-0.4,0-0.6L5,9.9z"/>
		<path class="st1" d="M13.6,7c-0.2-0.2-0.4-0.2-0.6,0c-0.2,0.2-0.2,0.4,0,0.6l2,2.2l-2,2.2c-0.1,0.1-0.1,0.2-0.1,0.4
			c0,0.1,0,0.2,0.1,0.3c0.1,0.1,0.2,0.1,0.3,0.1c0.1,0,0.2-0.1,0.3-0.1l2.3-2.5c0.1-0.2,0.1-0.4,0-0.6L13.6,7L13.6,7z"/>
		<path class="st1" d="M10.7,6c-0.2,0-0.5,0.1-0.5,0.4l-1.3,7.1c0,0.2,0.1,0.5,0.3,0.5c0,0,0.1,0,0.1,0c0,0,0,0,0,0
			c0.2,0,0.4-0.2,0.4-0.4l1.3-7.1C11.1,6.3,11,6.1,10.7,6z"/>
	</g>
</g>
</svg>
