<svg width="27" height="28" viewBox="0 0 27 28" fill="none" xmlns="http://www.w3.org/2000/svg">
<path d="M13.9532 2.24655L1.31922 14.9182C0.987742 15.2508 0.987742 15.7863 1.31922 16.1188C1.6507 16.4514 2.18444 16.4514 2.51589 16.1188L15.1499 3.4434C17.4737 1.11203 21.2487 1.10859 23.5653 3.4329C25.8891 5.76427 25.8891 9.55527 23.5653 11.8865L10.9319 24.5657C8.73378 26.771 5.20288 26.89 2.78505 24.7932C2.75024 24.7617 2.70838 24.7232 2.6838 24.7058C2.66993 24.6919 2.64194 24.6709 2.6176 24.6499C2.59327 24.6255 2.56528 24.6045 2.54094 24.5798L2.49567 24.5344C2.46768 24.5063 2.44335 24.4749 2.41536 24.447C2.3735 24.3945 2.3107 24.3244 2.28637 24.3C1.41411 23.1868 1.51168 21.5941 2.51319 20.5896L15.1472 7.91418C16.2429 6.81859 18.0188 6.81147 19.1072 7.90367C19.6375 8.43573 19.9271 9.14284 19.9271 9.89538C19.9271 10.6479 19.6341 11.3551 19.1072 11.8871L10.5136 20.5157C10.1821 20.8483 10.1821 21.3838 10.5136 21.7163C10.8451 22.0489 11.3788 22.0489 11.7103 21.7163L20.3076 13.0914C22.0626 11.3307 22.0626 8.46725 20.3076 6.70683C18.5597 4.95316 15.709 4.9566 13.9538 6.71733L1.31982 19.389C-0.285259 20.9993 -0.442203 23.5617 0.936014 25.3187C0.998804 25.4061 1.05819 25.4728 1.12779 25.5429C1.18718 25.6164 1.25337 25.6864 1.31957 25.7529L1.32298 25.7563L1.32639 25.7597C1.46949 25.9033 1.616 26.0432 1.68926 26.0852C1.69972 26.0957 1.71359 26.1028 1.72406 26.1096C1.73452 26.1201 1.74499 26.1306 1.75886 26.1377L1.76227 26.1343C3.19283 27.3769 4.96507 28 6.74099 28C8.69821 28 10.6557 27.2475 12.1349 25.7631L24.7627 13.0921C27.7458 10.0993 27.7458 5.22981 24.7627 2.23692C21.7864 -0.749103 16.9367 -0.745665 13.9536 2.24741L13.9532 2.24655Z" fill="#004680"/>
</svg>
