<svg width="36" height="36" viewBox="0 0 36 36" fill="none" xmlns="http://www.w3.org/2000/svg">
<circle cx="18" cy="18" r="18" fill="#004680"/>
<path d="M12.83 14.6246C12.6056 14.8394 12.5974 15.1952 12.812 15.4199L18 20.8486L23.1879 15.4199C23.4025 15.1952 23.3943 14.8394 23.1699 14.6246C22.9455 14.41 22.5891 14.4184 22.3745 14.6426L18.5625 18.6318V8.5625C18.5625 8.252 18.3105 8 18 8C17.6895 8 17.4375 8.252 17.4375 8.5625V18.6318L13.6254 14.6426C13.4111 14.4178 13.0548 14.41 12.83 14.6246Z" fill="white" stroke="white" stroke-width="0.5"/>
<path d="M9.5625 18.6875C9.252 18.6875 9 18.9395 9 19.25V21.8068C9 23.8428 10.5387 25.4375 12.503 25.4375H23.4973C25.4613 25.4375 27 23.8428 27 21.8068V19.3777C27 19.0672 26.748 18.8152 26.4375 18.8152C26.127 18.8152 25.875 19.0672 25.875 19.3777V21.8068C25.875 23.2353 24.8527 24.3125 23.497 24.3125H12.503C11.1473 24.3125 10.125 23.2353 10.125 21.8068V19.25C10.125 18.9395 9.873 18.6875 9.5625 18.6875Z" fill="white" stroke="white" stroke-width="0.5"/>
</svg>
