<?xml version="1.0" encoding="utf-8"?>
<!-- Generator: Adobe Illustrator 26.2.1, SVG Export Plug-In . SVG Version: 6.00 Build 0)  -->
<svg version="1.1" id="Calque_1" xmlns="http://www.w3.org/2000/svg" xmlns:xlink="http://www.w3.org/1999/xlink" x="0px" y="0px"
	 viewBox="0 0 20 20" style="enable-background:new 0 0 20 20;" xml:space="preserve">
<g>
	<path class="st0" d="M10,0C4.5,0,0,4.5,0,10c0,5.5,4.5,10,10,10c5.5,0,10-4.5,10-10C20,4.5,15.5,0,10,0z M10,19c-5,0-9-4-9-9
		c0-5,4-9,9-9c5,0,9,4,9,9C19,15,15,19,10,19z"/>
	<path class="st0" d="M10.8,10.8V5c0-0.4-0.3-0.8-0.8-0.8S9.2,4.6,9.2,5v6.2c0,0.2,0.1,0.5,0.3,0.6l3.7,2.8c0.1,0.1,0.3,0.1,0.4,0.1
		c0.2,0,0.5-0.1,0.6-0.3c0.2-0.3,0.2-0.8-0.2-1L10.8,10.8z"/>
</g>
</svg>
