<svg width="36" height="36" viewBox="0 0 36 36" fill="none" xmlns="http://www.w3.org/2000/svg">
    <circle cx="18" cy="18" r="17.5" stroke="#CBCDD1"/>
    <path d="M9.50402 12C8.68171 12 8 12.6937 8 13.5318V22.9002C8 23.7384 8.68171 24.4321 9.50402 24.4321L18.7157 24.4319L23.3089 27.881C23.4274 27.9706 23.5744 28.0119 23.7211 27.997C23.8678 27.9823 24.0039 27.9123 24.1029 27.8008C24.2019 27.6893 24.2565 27.5444 24.2563 27.394V24.4321H25.496C26.3183 24.4321 27 23.7384 27 22.9002V13.5318C27 12.6937 26.3183 12 25.496 12L9.50402 12ZM9.50402 13.2103H25.4962C25.6812 13.2103 25.8116 13.3433 25.8116 13.5318V22.9002C25.8116 23.0888 25.6812 23.2217 25.4962 23.2217L23.6605 23.2216C23.5037 23.222 23.3533 23.2855 23.2422 23.3986C23.1313 23.5115 23.0686 23.6645 23.0679 23.8245V26.1967L19.2597 23.3375C19.1579 23.262 19.0354 23.2214 18.9096 23.2216H9.50423C9.31923 23.2216 9.18882 23.0887 9.18882 22.9001V13.5317C9.18882 13.3431 9.31923 13.2102 9.50423 13.2102L9.50402 13.2103ZM13.0059 15.6098V15.6097C12.7976 15.6256 12.6125 15.7521 12.5189 15.9425C12.4252 16.133 12.4364 16.3596 12.5487 16.5393C12.6608 16.7191 12.8573 16.8257 13.0662 16.82H18.9663C19.1261 16.8237 19.2805 16.7616 19.3948 16.6477C19.509 16.5338 19.5734 16.3778 19.5734 16.2149C19.5734 16.0521 19.509 15.8961 19.3948 15.7822C19.2805 15.6683 19.1261 15.6062 18.9663 15.6097H13.0662C13.0462 15.6087 13.026 15.6087 13.0059 15.6097L13.0059 15.6098ZM13.0662 18.5305C12.8541 18.5307 12.6583 18.6462 12.5523 18.8336C12.4464 19.0208 12.4464 19.2515 12.5523 19.4387C12.6583 19.6261 12.8542 19.7416 13.0662 19.7419H21.9372C22.1493 19.7416 22.3451 19.6261 22.4511 19.4387C22.557 19.2515 22.557 19.0208 22.4511 18.8336C22.3451 18.6462 22.1492 18.5307 21.9372 18.5305H13.0662Z" fill="#71757E"/>
</svg>
