<svg width="36" height="36" viewBox="0 0 36 36" fill="none" xmlns="http://www.w3.org/2000/svg">
    <path fill-rule="evenodd" clip-rule="evenodd"
          d="M17 15.875V22.625C17 22.8321 16.8321 23 16.625 23H15.875C15.6679 23 15.5 22.8321 15.5 22.625V15.875C15.5 15.6679 15.6679 15.5 15.875 15.5H16.625C16.8321 15.5 17 15.6679 17 15.875ZM20.125 15.5H19.375C19.1679 15.5 19 15.6679 19 15.875V22.625C19 22.8321 19.1679 23 19.375 23H20.125C20.3321 23 20.5 22.8321 20.5 22.625V15.875C20.5 15.6679 20.3321 15.5 20.125 15.5ZM24.25 12.5C24.6642 12.5 25 12.8358 25 13.25V13.625C25 13.8321 24.8321 14 24.625 14H24V24.5C24 25.3284 23.3284 26 22.5 26H13.5C12.6716 26 12 25.3284 12 24.5V14H11.375C11.1679 14 11 13.8321 11 13.625V13.25C11 12.8358 11.3358 12.5 11.75 12.5H14.0753L15.1384 10.7283C15.4095 10.2764 15.8978 9.99999 16.4247 10H19.5754C20.1023 9.99999 20.5905 10.2764 20.8616 10.7283L21.9247 12.5H24.25ZM15.8247 12.5H20.1754L19.63 11.591C19.5961 11.5346 19.5351 11.5 19.4692 11.5H16.5308C16.465 11.5 16.4039 11.5346 16.3701 11.591L15.8247 12.5ZM22.5 14H13.5V24.3125C13.5 24.4161 13.5839 24.5 13.6875 24.5H22.3125C22.4161 24.5 22.5 24.4161 22.5 24.3125V14Z"
          fill="#71757E"/>
    <mask id="mask0_0_1" style="mask-type:luminance" maskUnits="userSpaceOnUse" x="11" y="10" width="14" height="16">
        <path fill-rule="evenodd" clip-rule="evenodd"
              d="M17 15.875V22.625C17 22.8321 16.8321 23 16.625 23H15.875C15.6679 23 15.5 22.8321 15.5 22.625V15.875C15.5 15.6679 15.6679 15.5 15.875 15.5H16.625C16.8321 15.5 17 15.6679 17 15.875ZM20.125 15.5H19.375C19.1679 15.5 19 15.6679 19 15.875V22.625C19 22.8321 19.1679 23 19.375 23H20.125C20.3321 23 20.5 22.8321 20.5 22.625V15.875C20.5 15.6679 20.3321 15.5 20.125 15.5ZM24.25 12.5C24.6642 12.5 25 12.8358 25 13.25V13.625C25 13.8321 24.8321 14 24.625 14H24V24.5C24 25.3284 23.3284 26 22.5 26H13.5C12.6716 26 12 25.3284 12 24.5V14H11.375C11.1679 14 11 13.8321 11 13.625V13.25C11 12.8358 11.3358 12.5 11.75 12.5H14.0753L15.1384 10.7283C15.4095 10.2764 15.8978 9.99999 16.4247 10H19.5754C20.1023 9.99999 20.5905 10.2764 20.8616 10.7283L21.9247 12.5H24.25ZM15.8247 12.5H20.1754L19.63 11.591C19.5961 11.5346 19.5351 11.5 19.4692 11.5H16.5308C16.465 11.5 16.4039 11.5346 16.3701 11.591L15.8247 12.5ZM22.5 14H13.5V24.3125C13.5 24.4161 13.5839 24.5 13.6875 24.5H22.3125C22.4161 24.5 22.5 24.4161 22.5 24.3125V14Z"
              fill="white"/>
    </mask>
    <g mask="url(#mask0_0_1)">
    </g>
    <circle cx="18" cy="18" r="17.5" stroke="#CBCDD1"/>
</svg>
