<svg width="20" height="20" viewBox="0 0 20 20" fill="none" xmlns="http://www.w3.org/2000/svg">
<path d="M12.4312 10.9375V10.4375H12.2924L12.1735 10.509L12.4312 10.9375ZM6.5688 10.9375L6.82654 10.509L6.7076 10.4375H6.5688V10.9375ZM5.9375 5.0625C5.9375 3.09498 7.5325 1.5 9.5 1.5V0.5C6.98022 0.5 4.9375 2.54269 4.9375 5.0625H5.9375ZM9.5 8.625C7.5325 8.625 5.9375 7.03002 5.9375 5.0625H4.9375C4.9375 7.58231 6.98022 9.625 9.5 9.625V8.625ZM13.0625 5.0625C13.0625 7.03002 11.4675 8.625 9.5 8.625V9.625C12.0198 9.625 14.0625 7.58231 14.0625 5.0625H13.0625ZM9.5 1.5C11.4675 1.5 13.0625 3.09498 13.0625 5.0625H14.0625C14.0625 2.54269 12.0198 0.5 9.5 0.5V1.5ZM12.4312 11.4375H13.1562V10.4375H12.4312V11.4375ZM6.31107 11.366C8.27174 12.5454 10.7274 12.5459 12.6889 11.366L12.1735 10.509C10.5292 11.4981 8.47012 11.4977 6.82654 10.509L6.31107 11.366ZM5.84375 11.4375H6.5688V10.4375H5.84375V11.4375ZM3.5 13.7812C3.5 12.4868 4.54933 11.4375 5.84375 11.4375V10.4375C3.99705 10.4375 2.5 11.9345 2.5 13.7812H3.5ZM3.5 14.1875V13.7812H2.5V14.1875H3.5ZM3.5 14.3906V14.1875H2.5V14.3906H3.5ZM3.5 18.0625V14.3906H2.5V18.0625H3.5ZM4 18.5625C3.72386 18.5625 3.5 18.3386 3.5 18.0625H2.5C2.5 18.8909 3.17157 19.5625 4 19.5625V18.5625ZM15 18.5625H4V19.5625H15V18.5625ZM15.5 18.0625C15.5 18.3386 15.2761 18.5625 15 18.5625V19.5625C15.8284 19.5625 16.5 18.8909 16.5 18.0625H15.5ZM15.5 14.3906V18.0625H16.5V14.3906H15.5ZM15.5 14.1875V14.3906H16.5V14.1875H15.5ZM15.5 13.7812V14.1875H16.5V13.7812H15.5ZM13.1562 11.4375C14.4507 11.4375 15.5 12.4868 15.5 13.7812H16.5C16.5 11.9345 15.003 10.4375 13.1562 10.4375V11.4375Z" fill="currentColor"/>
</svg>
