<svg width="20" height="20" viewBox="0 0 20 20" fill="none" xmlns="http://www.w3.org/2000/svg">
<path d="M1 5.25004V14.7501V14.75C1.00134 15.8768 1.44948 16.9569 2.24619 17.7538C3.04308 18.5505 4.1232 18.9987 5.25003 19H14.7501H14.75C15.8768 18.9987 16.9569 18.5505 17.7538 17.7538C18.5505 16.9569 18.9987 15.8768 19 14.75V5.24987V5.25004C18.9987 4.1232 18.5505 3.04308 17.7538 2.24619C16.9569 1.44948 15.8768 1.00133 14.75 1H14C13.7239 1 13.5001 1.22383 13.5001 1.50005C13.5001 1.77611 13.7239 1.99994 14 1.99994H14.75C15.6116 2.00128 16.4375 2.34413 17.0467 2.95333C17.6559 3.56254 17.9987 4.38835 18.0001 5.25004V14.7501V14.75C17.9987 15.6116 17.6559 16.4375 17.0467 17.0467C16.4375 17.6559 15.6116 17.9987 14.75 18.0001H5.24987H5.25003C4.3884 17.9987 3.56254 17.6559 2.95333 17.0467C2.34412 16.4375 2.00126 15.6116 1.99994 14.75V5.24987V5.25004C2.00127 4.3884 2.34413 3.56254 2.95333 2.95333C3.56254 2.34412 4.38835 2.00127 5.25003 1.99994H7.50002C8.03038 1.99994 8.53913 2.21071 8.91413 2.58571C9.2893 2.96087 9.4999 3.46963 9.4999 3.99999V10.795L6.35493 7.64497C6.15889 7.44893 5.84099 7.44893 5.64496 7.64497C5.44893 7.841 5.44893 8.15891 5.64496 8.35494L9.64489 12.3549C9.6926 12.4004 9.74851 12.4361 9.80995 12.4598C9.93099 12.5134 10.0689 12.5134 10.19 12.4598C10.2514 12.4361 10.3073 12.4004 10.355 12.3549L14.355 8.35494C14.551 8.1589 14.551 7.84099 14.355 7.64497C14.1589 7.44893 13.841 7.44893 13.645 7.64497L10.5 10.795V3.99999C10.5 3.2043 10.184 2.44124 9.62129 1.87874C9.05862 1.31607 8.29555 1 7.50004 1H5.25005C4.12321 1.00134 3.04309 1.44948 2.24621 2.24619C1.4495 3.04308 1.00135 4.1232 1.00002 5.25004H1Z" fill="currentColor"/>
</svg>
