<svg width="20" height="20" viewBox="0 0 20 20" fill="none" xmlns="http://www.w3.org/2000/svg">
<path d="M2.92969 7.09115C2.92969 5.59105 4.14576 4.375 5.64583 4.375V3.375C3.59348 3.375 1.92969 5.03876 1.92969 7.09115H2.92969ZM5.64583 4.375C7.14591 4.375 8.36198 5.59105 8.36198 7.09115H9.36198C9.36198 5.03876 7.69819 3.375 5.64583 3.375V4.375ZM8.36198 7.09115C8.36198 8.59124 7.14591 9.80729 5.64583 9.80729V10.8073C7.69819 10.8073 9.36198 9.14353 9.36198 7.09115H8.36198ZM5.64583 9.80729C4.14576 9.80729 2.92969 8.59124 2.92969 7.09115H1.92969C1.92969 9.14353 3.59348 10.8073 5.64583 10.8073V9.80729Z" fill="currentColor"/>
<path d="M7.96636 11.7422V11.2422H7.82757L7.70863 11.3137L7.96636 11.7422ZM3.3253 11.7422L3.58304 11.3137L3.4641 11.2422H3.3253V11.7422ZM8.54036 11.2422H7.96636V12.2422H8.54036V11.2422ZM11.2917 13.9935C11.2917 12.474 10.0599 11.2422 8.54036 11.2422V12.2422C9.50758 12.2422 10.2917 13.0263 10.2917 13.9935H11.2917ZM11.2917 14.315V13.9935H10.2917V14.315H11.2917ZM10.2917 14.315V14.4759H11.2917V14.315H10.2917ZM10.2917 14.4759V17.1744H11.2917V14.4759H10.2917ZM10.2917 17.1744C10.2917 17.4506 10.0678 17.6744 9.79167 17.6744V18.6744C10.6201 18.6744 11.2917 18.0028 11.2917 17.1744H10.2917ZM9.79167 17.6744H1.5V18.6744H9.79167V17.6744ZM1.5 17.6744C1.22386 17.6744 1 17.4506 1 17.1744H0C0 18.0028 0.671574 18.6744 1.5 18.6744V17.6744ZM1 17.1744V14.4759H0V17.1744H1ZM1 14.4759V14.315H0V14.4759H1ZM0 13.9935V14.315H1V13.9935H0ZM2.7513 11.2422C1.2318 11.2422 0 12.474 0 13.9935H1C1 13.0263 1.78408 12.2422 2.7513 12.2422V11.2422ZM3.3253 11.2422H2.7513V12.2422H3.3253V11.2422ZM7.70863 11.3137C6.43996 12.0769 4.85117 12.0766 3.58304 11.3137L3.06757 12.1706C4.6528 13.1242 6.63819 13.1246 8.2241 12.1706L7.70863 11.3137Z" fill="currentColor"/>
<path fill-rule="evenodd" clip-rule="evenodd" d="M11.1387 4.71615C11.1387 2.93991 12.5786 1.5 14.3548 1.5C16.131 1.5 17.571 2.93991 17.571 4.71615C17.571 6.49238 16.131 7.93229 14.3548 7.93229C12.5786 7.93229 11.1387 6.49238 11.1387 4.71615Z" stroke="currentColor"/>
<path d="M9.20898 11.6185C9.20898 10.3751 10.2169 9.36719 11.4603 9.36719H12.0343C13.461 10.2254 15.2481 10.2258 16.6753 9.36719H17.2493C18.4927 9.36719 19.5007 10.3751 19.5007 11.6185V14.9583C19.5007 15.2248 19.2847 15.4408 19.0182 15.4408H10.7923" stroke="currentColor"/>
</svg>
