<svg width="20" height="20" viewBox="0 0 20 20" fill="none" xmlns="http://www.w3.org/2000/svg">
<path d="M10 20C4.5 20 0 15.5 0 10C0 4.5 4.5 0 10 0C15.5 0 20 4.5 20 10C20 15.5 15.5 20 10 20ZM10 1C5 1 1 5 1 10C1 15 5 19 10 19C15 19 19 15 19 10C19 5 15 1 10 1Z" fill="currentColor"/>
<path d="M13.5 14.4008C13.3 14.4008 13.2 14.4008 13.1 14.3008L9.4 11.5008C9.1 11.3008 9 11.1008 9 10.8008V4.60078C9 4.20078 9.3 3.80078 9.8 3.80078C10.3 3.80078 10.6 4.10078 10.6 4.60078V10.4008L14 13.0008C14.3 13.2008 14.4 13.7008 14.2 14.0008C14 14.3008 13.7 14.4008 13.5 14.4008Z" fill="currentColor"/>
</svg>
