<?xml version="1.0" encoding="utf-8"?>
<!-- Generator: Adobe Illustrator 26.5.0, SVG Export Plug-In . SVG Version: 6.00 Build 0)  -->
<svg version="1.1" id="Calque_1" xmlns="http://www.w3.org/2000/svg" x="0px"
     y="0px"
     viewBox="0 0 20 20" style="enable-background:new 0 0 20 20;" xml:space="preserve">
<g>
	<path d="M10,0C4.5,0,0,4.5,0,10c0,5.5,4.5,10,10,10c5.5,0,10-4.5,10-10C20,4.5,15.5,0,10,0z M5.2,17.6
		c0-0.1,0-0.1,0-0.2c0-2,1.6-3.7,3.6-3.7h2.4c2,0,3.6,1.7,3.6,3.7c0,0.1,0,0.1,0,0.2c-1.4,0.9-3,1.4-4.8,1.4S6.6,18.5,5.2,17.6z
		 M16,16.7c-0.4-2.4-2.4-4.3-4.8-4.3H8.8c-2.5,0-4.5,1.9-4.8,4.3c-1.8-1.6-3-4-3-6.7c0-5,4-9,9-9s9,4,9,9C19,12.6,17.9,15,16,16.7z"
    />
    <path d="M9.9,4.9C8.2,4.9,6.8,6.3,6.8,8s1.4,3.1,3.1,3.1c1.7,0,3.1-1.4,3.1-3.1S11.7,4.9,9.9,4.9z M9.9,9.8
		C9,9.8,8.2,9,8.2,8c0-1,0.8-1.8,1.8-1.8S11.7,7,11.7,8C11.7,9,10.9,9.8,9.9,9.8z"/>
</g>
</svg>
