<?xml version="1.0" encoding="utf-8"?>
<!-- Generator: Adobe Illustrator 26.5.0, SVG Export Plug-In . SVG Version: 6.00 Build 0)  -->
<svg version="1.1" id="Calque_1" xmlns="http://www.w3.org/2000/svg" x="0px"
     y="0px"
     viewBox="0 0 20 20" style="enable-background:new 0 0 20 20;" xml:space="preserve">
<path class="st0" d="M3.5,2h12.9c0.7,0,1.3,0.3,1.8,0.8C18.7,3.2,19,3.9,19,4.6c0,0.7-0.3,1.3-0.7,1.8c-0.2,0.2-0.4,0.3-0.6,0.5v7.7
	c0,1-0.4,1.8-1,2.5c-0.6,0.6-1.5,1-2.4,1H5.8c-0.9,0-1.8-0.4-2.4-1c-0.6-0.6-1-1.5-1-2.5V6.8C2.1,6.7,1.9,6.6,1.7,6.4
	C1.3,5.9,1,5.3,1,4.6c0-0.7,0.3-1.3,0.7-1.8C2.2,2.3,2.8,2,3.5,2L3.5,2z M7.6,9h4.8c0.4,0,0.8,0.2,1.1,0.5c0.3,0.3,0.5,0.7,0.5,1.1
	c0,0.4-0.2,0.8-0.5,1.1c-0.3,0.3-0.7,0.5-1.1,0.5H7.6c-0.4,0-0.8-0.2-1.1-0.5c-0.3-0.3-0.5-0.7-0.5-1.1s0.2-0.8,0.5-1.1
	C6.8,9.2,7.2,9,7.6,9L7.6,9z M12.4,9.9H7.6c-0.2,0-0.4,0.1-0.5,0.2c-0.1,0.1-0.2,0.3-0.2,0.5c0,0.2,0.1,0.4,0.2,0.5
	c0.1,0.1,0.3,0.2,0.5,0.2h4.8c0.2,0,0.4-0.1,0.5-0.2c0.1-0.1,0.2-0.3,0.2-0.5c0-0.2-0.1-0.4-0.2-0.5C12.8,9.9,12.6,9.9,12.4,9.9z
	 M16.8,7.1c-0.1,0-0.2,0-0.3,0H3.5c-0.1,0-0.2,0-0.3,0v7.4c0,0.7,0.3,1.4,0.8,1.9c0.5,0.5,1.1,0.8,1.8,0.8h8.4
	c0.7,0,1.4-0.3,1.8-0.8c0.5-0.5,0.8-1.1,0.8-1.9L16.8,7.1L16.8,7.1z M16.5,2.9H3.5C3.1,2.9,2.6,3,2.3,3.4C2,3.7,1.8,4.1,1.8,4.6
	C1.8,5,2,5.5,2.3,5.8c0.2,0.2,0.4,0.3,0.6,0.4l0,0c0.2,0.1,0.4,0.1,0.6,0.1h12.9c0.5,0,0.9-0.2,1.2-0.5C18,5.5,18.2,5,18.2,4.6
	c0-0.5-0.2-0.9-0.5-1.2C17.4,3,16.9,2.9,16.5,2.9L16.5,2.9z"/>
</svg>
