<svg width="20" height="20" viewBox="0 0 20 20" fill="none" xmlns="http://www.w3.org/2000/svg">
<path d="M10 20C4.5 20 0 15.5 0 10C0 4.5 4.5 0 10 0C15.5 0 20 4.5 20 10C20 15.5 15.5 20 10 20ZM10 1C5 1 1 5 1 10C1 15 5 19 10 19C15 19 19 15 19 10C19 5 15 1 10 1Z" fill="#323643"/>
<circle cx="10" cy="8" r="2.4" stroke="currentColor" stroke-width="1.2"/>
<path d="M5 15.5C5 12.7386 7.23858 10.5 10 10.5" stroke="currentColor" stroke-width="1.2" stroke-linecap="round"/>
<circle cx="10" cy="10" r="9.5" stroke="currentColor"/>
<path d="M9.94906 13.3592L9.95646 13.3747L9.96859 13.3868L12.1129 15.5301C12.1958 15.6224 12.3099 15.6807 12.433 15.6939L12.4383 15.6957L12.4557 15.7015L12.4739 15.7008C12.5423 15.698 12.6094 15.6811 12.6709 15.6509C12.732 15.6209 12.7863 15.5786 12.8302 15.5265L16.5849 11.2374C16.585 11.2373 16.5851 11.2372 16.5852 11.237C16.629 11.1879 16.6627 11.1306 16.6845 11.0684C16.7063 11.0061 16.7155 10.9401 16.7118 10.8742C16.7081 10.8083 16.6914 10.7438 16.6627 10.6843C16.634 10.6249 16.5939 10.5716 16.5447 10.5277C16.4954 10.4837 16.438 10.4499 16.3756 10.4281C16.3133 10.4064 16.2473 10.3971 16.1814 10.4008C16.1155 10.4045 16.0509 10.4212 15.9915 10.4499C15.932 10.4785 15.8787 10.5186 15.8347 10.5679L15.8341 10.5686L12.4115 14.4732L10.6466 12.709L10.6344 12.6969L10.6189 12.6895C10.5252 12.6448 10.4199 12.6302 10.3175 12.6477C10.2151 12.6653 10.1206 12.7141 10.0472 12.7876L10.1175 12.858L10.0472 12.7876C9.9737 12.861 9.92481 12.9554 9.90724 13.0578C9.88966 13.1602 9.90428 13.2655 9.94906 13.3592Z" fill="currentColor" stroke="currentColor" stroke-width="0.2"/>
</svg>
