<svg width="20" height="20" viewBox="0 0 20 20" fill="none" xmlns="http://www.w3.org/2000/svg">
<path d="M18.3643 9.23987C18.6825 9.2469 18.9461 8.99148 18.9535 8.6687L19.1278 0.868143L11.4376 1.04503C11.1194 1.05247 10.8676 1.31988 10.8746 1.64266C10.8817 1.96524 11.1459 2.22086 11.4637 2.21384L17.1146 2.08365L8.64773 10.5574C8.42282 10.7856 8.42282 11.1559 8.64773 11.384C8.87264 11.6122 9.23772 11.6122 9.46263 11.384L17.9295 2.91024L17.8012 8.64225C17.7937 8.96482 18.0461 9.23243 18.3643 9.23987Z" fill="currentColor"/>
<path d="M6.35361 3.39502H4.47059C3.10612 3.39502 2 4.50114 2 5.86561V15.4717C2 16.8362 3.10612 17.9423 4.47059 17.9423H13.8709C15.2354 17.9423 16.3415 16.8362 16.3415 15.4717V13.0724" stroke="currentColor" stroke-width="1.1" stroke-linecap="round"/>
</svg>
