<?xml version="1.0" encoding="utf-8"?>
<!-- Generator: Adobe Illustrator 26.5.0, SVG Export Plug-In . SVG Version: 6.00 Build 0)  -->
<svg version="1.1" id="Calque_1" xmlns="http://www.w3.org/2000/svg" x="0px"
     y="0px"
     viewBox="0 0 20 20" style="enable-background:new 0 0 20 20;" xml:space="preserve">
<g>
	<path class="st0" d="M10,0C4.5,0,0,4.5,0,10c0,5.5,4.5,10,10,10c5.5,0,10-4.5,10-10C20,4.5,15.5,0,10,0z M10,19c-5,0-9-4-9-9
		s4-9,9-9s9,4,9,9S15,19,10,19z"/>
    <path class="st0" d="M11.4,9.6c2.1-1.1,2.4-3.1,2.5-4h0.2c0.2,0,0.3-0.1,0.3-0.3c0-0.2-0.1-0.3-0.3-0.3H6.4C6.2,5,6.1,5.1,6.1,5.3
		c0,0.2,0.1,0.3,0.3,0.3h0.1c0.1,0.9,0.4,2.8,2.5,4C9.1,9.7,9.3,9.9,9.3,10c0,0.1-0.1,0.3-0.3,0.4c-0.3,0.1-2.7,1.4-2.6,4.2H6.3
		C6.1,14.7,6,14.8,6,15c0,0.2,0.1,0.3,0.3,0.3H14c0.1,0,0.2,0,0.2-0.1c0.1-0.1,0.1-0.1,0.1-0.2c0-0.1,0-0.2-0.1-0.2
		c0-0.1-0.1-0.1-0.2-0.1h0h-0.1c0.2-2.9-2.5-4.2-2.5-4.2c-0.2-0.1-0.3-0.3-0.3-0.4C11.1,9.8,11.3,9.7,11.4,9.6z M11,11
		C11,11,11,11,11,11L11,11L11,11L11,11c0.2,0.1,2.4,1.2,2.2,3.7h-0.8c0,0-0.1-0.1-0.1-0.1l-2-2c-0.1-0.1-0.1-0.1-0.2-0.1
		s-0.2,0-0.2,0.1l-2,2c0,0,0,0,0,0H7.1c-0.2-2.6,2.2-3.6,2.2-3.6h0c0,0,0.1,0,0.1,0c0.4-0.3,0.6-0.6,0.6-1c0-0.5-0.5-0.9-0.6-1l0,0
		C7.5,8,7.2,6.2,7.1,5.6h6.1c0,0.6-0.3,2.4-2.2,3.4h0c-0.1,0.1-0.6,0.5-0.6,1C10.4,10.4,10.6,10.7,11,11z"/>
    <path class="st0" d="M11.5,7.9c0-0.1-0.1-0.1-0.2-0.1H9c-0.1,0-0.2,0.1-0.2,0.1c0,0.1,0,0.2,0.1,0.2l1.2,1c0.1,0,0.1,0.1,0.2,0.1
		c0.1,0,0.1,0,0.1-0.1l1.2-1C11.5,8.1,11.6,8,11.5,7.9z"/>
</g>
</svg>
