<?xml version="1.0" encoding="utf-8"?>
<!-- Generator: Adobe Illustrator 26.2.1, SVG Export Plug-In . SVG Version: 6.00 Build 0)  -->
<svg version="1.1" id="Calque_1" xmlns="http://www.w3.org/2000/svg" x="0px" y="0px"
     viewBox="0 0 18 18" style="enable-background:new 0 0 18 18;" xml:space="preserve">
<g>
	<path class="st0" d="M11.1,5c-0.5,0-1,0.2-1.4,0.6C9.4,5.9,9.2,6.4,9.2,6.9c0,0.5,0.2,1,0.6,1.4c0.4,0.4,0.8,0.6,1.4,0.6
		c0.5,0,1-0.2,1.4-0.6c0.4-0.4,0.6-0.8,0.6-1.4c0-0.5-0.2-1-0.6-1.4C12.1,5.2,11.7,5,11.1,5z"/>
	<path class="st0" d="M16,0H2C0.9,0,0,0.9,0,2v14c0,1.1,0.9,2,2,2h14c1.1,0,2-0.9,2-2V2C18,0.9,17.1,0,16,0z M14.7,8.4
		c-0.2,0.5-0.5,0.9-0.8,1.2c-0.4,0.4-0.8,0.6-1.2,0.8c-0.5,0.2-1,0.3-1.5,0.3c-0.7,0-1.3-0.2-1.9-0.5l-2,2l1.1,1.1
		c0.1,0.1,0.1,0.3,0.1,0.4c0,0,0,0.1-0.1,0.1l-1,1C7.3,15,7.1,15,6.9,14.9c0,0-0.1,0-0.1-0.1l-1.1-1.1l-1.1,1.1
		C4.5,15,4.4,15,4.2,15c0,0-0.1,0-0.1-0.1l-1-1c0,0,0-0.1-0.1-0.1c-0.1-0.2,0-0.3,0.1-0.4l4.6-4.6C7.4,8.2,7.3,7.5,7.3,6.9
		c0-0.5,0.1-1,0.3-1.5c0.2-0.5,0.5-0.9,0.8-1.2c0.4-0.4,0.8-0.6,1.2-0.8c0.5-0.2,1-0.3,1.5-0.3c0.5,0,1,0.1,1.5,0.3
		c0.5,0.2,0.9,0.5,1.2,0.8c0.4,0.4,0.6,0.8,0.8,1.2c0.2,0.5,0.3,1,0.3,1.5C15,7.4,14.9,7.9,14.7,8.4z"/>
</g>
</svg>
