<svg xmlns="http://www.w3.org/2000/svg" viewBox="0 0 88 88"><path d="M80 88H8c-4.4 0-8-3.6-8-8V8c0-4.4 3.6-8 8-8h72c4.4 0 8 3.6 8 8v72c0 4.4-3.6 8-8 8z" fill="#ff8d6d"/><path d="M66.8 29.6c-.8-1.8-1.9-3.5-3.3-4.9-1.4-1.4-3.1-2.5-4.9-3.3-1.9-.8-3.9-1.2-6-1.2s-4.1.4-6 1.2c-1.8.8-3.5 1.9-4.9 3.3s-2.5 3.1-3.3 4.9c-.8 1.9-1.2 3.9-1.2 6 0 2.6.6 5.2 1.9 7.4L20.4 61.3c-.4.4-.6 1.1-.3 1.7.1.1.1.2.2.3l4.1 4.2c.1.1.2.2.3.2.6.3 1.3.1 1.7-.3L31 63l4.5 4.3c.1.1.2.2.3.2.6.3 1.3.1 1.7-.3l4.1-4.1c.1-.1.2-.2.2-.3.3-.6.1-1.3-.3-1.7l-4.4-4.3 7.9-7.9c2.3 1.3 4.8 1.9 7.4 1.9 2.1 0 4.1-.4 6-1.2 1.8-.8 3.5-1.9 4.9-3.3 1.4-1.4 2.5-3.1 3.3-4.9.8-1.9 1.2-3.9 1.2-6 .2-1.9-.2-3.9-1-5.8zM57.9 41c-1.5 1.4-3.4 2.2-5.4 2.2s-4-.8-5.4-2.3-2.2-3.4-2.2-5.4.8-4 2.3-5.4 3.4-2.2 5.4-2.2 4 .8 5.4 2.3 2.2 3.4 2.2 5.4-.8 3.9-2.3 5.4z" fill="#004680"/></svg>