<?xml version="1.0" encoding="utf-8"?>
<!-- Generator: Adobe Illustrator 26.0.3, SVG Export Plug-In . SVG Version: 6.00 Build 0)  -->
<svg version="1.1" id="Calque_1" xmlns="http://www.w3.org/2000/svg" xmlns:xlink="http://www.w3.org/1999/xlink" x="0px" y="0px"
	 viewBox="0 0 20 20" style="enable-background:new 0 0 20 20;" xml:space="preserve">
<g id="Clip-2">
</g>
<g>
	<path d="M10,0C4.5,0,0,4.5,0,10s4.5,10,10,10s10-4.5,10-10S15.5,0,10,0z M10,19c-5,0-9-4-9-9s4-9,9-9s9,4,9,9
		S15,19,10,19z"/>
	<path  d="M14.1,6c-0.3-0.3-0.6-0.5-1-0.7C12.7,5.1,12.2,5,11.8,5c-0.4,0-0.9,0.1-1.3,0.2c-0.4,0.2-0.7,0.4-1,0.7
		C9.2,6.2,9,6.6,8.8,7C8.7,7.4,8.6,7.8,8.6,8.2c0,0.5,0.1,1.1,0.4,1.6l-3.9,3.8C5,13.7,5,13.8,5,14c0,0,0,0.1,0,0.1l0.9,0.9
		c0,0,0,0,0.1,0.1c0.1,0.1,0.3,0,0.4-0.1L7.3,14l0.9,0.9c0,0,0,0,0.1,0.1c0.1,0.1,0.3,0,0.4-0.1L9.5,14c0,0,0,0,0.1-0.1
		c0.1-0.1,0-0.3-0.1-0.4l-0.9-0.9l1.7-1.6c0.5,0.3,1,0.4,1.5,0.4c0.4,0,0.9-0.1,1.3-0.2c0.4-0.2,0.7-0.4,1-0.7
		c0.3-0.3,0.5-0.6,0.7-1C14.9,9.1,15,8.7,15,8.2c0-0.4-0.1-0.9-0.2-1.3C14.6,6.6,14.4,6.3,14.1,6z M12.9,9.4
		c-0.3,0.3-0.7,0.5-1.1,0.5c-0.4,0-0.8-0.2-1.1-0.5s-0.5-0.7-0.5-1.1c0-0.4,0.2-0.8,0.5-1.1s0.7-0.5,1.1-0.5c0.4,0,0.8,0.2,1.1,0.5
		s0.5,0.7,0.5,1.1C13.4,8.7,13.2,9.1,12.9,9.4z"/>
</g>
</svg>
