<svg width="20" height="20" viewBox="0 0 20 20" xmlns="http://www.w3.org/2000/svg">
<path d="M19.7368 0.70481C19.5965 0.543718 19.386 0.454223 19.1404 0.454223C19.0526 0.454223 18.9474 0.454223 18.8421 0.50792C18.7368 0.543718 18.6316 0.579516 18.5263 0.651113L13.193 3.64026L7.84211 0.32893C7.10526 -0.118547 6.38597 -0.100648 5.68421 0.32893L0.614035 3.44337C0.403509 3.56866 0.245614 3.72975 0.157895 3.87294C0.0526316 4.03404 0 4.24882 0 4.53521V18.6218C0 18.9082 0.0701754 19.1408 0.22807 19.3198C0.385965 19.4809 0.578947 19.5704 0.824561 19.5704C0.929825 19.5704 1.03509 19.5525 1.14035 19.4988C1.24561 19.463 1.33333 19.4093 1.4386 19.3556L6.75439 16.3128L12.2281 19.6957C12.5614 19.8926 12.8772 20 13.193 20C13.5088 20 13.807 19.8926 14.1404 19.6957L19.3684 16.5634C19.5789 16.4381 19.7368 16.2949 19.8421 16.1338C19.9474 15.9727 20 15.74 20 15.4715V1.40287C20 1.11649 19.9298 0.883801 19.7895 0.722709L19.7368 0.70481ZM13.6667 18.8724C13.6667 18.8724 13.6316 18.8724 13.614 18.8903V4.46361L18.7895 1.59976C18.7895 1.59976 18.8772 1.56396 18.9123 1.56396C18.9123 1.56396 18.9474 1.56396 18.9825 1.59976C19 1.61766 19.0175 1.65346 19.0175 1.70716V15.3283C19.0175 15.4357 19 15.5431 18.9649 15.6147C18.9298 15.6863 18.8597 15.7579 18.7368 15.8295L13.8246 18.8008C13.8246 18.8008 13.7193 18.8545 13.6491 18.8903L13.6667 18.8724ZM12.6842 4.46361V18.8366C12.6842 18.8366 12.6491 18.8366 12.6316 18.8187C12.5789 18.8008 12.5263 18.765 12.4912 18.7471L7.2807 15.5252V1.11649C7.2807 1.11649 7.29825 1.11649 7.31579 1.11649C7.36842 1.13439 7.42105 1.17019 7.45614 1.18808L12.6842 4.46361ZM6.33333 1.08069V15.4715L1.15789 18.4428C1.15789 18.4428 1.08772 18.4786 1.05263 18.4786C1 18.4786 0.947369 18.4786 0.947369 18.3354V4.7142C0.947369 4.58891 0.964912 4.49941 1 4.40992C1.03509 4.33832 1.10526 4.26672 1.21053 4.21303L6.12281 1.17019C6.12281 1.17019 6.24561 1.11649 6.31579 1.09859C6.31579 1.09859 6.33333 1.09859 6.35088 1.09859L6.33333 1.08069Z"/>
</svg>
