<?xml version="1.0" encoding="utf-8"?>
<!-- Generator: Adobe Illustrator 26.2.1, SVG Export Plug-In . SVG Version: 6.00 Build 0)  -->
<svg version="1.1" id="Calque_1" xmlns="http://www.w3.org/2000/svg" x="0px" y="0px"
     viewBox="0 0 18 18" style="enable-background:new 0 0 18 18;" xml:space="preserve">
<g>
	<path class="st0" d="M15,4h-2c0-2.2-1.8-4-4-4C6.8,0,5,1.8,5,4H3C1.3,4,0,5.3,0,7v8c0,1.7,1.3,3,3,3h12c1.7,0,3-1.3,3-3V7
		C18,5.3,16.7,4,15,4z M17,15c0,1.1-0.9,2-2,2H3c-1.1,0-2-0.9-2-2V7c0-1.1,0.9-2,2-2h2.1h1h5.6h1H15c1.1,0,2,0.9,2,2V15z M9,1
		c1.7,0,3,1.3,3,3H6C6,2.3,7.3,1,9,1z"/>
	<path class="st0" d="M14,8.2H4C3.6,8.2,3.2,8.6,3.2,9S3.6,9.7,4,9.7h10c0.4,0,0.8-0.3,0.8-0.8S14.4,8.2,14,8.2z"/>
	<path class="st0" d="M9,11.2H4c-0.4,0-0.8,0.3-0.8,0.8s0.3,0.8,0.8,0.8h5c0.4,0,0.8-0.3,0.8-0.8S9.4,11.2,9,11.2z"/>
</g>
</svg>
