<svg width="280" height="100" viewBox="0 0 189 84" fill="none" xmlns="http://www.w3.org/2000/svg">
    <path
        d="M33.168 52V42.7197H35.1357V52H33.168ZM45.6538 44.77C46.4578 44.77 47.0651 44.9774 47.4756 45.3921C47.8903 45.8026 48.0977 46.4627 48.0977 47.3726V52H46.1553V47.855C46.1553 47.3472 46.0685 46.9642 45.895 46.7061C45.7215 46.4479 45.4528 46.3188 45.0889 46.3188C44.5768 46.3188 44.2129 46.5029 43.9971 46.8711C43.7812 47.235 43.6733 47.7576 43.6733 48.439V52H41.7373V47.855C41.7373 47.5164 41.6992 47.2329 41.623 47.0044C41.5469 46.7759 41.4305 46.6045 41.2739 46.4902C41.1174 46.376 40.9163 46.3188 40.6709 46.3188C40.3112 46.3188 40.0277 46.4098 39.8203 46.5918C39.6172 46.7695 39.4712 47.034 39.3823 47.3853C39.2977 47.7323 39.2554 48.1576 39.2554 48.6611V52H37.3193V44.9033H38.7983L39.0586 45.811H39.1665C39.3104 45.5656 39.4902 45.3667 39.7061 45.2144C39.9261 45.062 40.1673 44.9499 40.4297 44.8779C40.6921 44.806 40.9587 44.77 41.2295 44.77C41.75 44.77 42.1901 44.8547 42.5498 45.0239C42.9137 45.1932 43.193 45.4556 43.3877 45.811H43.5591C43.7707 45.4471 44.069 45.1826 44.4541 45.0176C44.8434 44.8525 45.2433 44.77 45.6538 44.77ZM52.998 44.7573C53.9502 44.7573 54.6802 44.9647 55.188 45.3794C55.6958 45.7941 55.9497 46.4246 55.9497 47.271V52H54.5977L54.2231 51.0352H54.1724C53.9692 51.2891 53.7619 51.4964 53.5503 51.6572C53.3387 51.818 53.0954 51.9365 52.8203 52.0127C52.5452 52.0889 52.2109 52.127 51.8174 52.127C51.3984 52.127 51.0218 52.0465 50.6875 51.8857C50.3574 51.7249 50.0972 51.4795 49.9067 51.1494C49.7163 50.8151 49.6211 50.3919 49.6211 49.8799C49.6211 49.1266 49.8856 48.5723 50.4146 48.2168C50.9435 47.8571 51.737 47.6582 52.7949 47.6201L54.0264 47.582V47.271C54.0264 46.8986 53.929 46.6257 53.7344 46.4521C53.5397 46.2786 53.2689 46.1919 52.9219 46.1919C52.5791 46.1919 52.2427 46.2406 51.9126 46.3379C51.5825 46.4352 51.2524 46.5579 50.9224 46.7061L50.2812 45.3984C50.6579 45.1995 51.0789 45.043 51.5444 44.9287C52.0142 44.8145 52.4987 44.7573 52.998 44.7573ZM54.0264 48.7119L53.2773 48.7373C52.651 48.7542 52.2152 48.8664 51.9697 49.0737C51.7285 49.2811 51.6079 49.554 51.6079 49.8926C51.6079 50.1888 51.6947 50.4004 51.8682 50.5273C52.0417 50.6501 52.2681 50.7114 52.5474 50.7114C52.9621 50.7114 53.3112 50.5887 53.5947 50.3433C53.8825 50.0978 54.0264 49.7487 54.0264 49.2959V48.7119ZM60.0249 55.123C59.0347 55.123 58.2772 54.9495 57.7524 54.6025C57.2319 54.2598 56.9717 53.7773 56.9717 53.1553C56.9717 52.7279 57.105 52.3703 57.3716 52.0825C57.6382 51.7948 58.0296 51.5895 58.5459 51.4668C58.347 51.3822 58.1735 51.2446 58.0254 51.0542C57.8773 50.8595 57.8032 50.6543 57.8032 50.4385C57.8032 50.1676 57.8815 49.9434 58.0381 49.7656C58.1947 49.5837 58.4211 49.4059 58.7173 49.2324C58.3449 49.0716 58.0487 48.8135 57.8286 48.458C57.6128 48.1025 57.5049 47.6836 57.5049 47.2012C57.5049 46.6849 57.617 46.2469 57.8413 45.8872C58.0698 45.5233 58.3999 45.2461 58.8315 45.0557C59.2674 44.8652 59.7964 44.77 60.4185 44.77C60.5496 44.77 60.702 44.7785 60.8755 44.7954C61.049 44.8123 61.2077 44.8314 61.3516 44.8525C61.4997 44.8737 61.5991 44.8906 61.6499 44.9033H64.1255V45.8872L63.0146 46.1729C63.1162 46.3294 63.1924 46.4966 63.2432 46.6743C63.2939 46.8521 63.3193 47.0404 63.3193 47.2393C63.3193 48.001 63.0527 48.5955 62.5195 49.0229C61.9906 49.4461 61.2542 49.6577 60.3105 49.6577C60.0863 49.645 59.8747 49.6281 59.6758 49.6069C59.5785 49.6831 59.5044 49.7635 59.4536 49.8481C59.4028 49.9328 59.3774 50.0216 59.3774 50.1147C59.3774 50.2078 59.4155 50.2861 59.4917 50.3496C59.5721 50.4089 59.6906 50.4554 59.8472 50.4893C60.008 50.5189 60.2069 50.5337 60.4438 50.5337H61.6499C62.4285 50.5337 63.021 50.7008 63.4272 51.0352C63.8377 51.3695 64.043 51.8604 64.043 52.5078C64.043 53.3372 63.696 53.9805 63.002 54.4375C62.3122 54.8945 61.3198 55.123 60.0249 55.123ZM60.1074 53.8599C60.5687 53.8599 60.9644 53.8154 61.2944 53.7266C61.6287 53.6419 61.8848 53.5192 62.0625 53.3584C62.2402 53.2018 62.3291 53.0135 62.3291 52.7935C62.3291 52.6157 62.2762 52.474 62.1704 52.3682C62.0688 52.2666 61.9123 52.1947 61.7007 52.1523C61.4933 52.11 61.2267 52.0889 60.9009 52.0889H59.8979C59.661 52.0889 59.4473 52.127 59.2568 52.2031C59.0706 52.2793 58.9225 52.3851 58.8125 52.5205C58.7025 52.6602 58.6475 52.821 58.6475 53.0029C58.6475 53.2695 58.7744 53.479 59.0283 53.6313C59.2865 53.7837 59.6462 53.8599 60.1074 53.8599ZM60.4185 48.4771C60.7824 48.4771 61.049 48.3649 61.2183 48.1406C61.3875 47.9163 61.4722 47.6117 61.4722 47.2266C61.4722 46.7992 61.3833 46.4797 61.2056 46.2681C61.0321 46.0522 60.7697 45.9443 60.4185 45.9443C60.063 45.9443 59.7964 46.0522 59.6187 46.2681C59.4409 46.4797 59.3521 46.7992 59.3521 47.2266C59.3521 47.6117 59.4388 47.9163 59.6123 48.1406C59.79 48.3649 60.0588 48.4771 60.4185 48.4771ZM68.2261 44.77C68.882 44.77 69.4469 44.897 69.9209 45.1509C70.3949 45.4006 70.7609 45.7645 71.019 46.2427C71.2772 46.7209 71.4062 47.3049 71.4062 47.9946V48.9341H66.8296C66.8507 49.48 67.0137 49.9095 67.3184 50.2227C67.6273 50.5316 68.0547 50.686 68.6006 50.686C69.0534 50.686 69.4681 50.6395 69.8447 50.5464C70.2214 50.4533 70.6086 50.3136 71.0063 50.1274V51.6255C70.6551 51.799 70.2869 51.9259 69.9019 52.0063C69.521 52.0868 69.0576 52.127 68.5117 52.127C67.8008 52.127 67.1702 51.9958 66.6201 51.7334C66.0742 51.471 65.6447 51.0711 65.3315 50.5337C65.0226 49.9963 64.8682 49.3192 64.8682 48.5024C64.8682 47.673 65.0078 46.9832 65.2871 46.4331C65.5706 45.8787 65.9642 45.464 66.4678 45.189C66.9714 44.9097 67.5575 44.77 68.2261 44.77ZM68.2388 46.1475C67.8621 46.1475 67.549 46.2681 67.2993 46.5093C67.0539 46.7505 66.9121 47.1292 66.874 47.6455H69.5908C69.5866 47.3577 69.5337 47.1017 69.4321 46.8774C69.3348 46.6532 69.1867 46.4754 68.9878 46.3442C68.7931 46.2131 68.5435 46.1475 68.2388 46.1475ZM80.3882 44.77C81.1457 44.77 81.755 44.9774 82.2163 45.3921C82.6776 45.8026 82.9082 46.4627 82.9082 47.3726V52H80.9722V47.855C80.9722 47.3472 80.8791 46.9642 80.6929 46.7061C80.5109 46.4479 80.2231 46.3188 79.8296 46.3188C79.2371 46.3188 78.833 46.5199 78.6172 46.9219C78.4014 47.3239 78.2935 47.9036 78.2935 48.6611V52H76.3574V44.9033H77.8364L78.0967 45.811H78.2046C78.3569 45.5656 78.5452 45.3667 78.7695 45.2144C78.998 45.062 79.2498 44.9499 79.5249 44.8779C79.8042 44.806 80.092 44.77 80.3882 44.77ZM91.3506 48.439C91.3506 49.0314 91.2702 49.5562 91.1094 50.0132C90.9528 50.4702 90.7222 50.8574 90.4175 51.1748C90.117 51.488 89.7531 51.7249 89.3257 51.8857C88.9025 52.0465 88.4243 52.127 87.8911 52.127C87.3918 52.127 86.9326 52.0465 86.5137 51.8857C86.099 51.7249 85.7371 51.488 85.4282 51.1748C85.1235 50.8574 84.8866 50.4702 84.7173 50.0132C84.5522 49.5562 84.4697 49.0314 84.4697 48.439C84.4697 47.6519 84.6094 46.9854 84.8887 46.4395C85.168 45.8936 85.5658 45.4788 86.082 45.1953C86.5983 44.9118 87.214 44.77 87.9292 44.77C88.5936 44.77 89.1818 44.9118 89.6938 45.1953C90.2101 45.4788 90.6143 45.8936 90.9062 46.4395C91.2025 46.9854 91.3506 47.6519 91.3506 48.439ZM86.4438 48.439C86.4438 48.9045 86.4946 49.2959 86.5962 49.6133C86.6978 49.9307 86.8564 50.1698 87.0723 50.3306C87.2881 50.4914 87.5695 50.5718 87.9165 50.5718C88.2593 50.5718 88.5365 50.4914 88.748 50.3306C88.9639 50.1698 89.1204 49.9307 89.2178 49.6133C89.3193 49.2959 89.3701 48.9045 89.3701 48.439C89.3701 47.9692 89.3193 47.5799 89.2178 47.271C89.1204 46.9578 88.9639 46.723 88.748 46.5664C88.5322 46.4098 88.2508 46.3315 87.9038 46.3315C87.3918 46.3315 87.0194 46.5072 86.7866 46.8584C86.5581 47.2096 86.4438 47.7365 86.4438 48.439ZM95.9399 50.5845C96.1515 50.5845 96.3568 50.5633 96.5557 50.521C96.7588 50.4787 96.9598 50.4258 97.1587 50.3623V51.8032C96.9513 51.8963 96.6932 51.9725 96.3843 52.0317C96.0796 52.0952 95.7453 52.127 95.3813 52.127C94.9582 52.127 94.5773 52.0592 94.2388 51.9238C93.9045 51.7842 93.64 51.5451 93.4453 51.2065C93.2549 50.8638 93.1597 50.3877 93.1597 49.7783V46.3569H92.2329V45.5381L93.2993 44.8906L93.8579 43.3926H95.0957V44.9033H97.0825V46.3569H95.0957V49.7783C95.0957 50.0492 95.1719 50.2523 95.3242 50.3877C95.4808 50.5189 95.686 50.5845 95.9399 50.5845ZM105.899 46.3569H104.224V52H102.288V46.3569H101.221V45.4238L102.288 44.9033V44.3828C102.288 43.7777 102.389 43.3079 102.592 42.9736C102.8 42.6351 103.09 42.3981 103.462 42.2627C103.839 42.123 104.283 42.0532 104.795 42.0532C105.172 42.0532 105.514 42.085 105.823 42.1484C106.132 42.2077 106.384 42.2754 106.579 42.3516L106.083 43.7734C105.935 43.7269 105.775 43.6846 105.601 43.6465C105.428 43.6084 105.229 43.5894 105.004 43.5894C104.734 43.5894 104.535 43.6719 104.408 43.8369C104.285 43.9977 104.224 44.2051 104.224 44.459V44.9033H105.899V46.3569ZM113.466 48.439C113.466 49.0314 113.385 49.5562 113.225 50.0132C113.068 50.4702 112.837 50.8574 112.533 51.1748C112.232 51.488 111.868 51.7249 111.441 51.8857C111.018 52.0465 110.54 52.127 110.006 52.127C109.507 52.127 109.048 52.0465 108.629 51.8857C108.214 51.7249 107.852 51.488 107.543 51.1748C107.239 50.8574 107.002 50.4702 106.833 50.0132C106.667 49.5562 106.585 49.0314 106.585 48.439C106.585 47.6519 106.725 46.9854 107.004 46.4395C107.283 45.8936 107.681 45.4788 108.197 45.1953C108.714 44.9118 109.329 44.77 110.044 44.77C110.709 44.77 111.297 44.9118 111.809 45.1953C112.325 45.4788 112.729 45.8936 113.021 46.4395C113.318 46.9854 113.466 47.6519 113.466 48.439ZM108.559 48.439C108.559 48.9045 108.61 49.2959 108.711 49.6133C108.813 49.9307 108.972 50.1698 109.188 50.3306C109.403 50.4914 109.685 50.5718 110.032 50.5718C110.375 50.5718 110.652 50.4914 110.863 50.3306C111.079 50.1698 111.236 49.9307 111.333 49.6133C111.435 49.2959 111.485 48.9045 111.485 48.439C111.485 47.9692 111.435 47.5799 111.333 47.271C111.236 46.9578 111.079 46.723 110.863 46.5664C110.647 46.4098 110.366 46.3315 110.019 46.3315C109.507 46.3315 109.135 46.5072 108.902 46.8584C108.673 47.2096 108.559 47.7365 108.559 48.439ZM121.578 44.9033V52H120.093L119.833 51.0923H119.731C119.579 51.3335 119.388 51.5303 119.16 51.6826C118.931 51.835 118.679 51.9471 118.404 52.019C118.129 52.091 117.844 52.127 117.547 52.127C117.04 52.127 116.597 52.0381 116.221 51.8604C115.844 51.6784 115.55 51.397 115.338 51.0161C115.131 50.6353 115.027 50.1401 115.027 49.5308V44.9033H116.963V49.0483C116.963 49.5562 117.054 49.9391 117.236 50.1973C117.418 50.4554 117.708 50.5845 118.106 50.5845C118.5 50.5845 118.808 50.4956 119.033 50.3179C119.257 50.1359 119.414 49.8714 119.502 49.5244C119.596 49.1732 119.642 48.7458 119.642 48.2422V44.9033H121.578ZM127.64 44.77C128.398 44.77 129.007 44.9774 129.468 45.3921C129.93 45.8026 130.16 46.4627 130.16 47.3726V52H128.224V47.855C128.224 47.3472 128.131 46.9642 127.945 46.7061C127.763 46.4479 127.475 46.3188 127.082 46.3188C126.489 46.3188 126.085 46.5199 125.869 46.9219C125.653 47.3239 125.545 47.9036 125.545 48.6611V52H123.609V44.9033H125.088L125.349 45.811H125.457C125.609 45.5656 125.797 45.3667 126.021 45.2144C126.25 45.062 126.502 44.9499 126.777 44.8779C127.056 44.806 127.344 44.77 127.64 44.77ZM134.4 52.127C133.609 52.127 132.964 51.818 132.464 51.2002C131.969 50.5781 131.722 49.6662 131.722 48.4644C131.722 47.2498 131.973 46.3315 132.477 45.7095C132.981 45.0832 133.639 44.77 134.451 44.77C134.79 44.77 135.088 44.8166 135.346 44.9097C135.604 45.0028 135.826 45.1276 136.013 45.2842C136.203 45.4408 136.364 45.6164 136.495 45.811H136.559C136.533 45.6756 136.501 45.4767 136.463 45.2144C136.43 44.9478 136.413 44.6748 136.413 44.3955V42.123H138.355V52H136.87L136.495 51.0796H136.413C136.29 51.2743 136.135 51.452 135.949 51.6128C135.767 51.7694 135.549 51.8942 135.295 51.9873C135.042 52.0804 134.743 52.127 134.4 52.127ZM135.08 50.5845C135.609 50.5845 135.981 50.4279 136.197 50.1147C136.417 49.7974 136.533 49.3213 136.546 48.6865V48.4771C136.546 47.7873 136.44 47.2604 136.229 46.8965C136.017 46.5283 135.623 46.3442 135.048 46.3442C134.62 46.3442 134.286 46.5283 134.045 46.8965C133.804 47.2646 133.683 47.7957 133.683 48.4897C133.683 49.1838 133.804 49.7064 134.045 50.0576C134.29 50.4089 134.635 50.5845 135.08 50.5845Z"
        fill="#E5E5E5"/>
    <path
        d="M147.287 7H4.47058C3.10611 7 2 8.10612 2 9.47059V79.5294C2 80.8939 3.10612 82 4.47059 82H177.711C179.076 82 180.182 80.8939 180.182 79.5294V36"
        stroke="#E5E5E5" stroke-width="3" stroke-linecap="round"/>
    <circle cx="175.363" cy="13" r="13" fill="#D04838"/>
    <path
        d="M176.624 16.0801H175.068L174.646 7.15039H177.046L176.624 16.0801ZM174.541 18.9102C174.541 18.4297 174.664 18.0928 174.91 17.8994C175.162 17.7002 175.47 17.6006 175.833 17.6006C176.19 17.6006 176.495 17.7002 176.747 17.8994C176.999 18.0928 177.125 18.4297 177.125 18.9102C177.125 19.3789 176.999 19.7188 176.747 19.9297C176.495 20.1348 176.19 20.2373 175.833 20.2373C175.47 20.2373 175.162 20.1348 174.91 19.9297C174.664 19.7188 174.541 19.3789 174.541 18.9102Z"
        fill="white"/>
</svg>

