<?xml version="1.0" encoding="utf-8"?>
<!-- Generator: Adobe Illustrator 25.2.0, SVG Export Plug-In . SVG Version: 6.00 Build 0)  -->
<svg version="1.1" id="Calque_1" xmlns="http://www.w3.org/2000/svg" xmlns:xlink="http://www.w3.org/1999/xlink" x="0px" y="0px"
	 viewBox="0 0 200 200" style="enable-background:new 0 0 200 200;" xml:space="preserve">
<style type="text/css">
	.st0{fill:#F5A800;}
	.st1{fill:#7B868C;}
	.st2{fill:#71A850;}
	.st3{fill:#00AFAA;}
	.st4{fill:#009ABF;}
	.st5{fill:#003DA6;}
</style>
<g>
	<path class="st0" d="M114.6,141.9c0,0.8-0.6,1.4-1.4,1.4H87c-0.8,0-1.4-0.6-1.4-1.4v-4.1c0-0.8,0.6-1.4,1.4-1.4h26.2
		c0.8,0,1.4,0.6,1.4,1.4V141.9z"/>
	<g>
		<path class="st1" d="M56.8,115.9h-2.5c0,0.1-0.1,0.3-0.1,0.4c0,0.1,0,0.3,0.1,0.4H56c0,1.2-0.3,2.1-1.6,2.1c-1.1,0-1.6-1-1.6-1.9
			v-1.7c0-1,0.5-2,1.7-2c0.7,0,1.2,0.3,1.5,0.9c0.3-0.1,0.5-0.2,0.7-0.4c-0.5-0.9-1.2-1.3-2.2-1.3c-1.5,0-2.6,1-2.6,2.5v2
			c0,1.5,1,2.6,2.5,2.6c1.6,0,2.4-1,2.4-2.6V115.9z"/>
		<path class="st1" d="M60,112.5c-0.2,0-0.3,0-0.5,0.1l-2.3,6.9h0.9l0.7-2.2h2.4l0.8,2.2h0.9l-2.3-6.9
			C60.3,112.5,60.2,112.5,60,112.5z M59.1,116.4l0.9-2.8l1,2.8H59.1z"/>
		<path class="st1" d="M67.9,112.9c0-0.1,0-0.2,0-0.4h-4.3c0,0.1-0.1,0.3-0.1,0.4c0,0.1,0,0.3,0.1,0.4h3.3l-3.6,5.3
			c-0.1,0.1-0.1,0.3-0.1,0.4c0,0.1,0,0.3,0.1,0.4h4.6c0.1-0.1,0.1-0.3,0.1-0.4c0-0.1,0-0.3-0.1-0.4h-3.6l3.6-5.3
			C67.9,113.2,67.9,113,67.9,112.9z"/>
		<path class="st1" d="M76,116.1c0.7-0.4,0.9-1,0.9-1.7c0-0.8-0.5-1.9-1.9-1.9h-2.5v6.9h0.9v-2.8h1.4c0.8,0,1.3,0.3,1.3,1.2v1.6H77
			v-1.7C77,117.1,76.7,116.4,76,116.1z M74.8,115.8h-1.4v-2.5h1.4c0.8,0,1.3,0.5,1.3,1.2C76,115.3,75.6,115.8,74.8,115.8z"/>
		<polygon class="st1" points="80.1,110.4 79.4,111.7 79.9,111.7 80.9,110.4 		"/>
		<path class="st1" d="M78.9,118.6v-2.5h2.6c0-0.1,0-0.3,0-0.4c0-0.1,0-0.3,0-0.4h-2.6v-2h2.9c0-0.1,0-0.3,0-0.4c0-0.1,0-0.3,0-0.4
			h-3.8v6.9H82c0-0.1,0.1-0.3,0.1-0.4c0-0.1,0-0.3-0.1-0.4H78.9z"/>
		<path class="st1" d="M84.8,118.8c-0.8,0-1.5-0.4-1.6-1.2c-0.3,0-0.5,0-0.8,0.2c0.2,1.2,1.3,1.8,2.4,1.8c1.3,0,2.4-0.6,2.4-2.1
			c0-2.5-3.7-1.6-3.7-3.3c0-0.7,0.7-1.1,1.3-1.1c0.6,0,1.2,0.2,1.4,0.8c0.3,0,0.5-0.1,0.8-0.3c-0.4-0.9-1.3-1.3-2.2-1.3
			c-1.2,0-2.2,0.7-2.2,1.9c0,2.3,3.7,1.6,3.7,3.3C86.3,118.4,85.6,118.8,84.8,118.8z"/>
		<path class="st1" d="M91.9,119c0-0.1,0-0.3,0-0.4h-3.1v-2.5h2.6c0-0.1,0-0.3,0-0.4c0-0.1,0-0.3,0-0.4h-2.6v-2h2.9
			c0-0.1,0-0.3,0-0.4c0-0.1,0-0.3,0-0.4H88v6.9h3.9C91.9,119.3,91.9,119.1,91.9,119z"/>
		<path class="st1" d="M95,112.5c-0.2,0-0.3,0-0.5,0.1l-2.3,6.9H93l0.8-2.2h2.4l0.8,2.2h0.9l-2.3-6.9
			C95.3,112.5,95.2,112.5,95,112.5z M94.1,116.4l0.9-2.8l0.9,2.8H94.1z"/>
		<path class="st1" d="M100.6,119.6c1.6,0,2.5-1,2.5-2.6v-4.4h-0.9v4.2c0,1.1-0.4,2-1.6,2c-1.2,0-1.6-0.9-1.6-2v-4.2h-0.9v4.4
			C98.1,118.6,99.1,119.6,100.6,119.6z"/>
		<path class="st1" d="M17.8,122.7h-2.1v6.9h2.1c1.5,0,2.5-1,2.5-2.5v-1.9C20.3,123.8,19.2,122.7,17.8,122.7z M19.4,126.9
			c0,1-0.6,1.9-1.7,1.9h-1.1v-5.2h1.1c1.1,0,1.7,0.9,1.7,1.9V126.9z"/>
		<rect x="21.2" y="122.7" class="st1" width="0.9" height="6.9"/>
		<path class="st1" d="M23.9,124.4c0-0.7,0.7-1.1,1.3-1.1c0.6,0,1.2,0.2,1.4,0.8c0.3,0,0.5-0.1,0.8-0.3c-0.4-1-1.3-1.3-2.2-1.3
			c-1.2,0-2.2,0.7-2.2,1.9c0,2.3,3.7,1.6,3.7,3.2c0,0.9-0.7,1.2-1.5,1.2c-0.8,0-1.5-0.4-1.6-1.2c-0.3,0-0.5,0-0.8,0.2
			c0.2,1.2,1.3,1.8,2.4,1.8c1.3,0,2.4-0.6,2.4-2.1C27.6,125.2,23.9,126.1,23.9,124.4z"/>
		<path class="st1" d="M27.8,122.7c0,0.1-0.1,0.3-0.1,0.4c0,0.1,0,0.3,0.1,0.4h1.6v6.1h0.9v-6.1h1.6c0-0.1,0.1-0.3,0.1-0.4
			c0-0.1,0-0.3-0.1-0.4H27.8z"/>
		<path class="st1" d="M36,126.3c0.7-0.4,0.9-1,0.9-1.7c0-0.8-0.5-1.9-1.9-1.9h-2.5v6.9h0.9v-2.8h1.4c0.8,0,1.3,0.3,1.3,1.2v1.7h0.9
			v-1.7C36.9,127.2,36.7,126.6,36,126.3z M34.7,126h-1.4v-2.5h1.4c0.8,0,1.3,0.5,1.3,1.2C36,125.5,35.6,126,34.7,126z"/>
		<rect x="37.9" y="122.7" class="st1" width="0.9" height="6.9"/>
		<path class="st1" d="M43.4,125.8c0.5-0.2,0.7-0.7,0.7-1.4c0-1.2-0.7-1.7-1.9-1.7h-2.3v6.9h2.6c1.2,0,2-0.7,2-1.9
			C44.5,126.6,44,126.2,43.4,125.8z M40.7,123.5h1.5c0.7,0,1,0.3,1,1c0,0.7-0.3,1-1,1h-1.5V123.5z M42.2,128.8h-1.5v-2.5h1.5
			c0.9,0,1.5,0.3,1.5,1.2C43.7,128.4,43.1,128.8,42.2,128.8z"/>
		<path class="st1" d="M49.3,127c0,1.1-0.4,2-1.6,2c-1.2,0-1.6-0.9-1.6-2v-4.2h-0.9v4.5c0,1.6,1,2.6,2.5,2.6c1.6,0,2.5-1,2.5-2.6
			v-4.5h-0.9V127z"/>
		<path class="st1" d="M50.7,122.7c0,0.1,0,0.3,0,0.4c0,0.1,0,0.3,0,0.4h1.6v6.1h0.9v-6.1h1.6c0-0.1,0-0.3,0-0.4c0-0.1,0-0.3,0-0.4
			H50.7z"/>
		<rect x="55.5" y="122.7" class="st1" width="0.9" height="6.9"/>
		<path class="st1" d="M59.8,122.6c-1.5,0-2.6,1.1-2.6,2.6v2c0,1.5,1,2.6,2.6,2.6c1.6,0,2.6-1.1,2.6-2.6v-2
			C62.4,123.7,61.3,122.6,59.8,122.6z M61.5,127c0,1-0.5,2-1.7,2c-1.2,0-1.7-1-1.7-2v-1.6c0-1,0.5-2,1.7-2c1.2,0,1.7,1,1.7,2V127z"
			/>
		<polygon class="st1" points="67,128 64.1,122.7 63.2,122.7 63.2,129.6 64.1,129.6 64.1,124.3 67,129.6 67.9,129.6 67.9,122.7 
			67,122.7 		"/>
		<path class="st1" d="M72.5,122.7v6.9h0.9v-3.3h2.6c0-0.1,0-0.3,0-0.4c0-0.1,0-0.3,0-0.4h-2.6v-2h2.9c0-0.1,0-0.3,0-0.4
			c0-0.1,0-0.3,0-0.4H72.5z"/>
		<path class="st1" d="M80.6,126.3c0.7-0.4,0.9-1,0.9-1.7c0-0.8-0.5-1.9-1.9-1.9h-2.5v6.9H78v-2.8h1.4c0.8,0,1.3,0.3,1.3,1.2v1.7
			h0.9v-1.7C81.6,127.2,81.3,126.6,80.6,126.3z M79.3,126H78v-2.5h1.4c0.8,0,1.3,0.5,1.3,1.2C80.6,125.5,80.2,126,79.3,126z"/>
		<path class="st1" d="M85.1,122.7c-0.2,0-0.3,0-0.5,0.1l-2.3,6.9h0.9l0.7-2.2h2.4l0.8,2.2h0.9l-2.3-6.9
			C85.4,122.7,85.3,122.7,85.1,122.7z M84.2,126.6l0.9-2.8l0.9,2.8H84.2z"/>
		<polygon class="st1" points="93.2,122.7 92.3,122.7 92.3,128 89.3,122.7 88.4,122.7 88.4,129.6 89.3,129.6 89.3,124.3 92.3,129.6 
			93.2,129.6 		"/>
		<path class="st1" d="M94,125.2v2c0,1.5,1,2.6,2.6,2.6c1,0,1.7-0.4,2.2-1.3c-0.2-0.2-0.4-0.4-0.7-0.4c-0.3,0.6-0.8,0.9-1.5,0.9
			c-1.1,0-1.7-1-1.7-2v-1.6c0-1,0.5-2,1.7-2c0.7,0,1.2,0.3,1.5,0.9c0.2-0.1,0.5-0.2,0.7-0.4c-0.5-0.9-1.2-1.3-2.2-1.3
			C95,122.6,94,123.7,94,125.2z"/>
		<path class="st1" d="M100.2,128.8v-2.4h2.6c0-0.1,0.1-0.3,0.1-0.4c0-0.1,0-0.3-0.1-0.4h-2.6v-2h2.9c0-0.1,0-0.3,0-0.4
			c0-0.1,0-0.3,0-0.4h-3.8v6.9h3.9c0-0.1,0-0.3,0-0.4c0-0.1,0-0.3,0-0.4H100.2z"/>
	</g>
	<path class="st2" d="M151,56.7v24.1c2.1-1.8,5.6-2.4,10.9-2.7l0-10.9h8.6C175,67,185,65.7,185,56.7H151z"/>
	<path class="st2" d="M179.2,77.8h-2.3C170.5,78,152,79.6,151,93.6v12.1h3.7c6.6-0.1,7.3-6.9,7.3-9.8v-8.3h4.2c8.6,0,13-2.5,13-7.5
		C179.2,79.5,179.2,77.8,179.2,77.8z"/>
	<path class="st3" d="M127,56.8l-23.9,0v48.9c8.3-1,11.4-5,11.8-10.8V67.2h10.5c0.4,0,0.8,0,1.1,0.1c5,0.6,8.1,2.8,8.5,12.8
		c0,0.6,0,1.2,0,1.7c-0.3,16.3-12.6,21.2-19.5,23l0,0c-0.1,0-0.1,0.1-0.1,0.2v0.4c0,0.1,0.1,0.2,0.1,0.2v0c0,0,0,0,0,0
		c0.1,0,0.2,0,0.3,0c0.2,0,0.3,0,0.5,0c10,0,30.1-2.4,30.1-24.4v-0.4C146.3,61.9,138.1,56.8,127,56.8z"/>
	<path class="st4" d="M76.7,67.2l5.6,0c0.3,0,0.6,0,0.8,0c1.8,0,4.9,0.9,5,4.5v11.5c0.1,0,0.2-0.1,0.3-0.1c0.4-0.1,0.9-0.3,1.4-0.5
		c0,0,0.1,0,0.1,0c0.1,0,0.1-0.1,0.2-0.1c0,0,0,0,0.1,0c0,0,0.1,0,0.1,0c4-2.3,6.9-5.6,6.9-11.5c0-0.8-0.1-1.5-0.2-2.3
		c-0.1-0.6-0.2-1.1-0.3-1.6c-0.9-3.7-3.3-6.7-6.7-8.3c-0.6-0.3-1.2-0.6-1.8-0.8c-2.4-0.9-4.6-1.3-10-1.3c0,0-16.1,0-16.1,0
		c-0.1,0,0,0.1,0,0.1c0.3,0.6,0.7,1.2,1.1,1.8c1.6,2.8,5.6,8.1,12.5,8.6C76,67.2,76.4,67.2,76.7,67.2z"/>
	<path class="st4" d="M99.3,105.6c0,0-1.1-1.5-2.5-3.9c-1.4-2.4-8.6-14.8-9.9-17.1c-1.1-2-2.9-2.8-4.7-3.4c0,0,0,0,0,0
		c-1.3-0.4-2.7-0.5-3.8-0.6c-0.1,0-0.3,0-0.4,0c-0.2,0-0.3,0-0.5,0c-0.1,0-0.2,0-0.4,0h-6.8c-2.7,0.1-3,2.6-3,3.1v7.4h10.2
		c1.2,1.8,2.4,3.5,3.4,5c1.1,1.7,2.2,3.2,2.7,3.8c0.5,0.6,2,3.3,8.5,4.9c2.6,0.6,5.5,0.7,6.6,0.8l0.6,0L99.3,105.6z"/>
	<path class="st5" d="M58.1,80.6c-0.6,0-1.1,0-1.3,0v0h-8.4v8.2h0c0,1.8,0.2,4.2,1.4,5.6c0.9,1.1,1.1,1.3,1.2,1.3l-6.4,0
		c-1.5,0-2.8-0.1-4-0.2c-3.7-0.4-6.1-1.3-7.7-2.8c-1.9-1.8-2.6-4.3-2.9-7.5l0-4.1l0-13.8h21h0.5h7.9c0,0,0,0,0,0
		c-1.6-3.8-4.7-6.3-7.1-7.7c-0.9-0.5-1.6-0.8-2.2-1.1c-2.7-1.1-6.3-1.8-9.6-1.8c-3.7,0-8.4,0.8-12.5,3.2c-3,1.7-3.7,2.3-5.6,4.1
		c-10,9.5-10,25,0,34.6c5.9,5.7,12.8,7.3,17.8,7.3c6.1,0,12.6-1.9,18.2-7.2c0.3-0.3,1.1-1.2,1.6-1.7c0.3-0.4,0.7-0.8,1-1.2v-12
		C61,83,60.7,80.7,58.1,80.6z"/>
</g>
</svg>
