<?xml version="1.0" encoding="utf-8"?>
<!-- Generator: Adobe Illustrator 25.2.0, SVG Export Plug-In . SVG Version: 6.00 Build 0)  -->
<svg version="1.1" id="Calque_1" xmlns="http://www.w3.org/2000/svg" x="0px" y="0px"
     viewBox="0 0 200 200" style="enable-background:new 0 0 200 200;" xml:space="preserve">
<style type="text/css">
	.st0{fill:#1D1D1B;}
</style>
<g>
	<path class="st0" d="M96.6,151.1v10.6c0,7-1.6,12.1-4.8,15.4c-3.3,3.3-8.6,5-15.8,5c-0.1,0-0.2,0-0.2,0c-0.1,0-0.1,0-0.2,0
		c-1.5,0-2.9-0.1-4.3-0.3c-1.4-0.2-2.7-0.5-4-0.8h-0.2c-1.3-0.4-2.5-0.9-3.7-1.5c-1.2-0.6-2.3-1.3-3.4-2c-1.3-1-2.5-2-3.5-3.1
		c-1.1-1.1-2-2.3-2.9-3.6l0.2,0.3c-1.2-1.7-2.3-3.5-3.5-5.3c-1.1-1.8-2.2-3.8-3.3-5.9l-20.6-39.2H10.2V94.2h13.5c0.1,0,0.2,0,0.2,0
		c0.1,0,0.1,0,0.2,0c1.7,0,3.3-0.1,4.9-0.2c1.6-0.2,3-0.5,4.4-0.9h0.2c1.4-0.4,2.7-1,3.9-1.7c1.2-0.7,2.4-1.5,3.5-2.5
		c1.1-1.1,2-2.3,2.8-3.6c0.8-1.3,1.4-2.8,1.8-4.3c1.2-3.3,1.8-7.5,1.8-12.5c0-8.2-1.8-13.9-5.5-17c-3.6-3.2-8.7-4.8-15.1-4.8
		c-1.4,0-2.8,0.1-4.2,0.2c-1.4,0.1-2.8,0.2-4.2,0.3h-0.2c-1.5,0.1-2.9,0.3-4.3,0.5c-1.4,0.2-2.7,0.5-3.9,0.8V23.2L10,23.3
		c1.5-0.9,3.1-1.6,4.7-2.2c1.6-0.6,3.3-1.1,5.1-1.7l-0.5,0.2c2.5-0.6,4.9-1.1,7.4-1.4c2.5-0.3,5-0.4,7.6-0.4c0.1,0,0.2,0,0.3,0
		c0.1,0,0.2,0,0.3,0h-0.2c0.1,0,0.2,0,0.2,0c0.1,0,0.1,0,0.2,0c3.2,0,6.3,0.3,9.4,0.8c3.1,0.5,5.9,1.2,8.6,2.1l0.3,0.2
		c2.8,1,5.4,2.2,8,3.6c2.5,1.4,4.8,3.1,7,5.1v0.2c2.3,2,4.2,4.3,5.9,6.8c1.7,2.5,3.2,5.2,4.3,8.2c2.6,6.1,3.9,13.2,3.9,21.2
		c0,10.8-2.2,20.1-6.6,27.8v0.3c-2,3.6-4.7,6.9-7.9,9.6c-3.2,2.8-6.9,4.9-10.9,6.4l18.8,33.1v0.2c0.6,1.1,1.3,2.1,2.1,3.1
		c0.7,1,1.6,1.9,2.4,2.7c1.4,1.3,3.5,1.9,6.3,1.9l0,0H96.6z M94.4,96h0.2c0.3,0,0.7,0,1,0.1c0.4,0.1,0.7,0.1,1,0.1
		c-0.8,2.8-1.6,5.5-2.4,8.1c-0.9,2.6-1.7,5.2-2.6,7.6h-2.6l-4.2-13c-0.1-0.3-0.2-0.6-0.4-0.7s-0.3-0.2-0.6-0.2h-1v-0.5
		c0-0.5,0.1-0.9,0.4-1.2c0.3-0.3,0.7-0.4,1.2-0.4c0.6,0,1.1,0.2,1.5,0.5c0.4,0.3,0.7,0.9,0.9,1.6l3.1,10.3c0.1,0.2,0.2,0.4,0.2,0.6
		c0.1,0.2,0.1,0.4,0.1,0.6h0.2c0-0.2,0-0.4,0.1-0.6c0.1-0.2,0.1-0.4,0.2-0.6L94.4,96z M86.8,138.6c-0.1,1-0.3,1.6-0.6,2
		c-0.3,0.4-0.8,0.6-1.4,0.6c-0.6,0-1.1-0.1-1.4-0.4c-0.3-0.3-0.4-0.7-0.4-1.2v-0.5h1c0.3,0,0.5-0.1,0.6-0.2c0.1-0.1,0.2-0.3,0.2-0.6
		l1.4-13.2h2.6l3.7,11.4c0.1,0.2,0.2,0.5,0.2,0.8c0.1,0.3,0.1,0.6,0.1,1h0.2c0-0.3,0-0.6,0.1-1c0.1-0.3,0.1-0.6,0.2-0.8l3.5-11.4
		h2.7c0.3,2.6,0.6,5.2,0.8,7.8c0.2,2.6,0.4,5.3,0.6,8c-0.3,0-0.7,0-1,0.1c-0.4,0.1-0.8,0.1-1.2,0.1l-0.8-11.4c0-0.1,0-0.3,0-0.7
		c0-0.4,0-0.6,0-0.7h-0.2c-0.1,0.3-0.2,0.6-0.2,0.8c-0.1,0.2-0.1,0.4-0.1,0.6l-3.5,11.2h-2.2l-3.5-11.2v0.2c0-0.3,0-0.6-0.1-0.9
		c-0.1-0.3-0.1-0.5-0.2-0.7h-0.2c0,0.2,0,0.5,0,0.8s0,0.5,0,0.6L86.8,138.6z M100.5,97.6h-0.2c-0.3,0-0.6-0.1-0.8-0.3
		c-0.2-0.2-0.3-0.5-0.3-0.8v-0.2c0-0.4,0.1-0.7,0.3-1c0.2-0.2,0.5-0.3,1-0.3c0.3,0,0.6,0.1,0.8,0.3c0.2,0.2,0.3,0.5,0.3,1v0.2
		c0,0.3-0.1,0.6-0.3,0.8C101.1,97.5,100.8,97.6,100.5,97.6L100.5,97.6z M99.4,112.1h2.1V99.7h-2.1V112.1z M112.9,138.4v-0.2
		c0.1,0.3,0.2,0.6,0.3,1c0.1,0.3,0.2,0.7,0.2,1.1l0.2-0.2c-0.5,0.3-1.1,0.6-1.8,0.7c-0.6,0.2-1.3,0.2-1.9,0.2h-0.2
		c-1.8,0-3.2-0.5-4.2-1.6c-1-1.1-1.4-2.6-1.4-4.7c0-2.2,0.5-3.9,1.4-5c1-1.1,2.2-1.6,3.7-1.6c1.5,0,2.6,0.5,3.4,1.4
		c0.7,0.9,1.1,2.1,1.1,3.6c0,0.3,0,0.6,0,1c0,0.3-0.1,0.6-0.2,0.8h-7.1v0.2c0,1.4,0.2,2.4,0.6,3c0.4,0.6,1.3,0.9,2.7,0.9
		c0.5,0,1.1-0.1,1.6-0.2C111.9,138.8,112.4,138.6,112.9,138.4L112.9,138.4z M105.9,94.7h-0.2c0.3-0.1,0.7-0.2,1-0.2
		c0.4,0,0.8,0,1.2,0v17.5h-2.1V94.7z M111.6,133.6c0-0.1,0-0.3,0-0.6c0-1.1-0.2-1.8-0.6-2.3c-0.4-0.4-1.1-0.6-1.9-0.6
		c-0.8,0-1.4,0.3-1.8,0.8c-0.5,0.5-0.7,1.4-0.7,2.7l0,0H111.6z M109.5,127.5c-0.3,0-0.6,0-0.9-0.1c-0.3-0.1-0.5-0.1-0.7-0.1l1.8-3.7
		h2.1v0.2c-0.2,0.6-0.5,1.3-0.9,1.9C110.5,126.4,110,126.9,109.5,127.5L109.5,127.5z M112.4,94.7h-0.2c0.4-0.1,0.8-0.2,1.1-0.2
		s0.7,0,1.1,0v17.5h-2.1V94.7z M123.1,138.7c0,0.2,0,0.5,0.1,0.8c0.1,0.3,0.1,0.7,0.2,1.1c-0.3,0.1-0.7,0.2-1.1,0.3
		c-0.4,0.1-0.8,0.2-1.1,0.2c-1.3,0-2.2-0.3-2.8-1c-0.6-0.6-0.9-1.7-0.9-3.1v-6.7h-1.4v-1.8h1.4v-2.7v0.2c0.3-0.1,0.7-0.2,1-0.3
		c0.4-0.1,0.7-0.2,1-0.2v3.1h3.2c0,0.3,0,0.6-0.1,1c-0.1,0.3-0.1,0.6-0.1,0.8h-3.1v6.9c0,0.8,0.1,1.2,0.4,1.4
		c0.3,0.2,0.7,0.3,1.4,0.3c0.3,0,0.6,0,0.9-0.1C122.5,138.9,122.8,138.8,123.1,138.7L123.1,138.7z M126.8,109.5v-0.2
		c0.1,0.3,0.2,0.6,0.2,1c0.1,0.3,0.1,0.7,0.2,1.1c-0.5,0.2-1.1,0.4-1.8,0.6c-0.6,0.2-1.3,0.2-1.9,0.2c-1.8,0-3.2-0.5-4.2-1.5
		c-1-1-1.4-2.6-1.4-4.7c0-2.3,0.5-3.9,1.4-4.9c1-1,2.1-1.5,3.5-1.5c1.5,0,2.6,0.4,3.4,1.3c0.7,0.9,1.1,2.1,1.1,3.7
		c0,0.2,0,0.5,0,0.8c0,0.3,0,0.6,0,1h-7.2v0.2c0,1.3,0.2,2.3,0.7,2.9c0.5,0.6,1.4,1,2.7,1c0.6,0,1.2-0.1,1.8-0.2
		C125.9,109.9,126.4,109.7,126.8,109.5L126.8,109.5z M125.4,104.8c0-0.1,0-0.2,0-0.4s0-0.3,0-0.4c0-1.1-0.2-1.8-0.6-2.2
		c-0.4-0.4-1-0.6-1.8-0.6c-0.9,0-1.5,0.3-1.9,0.9c-0.4,0.6-0.7,1.5-0.8,2.8H125.4z M132.3,128.4c0,0.4,0,0.8-0.1,1.2
		c-0.1,0.4-0.1,0.7-0.1,1c-0.2,0-0.4,0-0.6-0.1c-0.2-0.1-0.3-0.1-0.6-0.1h-0.2c-0.5,0-1,0.1-1.4,0.3c-0.4,0.2-0.8,0.5-1.1,1v9h-2.1
		v-12.2l-0.2,0.2c0.4-0.1,0.8-0.2,1.1-0.2c0.3,0,0.7,0,1.1,0v1.4h0.2c0.6-0.7,1.2-1.2,1.6-1.4c0.4-0.2,0.9-0.3,1.3-0.3
		c0.2,0,0.4,0,0.6,0.1C132.1,128.4,132.2,128.4,132.3,128.4L132.3,128.4z M143.2,139.5c-1,1.1-2.3,1.6-3.8,1.6
		c-1.6,0-2.9-0.5-3.8-1.5c-0.9-1-1.4-2.7-1.4-4.9c0-2,0.5-3.6,1.4-4.7c1-1.1,2.2-1.7,3.9-1.7c1.5,0,2.7,0.5,3.7,1.4
		c1,1,1.4,2.6,1.4,5C144.7,136.9,144.2,138.5,143.2,139.5z M136.5,134.7c0,1.7,0.2,2.9,0.7,3.5c0.5,0.6,1.2,1,2.2,1
		c1,0,1.7-0.3,2.2-1c0.5-0.6,0.8-1.8,0.8-3.5c0-1.7-0.3-2.9-0.8-3.5c-0.5-0.6-1.2-1-2.1-1c-1,0-1.7,0.3-2.3,1
		C136.7,131.8,136.5,133,136.5,134.7L136.5,134.7z M152.7,141.1c-0.4,0-0.8-0.1-1.2-0.2c-0.4-0.1-0.8-0.2-1.2-0.3v5.1h-2.1v-17
		c0.3-0.1,0.7-0.2,1-0.2c0.4,0,0.7,0,1,0v1h0.2c0.4-0.3,0.9-0.6,1.4-0.9c0.5-0.3,1.1-0.4,1.8-0.4h0.2c1.3,0,2.3,0.5,3.1,1.4
		c0.8,1,1.2,2.5,1.2,4.7c0,2.4-0.5,4.1-1.4,5.1C155.8,140.6,154.4,141.1,152.7,141.1L152.7,141.1z M150.3,138.7
		c0.3,0.1,0.7,0.2,1.1,0.3c0.4,0.1,0.9,0.2,1.3,0.2c1.1,0,1.9-0.3,2.4-1c0.5-0.7,0.8-1.9,0.8-3.6c0-1.7-0.2-2.9-0.7-3.5
		c-0.5-0.6-1.2-0.9-2-0.9c-0.5,0-1,0.1-1.5,0.2c-0.5,0.2-0.9,0.4-1.4,0.7V138.7z M169.8,139.5c-1,1.1-2.3,1.6-3.8,1.6
		c-1.6,0-2.9-0.5-3.9-1.5c-1-1-1.4-2.7-1.4-4.9c0-2,0.5-3.6,1.5-4.7c1-1.1,2.3-1.7,3.8-1.7c1.5,0,2.8,0.5,3.8,1.4c1,1,1.5,2.6,1.5,5
		C171.4,136.9,170.8,138.5,169.8,139.5z M163.2,134.7c0,1.7,0.2,2.9,0.7,3.5c0.5,0.6,1.2,1,2.2,1s1.7-0.3,2.3-1
		c0.5-0.6,0.8-1.8,0.8-3.5c0-1.7-0.3-2.9-0.8-3.5c-0.5-0.6-1.3-1-2.3-1c-0.9,0-1.6,0.3-2.1,1C163.4,131.8,163.2,133,163.2,134.7
		L163.2,134.7z M174.9,123.5c0.3,0,0.7,0,1-0.1c0.4-0.1,0.7-0.1,1-0.1v17.5h-2.1V123.5z M180.5,134.9c0-2.2,0.5-3.9,1.4-5
		c1-1.1,2.1-1.6,3.5-1.6c1.5,0,2.6,0.5,3.4,1.4c0.7,0.9,1.1,2.1,1.1,3.6c0,0.3,0,0.6,0,1c0,0.3,0,0.6,0,0.8h-7.2v0.2
		c0,1.4,0.2,2.4,0.7,3c0.5,0.6,1.4,0.9,2.7,0.9c0.6,0,1.2-0.1,1.8-0.2c0.5-0.1,1-0.3,1.4-0.6c0.1,0.3,0.2,0.6,0.3,1
		c0.1,0.3,0.2,0.7,0.2,1.1c-0.5,0.2-1.1,0.4-1.7,0.6c-0.6,0.2-1.3,0.2-2,0.2c-1.8,0-3.2-0.5-4.2-1.5
		C181,138.6,180.5,137,180.5,134.9L180.5,134.9z M187.9,132.9c0-1.1-0.2-1.8-0.6-2.3c-0.4-0.4-1-0.6-1.8-0.6c-0.8,0-1.4,0.3-1.8,0.8
		c-0.5,0.5-0.7,1.4-0.7,2.7h5C187.9,133.5,187.9,133.3,187.9,132.9L187.9,132.9z"/>
</g>
</svg>
