<?xml version="1.0" encoding="utf-8"?>
<!-- Generator: Adobe Illustrator 25.2.0, SVG Export Plug-In . SVG Version: 6.00 Build 0)  -->
<svg version="1.1" id="Calque_1" xmlns="http://www.w3.org/2000/svg" x="0px" y="0px"
     viewBox="0 0 128 42" style="enable-background:new 0 0 128 42;" xml:space="preserve">
<style type="text/css">
	.st0{fill-rule:evenodd;clip-rule:evenodd;fill:#004680;}
	.st1{fill-rule:evenodd;clip-rule:evenodd;fill:#F36B43;}
	.st2{fill:#FFFFFF;}
</style>
<desc>Created with Sketch.</desc>
<g>
	<path id="Fill-1" class="st0" d="M59,13.9C59,12,59,9,59,5c0-0.2,0.1-0.3,0.3-0.3c0,0,0,0,0,0h2.6c0.2,0,0.3,0.2,0.3,0.3
		c0,0,0,0,0,0c0,7.2,0,12.6,0,16.1c0,2.1-0.4,4-1.5,5.8c-0.4,0.6-0.8,1.2-1.3,1.7c-0.1,0.1-0.3,0.3-0.7,0.6c-0.1,0.1-0.4,0.1-0.5,0
		c0,0,0,0,0,0L56.7,27c-0.1-0.1-0.1-0.3,0-0.5c0.3-0.3,0.5-0.4,0.5-0.5c1-1.1,1.6-2.5,1.7-4.1c0.1-2.9-1.9-5.6-4.7-6.4
		c-3.8-1-7.4,1.4-8.1,5.1c0,0.1-0.1,0.4-0.1,0.9c0,0.2-0.2,0.3-0.3,0.3h-2.6c-0.2,0-0.3-0.2-0.3-0.3c0,0,0,0,0,0
		c0-0.4,0-0.7,0.1-0.9c0.6-4.4,4.1-8,8.5-8.5c2.8-0.3,5.3,0.4,7.4,2.2c0,0,0.1,0.1,0.1,0.1c0,0,0,0,0.1,0V13.9z"/>
	<path id="Fill-3" class="st0" d="M32.8,38.1c-5.8,2.2-12.3-1.6-13.1-7.8c-0.1-1-0.2-2.6-0.1-4.7c0-0.2,0.2-0.3,0.3-0.3h2.6
		c0.2,0,0.3,0.2,0.3,0.3c0,0,0,0,0,0c0,1.5,0,2.6,0,3.3c0,3.1,2.1,5.7,5.1,6.3c3.6,0.8,7.3-1.7,7.8-5.4c0-0.4,0.1-0.7,0.1-1.1
		c0-1.5,0-3.7,0-6.7c0-0.2,0.2-0.3,0.3-0.3h2.6c0.2,0,0.3,0.2,0.3,0.3c0,4.6,0,9.2,0,13.8c0,0.9,0,1.7,0,2.6c0,0.2-0.2,0.3-0.3,0.3
		h-2.6c-0.2,0-0.3-0.2-0.3-0.3c0-1,0-1.7,0-2.2C34.9,37.1,33.9,37.7,32.8,38.1z"/>
	<path id="Fill-5" class="st0" d="M9.9,12.5c3.2-1,6.1-0.5,8.8,1.4c0.1,0.1,0.3,0.2,0.5,0.4c0.1,0.1,0.2,0.3,0.1,0.5c0,0,0,0,0,0
		l-2,1.7c-0.1,0.1-0.3,0.1-0.4,0c-0.1-0.1-0.2-0.1-0.2-0.2c-3.6-2.2-8.2-0.7-9.6,3.3c-0.3,0.7-0.3,1.5-0.3,2.3c0,0.6,0,1.6,0,3
		c0,0.2-0.2,0.3-0.3,0.3c0,0,0,0,0,0H3.5c-0.2,0-0.3-0.2-0.3-0.3l0-12.7c0-0.2,0.2-0.3,0.3-0.3c0,0,0,0,0,0h2.7
		c0.2,0,0.3,0.2,0.3,0.3c0,0.7,0,1.4,0,2.2C7.6,13.6,8.7,12.9,9.9,12.5z"/>
	<circle id="Oval" class="st1" cx="7.6" cy="30.1" r="1.2"/>
	<circle id="Oval-Copy-6" class="st1" cx="47.5" cy="30.1" r="1.2"/>
	<circle id="Oval-Copy-8" class="st1" cx="51.2" cy="30.1" r="1.2"/>
	<circle id="Oval-Copy-10" class="st1" cx="70.3" cy="16.8" r="1.2"/>
	<circle id="Oval-Copy-13" class="st1" cx="74" cy="13.1" r="1.2"/>
	<circle id="Oval-Copy-9" class="st1" cx="51.2" cy="33.8" r="1.2"/>
	<circle id="Oval-Copy" class="st1" cx="7.6" cy="33.8" r="1.2"/>
	<circle id="Oval-Copy-3" class="st1" cx="11.6" cy="33.8" r="1.2"/>
	<circle id="Oval-Copy-2" class="st1" cx="7.6" cy="37.6" r="1.2"/>
	<circle id="Oval-Copy-4" class="st1" cx="27.3" cy="20.5" r="1.2"/>
	<circle id="Oval-Copy-7" class="st1" cx="27.3" cy="13.1" r="1.2"/>
	<circle id="Oval-Copy-5" class="st1" cx="31.4" cy="20.5" r="1.2"/>
	<path id="Rectangle" class="st0" d="M66.2,25.3h2.7c0.2,0,0.3,0.2,0.3,0.3v13c0,0.2-0.2,0.3-0.3,0.3h-2.7c-0.2,0-0.3-0.2-0.3-0.3
		v-13C65.9,25.4,66,25.3,66.2,25.3z"/>
	<circle id="Oval_1_" class="st0" cx="67.6" cy="4.6" r="1.7"/>
	<g>
		<path class="st1" d="M121.1,24.9h-34c-2.2,0-4-1.8-4-4v-14c0-2.2,1.8-4,4-4h34c2.2,0,4,1.8,4,4v14
			C125.1,23.1,123.3,24.9,121.1,24.9z"/>
		<g>
			<path class="st2" d="M90.6,9.7h2.5c1.2,0,2,0.2,2.6,0.5s0.8,0.9,0.8,1.6c0,0.5-0.1,0.9-0.4,1.2s-0.6,0.5-1.1,0.6v0.1
				c0.6,0.1,1,0.3,1.3,0.7s0.4,0.8,0.4,1.4c0,0.8-0.3,1.4-0.8,1.8s-1.3,0.7-2.2,0.7h-3.1V9.7z M92,13.2h1.3c0.6,0,1-0.1,1.3-0.3
				S95,12.4,95,12c0-0.4-0.1-0.7-0.4-0.9s-0.8-0.3-1.4-0.3H92V13.2z M92,14.3V17h1.5c0.6,0,1-0.1,1.3-0.3s0.4-0.6,0.4-1.1
				c0-0.4-0.2-0.8-0.5-1s-0.8-0.3-1.4-0.3H92z"/>
			<path class="st2" d="M103.3,18.2h-4.8V9.7h4.8v1.2h-3.4v2.3h3.2v1.2h-3.2V17h3.4V18.2z"/>
			<path class="st2" d="M108.1,18.2h-1.4v-7.4h-2.5V9.7h6.4v1.2h-2.5V18.2z"/>
			<path class="st2" d="M117.3,18.2l-0.9-2.4h-3.3l-0.8,2.4h-1.5l3.2-8.6h1.5l3.2,8.6H117.3z M116.1,14.6l-0.8-2.3
				c-0.1-0.2-0.1-0.4-0.2-0.7s-0.2-0.6-0.2-0.7c-0.1,0.5-0.3,1-0.5,1.6l-0.8,2.2H116.1z"/>
		</g>
	</g>
</g>
</svg>
