<?xml version="1.0" encoding="utf-8"?>
<!-- Generator: Adobe Illustrator 25.2.0, SVG Export Plug-In . SVG Version: 6.00 Build 0)  -->
<svg version="1.1" id="Calque_1" xmlns="http://www.w3.org/2000/svg" xmlns:xlink="http://www.w3.org/1999/xlink" x="0px" y="0px"
	 viewBox="0 0 200 200" style="enable-background:new 0 0 200 200;" xml:space="preserve">
<style type="text/css">
	.st0{fill:#93D500;}
	.st1{fill:#005CB9;}
</style>
<g>
	<path class="st0" d="M93.1,101.3c-3.5,0-6.4-2.6-6.4-5.9l0-1.1h13.7c4.7,0,8.6-3.6,8.6-8v-5.1c0-4.4-3.9-8-8.6-8h-12
		c-0.7,0-1.3,0-2,0.2c-3.9,0.9-6.6,4.1-6.6,7.8v2.9c0,0.7,0.5,1.2,1.1,1.2h4.6c0.6,0,1.1-0.5,1.1-1.2v-0.7v-1.2c0-1.5,1.4-2.8,3-2.8
		h9.4c1.7,0,3,1.2,3,2.8v3c0,1.5-1.4,2.8-3,2.8H76v6.2h3.9v1.1c0,6.8,6,12.2,13.3,12.2H113v-6.3L93.1,101.3z"/>
	<g>
		<path class="st1" d="M62.7,79.5c3.5,0,6.4,2.7,6.4,6v21c0,0.6,0.5,1.1,1.2,1.1h4.4c0.7,0,1.2-0.5,1.2-1.1v-21
			c0-6.8-6-12.2-13.3-12.2H48.5c-0.6,0-1.1,0.5-1.1,1.2v31.9c0,0.7,0.5,1.2,1.1,1.2h4.6c0.6,0,1.1-0.5,1.1-1.2V79.5L62.7,79.5z"/>
		<path class="st1" d="M24.3,79.5h18c0.7,0,1.2-0.5,1.2-1.1v-4.1c0-0.6-0.5-1.1-1.2-1.1H24.2c-5.1,0-9.2,3.8-9.2,8.4v17.5
			c0,4.7,4.1,8.4,9.2,8.4h18.2c0.7,0,1.2-0.5,1.2-1.1v-4.1c0-0.6-0.5-1.1-1.2-1.1h-18c-1.3,0-2.4-1.1-2.4-2.3v-4.8h10.8
			c0.7,0,1.2-0.5,1.2-1.1v-4c0-0.6-0.5-1.1-1.2-1.1H21.8v-6.3C21.8,80.6,23,79.5,24.3,79.5z"/>
		<path class="st1" d="M185,95.8c0-0.3,0-0.6,0-1c-0.3-3.8-4.3-6.7-8.4-6.7h-10.3l-0.3,0c-1.6,0-3-1.5-3-3.3l0-2.3
			c0-1.6,1.5-3,3.3-3h4.1l0,0h10.3c0.5,0,1-0.3,1.2-0.8c0-0.1,0.1-0.2,0.1-0.3v-4.1c0-0.6-0.5-1.1-1.2-1.1l-16,0
			c-4.6,0-8.5,3.5-8.5,7.8l0,4.9c0,4.6,3.5,8.4,7.8,8.4h11.2c1.6,0,3,1.5,3,3.3v0.8c0,1.6-1.4,3-3.2,3h-17.5c-0.5,0-1,0.3-1.2,0.8
			c0,0.1-0.1,0.2-0.1,0.3v4.1c0,0.6,0.5,1.1,1.2,1.1h14.3l4.9,0c4.6,0,8.4-3.5,8.4-7.8V95.8z"/>
		<path class="st1" d="M129,73.3h-14.9c-0.6,0-1.1,0.5-1.1,1.2v20.2c0,0.7,0.5,1.2,1.1,1.2h4.6c0.6,0,1.1-0.5,1.1-1.2l0-15.2l8.4,0
			c3.5,0,6.4,2.7,6.4,6v11c0,3.3-2.9,4.8-6.4,4.8l-15.2,0v6.3l15.2,0c7.3,0,13.3-4.3,13.3-11.1V85.4C141.5,78.9,136.1,73.3,129,73.3
			z"/>
		<path class="st1" d="M152.3,94.9l0-11.5c0-0.7-0.5-1.2-1.1-1.2h-4.6c-0.6,0-1.1,0.5-1.1,1.2v11.5h0l0,11.5c0,0.7,0.5,1.2,1.1,1.2
			h4.6c0.6,0,1.1-0.5,1.1-1.2L152.3,94.9L152.3,94.9z"/>
		<path class="st1" d="M152.3,75.9l0-1.4c0-0.7-0.5-1.2-1.1-1.2h-4.6c-0.6,0-1.1,0.5-1.1,1.2v1.4h0l0,2.4c0,0.7,0.5,1.2,1.1,1.2h4.6
			c0.6,0,1.1-0.5,1.1-1.2L152.3,75.9L152.3,75.9z"/>
		<path class="st1" d="M15,126.1v-8.5c0-0.2,0.1-0.3,0.3-0.4c0.2-0.1,0.4-0.1,0.7-0.1c0.3,0,0.5,0,0.7,0.1c0.2,0.1,0.3,0.2,0.3,0.4
			v7.5h3.5c0.2,0,0.3,0.1,0.4,0.2c0.1,0.1,0.1,0.3,0.1,0.5c0,0.2,0,0.4-0.1,0.5c-0.1,0.1-0.2,0.2-0.4,0.2h-4.5c-0.2,0-0.4,0-0.6-0.1
			C15.1,126.4,15,126.3,15,126.1z"/>
		<path class="st1" d="M25.2,126.1v-8.4c0-0.2,0.1-0.3,0.2-0.4c0.2-0.1,0.3-0.1,0.6-0.1h5c0.2,0,0.3,0.1,0.4,0.2
			c0.1,0.1,0.1,0.3,0.1,0.5c0,0.2-0.1,0.4-0.2,0.5c-0.1,0.1-0.2,0.2-0.4,0.2h-4v2.6h2.2c0.2,0,0.3,0.1,0.4,0.2
			c0.1,0.1,0.2,0.3,0.2,0.5c0,0.2,0,0.3-0.1,0.4c-0.1,0.1-0.2,0.2-0.4,0.2H27v2.6h4c0.2,0,0.3,0.1,0.4,0.2c0.1,0.1,0.2,0.3,0.2,0.5
			c0,0.2,0,0.4-0.1,0.5c-0.1,0.1-0.2,0.2-0.4,0.2h-5c-0.2,0-0.4,0-0.6-0.1C25.3,126.4,25.2,126.3,25.2,126.1z"/>
		<path class="st1" d="M33.6,126.1v-8.5c0-0.2,0.1-0.3,0.3-0.4c0.2-0.1,0.4-0.1,0.7-0.1c0.3,0,0.5,0,0.7,0.1
			c0.2,0.1,0.3,0.2,0.3,0.4v7.5h3.5c0.2,0,0.3,0.1,0.4,0.2c0.1,0.1,0.1,0.3,0.1,0.5c0,0.2,0,0.4-0.1,0.5c-0.1,0.1-0.2,0.2-0.4,0.2
			h-4.5c-0.2,0-0.4,0-0.6-0.1C33.7,126.4,33.6,126.3,33.6,126.1z"/>
		<path class="st1" d="M41.3,126.1v-8.4c0-0.2,0.1-0.3,0.2-0.4c0.2-0.1,0.3-0.1,0.6-0.1h5c0.2,0,0.3,0.1,0.4,0.2
			c0.1,0.1,0.1,0.3,0.1,0.5c0,0.2-0.1,0.4-0.2,0.5c-0.1,0.1-0.2,0.2-0.4,0.2h-4v2.6h2.2c0.2,0,0.3,0.1,0.4,0.2
			c0.1,0.1,0.2,0.3,0.2,0.5c0,0.2,0,0.3-0.1,0.4c-0.1,0.1-0.2,0.2-0.4,0.2h-2.2v2.6h4c0.2,0,0.3,0.1,0.4,0.2
			c0.1,0.1,0.2,0.3,0.2,0.5c0,0.2,0,0.4-0.1,0.5c-0.1,0.1-0.2,0.2-0.4,0.2h-5c-0.2,0-0.4,0-0.6-0.1
			C41.4,126.4,41.3,126.3,41.3,126.1z"/>
		<path class="st1" d="M49.5,123.7v-3.6c0-1,0.3-1.8,0.9-2.3c0.6-0.5,1.4-0.7,2.4-0.7c1,0,1.8,0.2,2.4,0.7c0.6,0.5,0.9,1,0.9,1.8
			c0,0.3-0.1,0.5-0.2,0.7c-0.1,0.1-0.4,0.2-0.7,0.2c-0.6,0-0.9-0.2-0.9-0.5c0-0.1,0-0.2,0-0.3c0-0.1-0.1-0.2-0.1-0.3
			c-0.1-0.1-0.1-0.2-0.2-0.3c-0.1-0.1-0.2-0.2-0.4-0.2c-0.2-0.1-0.4-0.1-0.7-0.1c-1,0-1.5,0.5-1.5,1.5v3.6c0,1,0.5,1.5,1.5,1.5
			c0.3,0,0.6,0,0.8-0.1c0.2-0.1,0.3-0.2,0.4-0.4c0.1-0.2,0.2-0.3,0.2-0.4c0-0.1,0.1-0.3,0.1-0.5c0-0.4,0.3-0.5,0.9-0.5
			c0.3,0,0.6,0.1,0.7,0.2c0.1,0.1,0.2,0.3,0.2,0.7c0,0.8-0.3,1.4-0.9,1.9c-0.6,0.5-1.4,0.7-2.4,0.7c-1,0-1.8-0.2-2.4-0.7
			C49.8,125.5,49.5,124.8,49.5,123.7z"/>
		<path class="st1" d="M57.6,117.9c0-0.2,0-0.4,0.1-0.5c0.1-0.1,0.2-0.2,0.4-0.2h6c0.2,0,0.3,0.1,0.4,0.2c0.1,0.1,0.1,0.3,0.1,0.5
			c0,0.2-0.1,0.4-0.2,0.5c-0.1,0.1-0.2,0.2-0.4,0.2h-2.1v7.5c0,0.2-0.1,0.3-0.3,0.4c-0.2,0.1-0.4,0.1-0.6,0.1c-0.3,0-0.5,0-0.7-0.1
			c-0.2-0.1-0.3-0.2-0.3-0.4v-7.5h-2.1c-0.2,0-0.3-0.1-0.4-0.2C57.7,118.2,57.6,118.1,57.6,117.9z"/>
		<path class="st1" d="M66.7,126.1v-8.5c0-0.1,0.1-0.3,0.2-0.4c0.1-0.1,0.3-0.2,0.4-0.2h2.8c2.2,0,3.4,0.9,3.4,2.7
			c0,0.7-0.2,1.3-0.5,1.7c-0.3,0.4-0.8,0.7-1.4,0.9l1.9,3.2c0,0.1,0.1,0.1,0.1,0.2c0,0.2-0.1,0.4-0.4,0.6c-0.2,0.2-0.5,0.3-0.8,0.3
			c-0.3,0-0.5-0.1-0.6-0.4l-2-3.6h-1.2v3.4c0,0.2-0.1,0.3-0.3,0.4c-0.2,0.1-0.4,0.1-0.7,0.1c-0.2,0-0.5,0-0.6-0.1
			C66.8,126.4,66.7,126.3,66.7,126.1z M68.5,121.4h1.6c1,0,1.5-0.5,1.5-1.4c0-0.9-0.5-1.4-1.5-1.4h-1.6V121.4z"/>
		<path class="st1" d="M75.6,126.1v-8.5c0-0.2,0.1-0.3,0.3-0.4c0.2-0.1,0.4-0.1,0.7-0.1c0.3,0,0.5,0,0.7,0.1
			c0.2,0.1,0.3,0.2,0.3,0.4v8.5c0,0.2-0.1,0.3-0.3,0.4c-0.2,0.1-0.4,0.1-0.6,0.1c-0.3,0-0.5,0-0.7-0.1
			C75.7,126.4,75.6,126.3,75.6,126.1z"/>
		<path class="st1" d="M79.9,123.7v-3.6c0-1,0.3-1.8,0.9-2.3c0.6-0.5,1.4-0.7,2.4-0.7c1,0,1.8,0.2,2.4,0.7c0.6,0.5,0.9,1,0.9,1.8
			c0,0.3-0.1,0.5-0.2,0.7c-0.1,0.1-0.4,0.2-0.7,0.2c-0.6,0-0.9-0.2-0.9-0.5c0-0.1,0-0.2,0-0.3c0-0.1-0.1-0.2-0.1-0.3
			c-0.1-0.1-0.1-0.2-0.2-0.3c-0.1-0.1-0.2-0.2-0.4-0.2c-0.2-0.1-0.4-0.1-0.7-0.1c-1,0-1.5,0.5-1.5,1.5v3.6c0,1,0.5,1.5,1.5,1.5
			c0.3,0,0.6,0,0.8-0.1c0.2-0.1,0.3-0.2,0.4-0.4c0.1-0.2,0.2-0.3,0.2-0.4c0-0.1,0.1-0.3,0.1-0.5c0-0.4,0.3-0.5,0.9-0.5
			c0.3,0,0.6,0.1,0.7,0.2c0.1,0.1,0.2,0.3,0.2,0.7c0,0.8-0.3,1.4-0.9,1.9c-0.6,0.5-1.4,0.7-2.4,0.7c-1,0-1.8-0.2-2.4-0.7
			C80.2,125.5,79.9,124.8,79.9,123.7z"/>
		<path class="st1" d="M88.8,126.1v-8.5c0-0.2,0.1-0.3,0.3-0.4c0.2-0.1,0.4-0.1,0.7-0.1c0.3,0,0.5,0,0.7,0.1
			c0.2,0.1,0.3,0.2,0.3,0.4v8.5c0,0.2-0.1,0.3-0.3,0.4c-0.2,0.1-0.4,0.1-0.6,0.1c-0.3,0-0.5,0-0.7-0.1
			C88.9,126.4,88.8,126.3,88.8,126.1z"/>
		<path class="st1" d="M92.5,117.9c0-0.2,0-0.4,0.1-0.5c0.1-0.1,0.2-0.2,0.4-0.2h6c0.2,0,0.3,0.1,0.4,0.2c0.1,0.1,0.1,0.3,0.1,0.5
			c0,0.2-0.1,0.4-0.2,0.5c-0.1,0.1-0.2,0.2-0.4,0.2H97v7.5c0,0.2-0.1,0.3-0.3,0.4c-0.2,0.1-0.4,0.1-0.6,0.1c-0.3,0-0.5,0-0.7-0.1
			c-0.2-0.1-0.3-0.2-0.3-0.4v-7.5h-2.1c-0.2,0-0.3-0.1-0.4-0.2C92.6,118.2,92.5,118.1,92.5,117.9z"/>
		<path class="st1" d="M101.6,126.1v-8.4c0-0.2,0.1-0.3,0.2-0.4c0.2-0.1,0.3-0.1,0.6-0.1h5c0.2,0,0.3,0.1,0.4,0.2
			c0.1,0.1,0.1,0.3,0.1,0.5c0,0.2-0.1,0.4-0.2,0.5c-0.1,0.1-0.2,0.2-0.4,0.2h-4v2.6h2.2c0.2,0,0.3,0.1,0.4,0.2
			c0.1,0.1,0.2,0.3,0.2,0.5c0,0.2,0,0.3-0.1,0.4c-0.1,0.1-0.2,0.2-0.4,0.2h-2.2v2.6h4c0.2,0,0.3,0.1,0.4,0.2
			c0.1,0.1,0.2,0.3,0.2,0.5c0,0.2,0,0.4-0.1,0.5c-0.1,0.1-0.2,0.2-0.4,0.2h-5c-0.2,0-0.4,0-0.6-0.1
			C101.6,126.4,101.6,126.3,101.6,126.1z"/>
		<path class="st1" d="M113.7,126.1v-8.4c0-0.2,0.1-0.3,0.2-0.4c0.2-0.1,0.3-0.1,0.6-0.1h5c0.2,0,0.3,0.1,0.4,0.2
			c0.1,0.1,0.1,0.3,0.1,0.5c0,0.2-0.1,0.4-0.2,0.5c-0.1,0.1-0.2,0.2-0.4,0.2h-4v2.6h2.2c0.2,0,0.3,0.1,0.4,0.2
			c0.1,0.1,0.2,0.3,0.2,0.5c0,0.2,0,0.3-0.1,0.4c-0.1,0.1-0.2,0.2-0.4,0.2h-2.2v2.6h4c0.2,0,0.3,0.1,0.4,0.2
			c0.1,0.1,0.2,0.3,0.2,0.5c0,0.2,0,0.4-0.1,0.5c-0.1,0.1-0.2,0.2-0.4,0.2h-5c-0.2,0-0.4,0-0.6-0.1
			C113.8,126.4,113.7,126.3,113.7,126.1z"/>
		<path class="st1" d="M122.1,126.1v-8.4c0-0.2,0.1-0.3,0.3-0.4c0.2-0.1,0.4-0.1,0.7-0.1c0.3,0,0.6,0.1,0.8,0.2
			c0.2,0.1,0.4,0.4,0.6,0.7l2.7,4.9v-5.2c0-0.2,0.1-0.3,0.3-0.4c0.2-0.1,0.4-0.1,0.7-0.1c0.3,0,0.5,0,0.7,0.1
			c0.2,0.1,0.3,0.2,0.3,0.4v8.5c0,0.2-0.1,0.3-0.3,0.4c-0.2,0.1-0.4,0.1-0.6,0.1c-0.5,0-0.9-0.2-1.1-0.5l-3-5.2v5.2
			c0,0.2-0.1,0.3-0.3,0.4c-0.2,0.1-0.4,0.1-0.6,0.1c-0.3,0-0.5,0-0.7-0.1C122.2,126.4,122.1,126.3,122.1,126.1z"/>
		<path class="st1" d="M135.2,126.1v-8.5c0-0.1,0.1-0.3,0.2-0.4c0.1-0.1,0.3-0.2,0.4-0.2h2.8c2.2,0,3.4,0.9,3.4,2.7
			c0,0.7-0.2,1.3-0.5,1.7c-0.3,0.4-0.8,0.7-1.4,0.9l1.9,3.2c0,0.1,0.1,0.1,0.1,0.2c0,0.2-0.1,0.4-0.4,0.6c-0.2,0.2-0.5,0.3-0.8,0.3
			c-0.3,0-0.5-0.1-0.6-0.4l-2-3.6h-1.2v3.4c0,0.2-0.1,0.3-0.3,0.4c-0.2,0.1-0.4,0.1-0.7,0.1c-0.2,0-0.5,0-0.6-0.1
			C135.3,126.4,135.2,126.3,135.2,126.1z M137.1,121.4h1.6c1,0,1.5-0.5,1.5-1.4c0-0.9-0.5-1.4-1.5-1.4h-1.6V121.4z"/>
		<path class="st1" d="M144.2,126.1v-8.4c0-0.2,0.1-0.3,0.2-0.4c0.2-0.1,0.3-0.1,0.6-0.1h5c0.2,0,0.3,0.1,0.4,0.2
			c0.1,0.1,0.1,0.3,0.1,0.5c0,0.2-0.1,0.4-0.2,0.5c-0.1,0.1-0.2,0.2-0.4,0.2h-4v2.6h2.2c0.2,0,0.3,0.1,0.4,0.2
			c0.1,0.1,0.2,0.3,0.2,0.5c0,0.2,0,0.3-0.1,0.4c-0.1,0.1-0.2,0.2-0.4,0.2H146v2.6h4c0.2,0,0.3,0.1,0.4,0.2c0.1,0.1,0.2,0.3,0.2,0.5
			c0,0.2,0,0.4-0.1,0.5c-0.1,0.1-0.2,0.2-0.4,0.2h-5c-0.2,0-0.4,0-0.6-0.1C144.3,126.4,144.2,126.3,144.2,126.1z"/>
		<path class="st1" d="M152.1,125.1c0-0.2,0.1-0.4,0.2-0.6c0.2-0.2,0.4-0.3,0.6-0.3c0.1,0,0.3,0.1,0.4,0.2c0.2,0.1,0.3,0.2,0.5,0.4
			c0.1,0.1,0.4,0.2,0.6,0.4c0.3,0.1,0.6,0.2,0.9,0.2c0.5,0,0.8-0.1,1.1-0.3c0.3-0.2,0.5-0.5,0.5-0.8c0-0.3-0.1-0.5-0.2-0.7
			c-0.2-0.2-0.4-0.4-0.7-0.5c-0.3-0.1-0.6-0.3-0.9-0.4c-0.3-0.1-0.6-0.3-1-0.4c-0.3-0.2-0.6-0.3-0.9-0.5c-0.3-0.2-0.5-0.5-0.7-0.8
			c-0.2-0.3-0.2-0.7-0.2-1.1c0-0.5,0.1-0.9,0.3-1.2c0.2-0.4,0.5-0.6,0.8-0.8c0.3-0.2,0.7-0.3,1.1-0.4c0.4-0.1,0.8-0.1,1.2-0.1
			c0.2,0,0.5,0,0.8,0c0.3,0,0.6,0.1,0.9,0.2c0.3,0.1,0.6,0.2,0.8,0.3c0.2,0.2,0.3,0.3,0.3,0.5c0,0.2-0.1,0.4-0.2,0.6
			c-0.1,0.2-0.3,0.3-0.5,0.3c-0.1,0-0.3-0.1-0.7-0.2c-0.4-0.2-0.8-0.2-1.3-0.2c-0.5,0-0.9,0.1-1.2,0.3c-0.3,0.2-0.4,0.4-0.4,0.7
			c0,0.3,0.1,0.5,0.3,0.7c0.2,0.2,0.5,0.3,0.8,0.5c0.3,0.1,0.7,0.3,1.1,0.4c0.4,0.2,0.8,0.4,1.1,0.6c0.3,0.2,0.6,0.5,0.8,0.9
			c0.2,0.4,0.3,0.9,0.3,1.4c0,0.9-0.3,1.6-0.9,2.1c-0.6,0.5-1.4,0.7-2.4,0.7c-0.9,0-1.7-0.2-2.3-0.5
			C152.4,125.9,152.1,125.5,152.1,125.1z"/>
		<path class="st1" d="M161,126.1v-8.4c0-0.2,0.1-0.3,0.2-0.4c0.2-0.1,0.3-0.1,0.6-0.1h5c0.2,0,0.3,0.1,0.4,0.2
			c0.1,0.1,0.1,0.3,0.1,0.5c0,0.2-0.1,0.4-0.2,0.5c-0.1,0.1-0.2,0.2-0.4,0.2h-4v2.6h2.2c0.2,0,0.3,0.1,0.4,0.2
			c0.1,0.1,0.2,0.3,0.2,0.5c0,0.2,0,0.3-0.1,0.4c-0.1,0.1-0.2,0.2-0.4,0.2h-2.2v2.6h4c0.2,0,0.3,0.1,0.4,0.2
			c0.1,0.1,0.2,0.3,0.2,0.5c0,0.2,0,0.4-0.1,0.5c-0.1,0.1-0.2,0.2-0.4,0.2h-5c-0.2,0-0.4,0-0.6-0.1C161.1,126.4,161,126.3,161,126.1
			z"/>
		<path class="st1" d="M178.2,123.7v-6.1c0-0.2,0.1-0.3,0.3-0.4c0.2-0.1,0.4-0.1,0.7-0.1c0.3,0,0.5,0,0.7,0.1
			c0.2,0.1,0.3,0.2,0.3,0.4v6.1c0,1,0.5,1.5,1.6,1.5c1,0,1.6-0.5,1.6-1.5v-6.1c0-0.2,0.1-0.3,0.3-0.4c0.2-0.1,0.4-0.1,0.7-0.1
			s0.5,0,0.7,0.1c0.2,0.1,0.3,0.2,0.3,0.4v6.1c0,1-0.3,1.8-0.9,2.3c-0.6,0.5-1.4,0.7-2.5,0.7c-1,0-1.9-0.2-2.5-0.7
			C178.5,125.5,178.2,124.8,178.2,123.7z"/>
		<path class="st1" d="M23.3,117.8"/>
		<path class="st1" d="M21.8,117.3c0,0,0.2-0.3,0.5-0.2c0,0,0.5,0.1,0.7,0.4c0,0,0.1,0.2,0,0.5l-0.9,2c0,0-0.2,0.2-0.5,0.2
			c0,0-0.2,0-0.4-0.2c0,0-0.3-0.3-0.2-0.6L21.8,117.3z"/>
		<path class="st1" d="M174.4,124.6l0.5,1.7c0.1,0.2,0.3,0.3,0.7,0.3c0.3,0,0.5-0.1,0.7-0.2c0.3-0.1,0.4-0.3,0.4-0.5
			c0,0,0-0.1,0-0.1l-2.7-8.1c-0.1-0.2-0.2-0.4-0.4-0.5c-0.3-0.2-0.7-0.2-1-0.2c-0.3,0-0.7,0-1,0.2c-0.2,0.1-0.4,0.3-0.4,0.5
			l-2.7,8.1c0,0.1,0,0.1,0,0.1c0,0.2,0.1,0.4,0.4,0.5c0.3,0.1,0.4,0.2,0.7,0.2c0.4,0,0.6-0.1,0.7-0.3l0.5-1.7H174.4z M171.3,123.2
			l1.4-4.5l1.4,4.5H171.3z"/>
	</g>
</g>
</svg>
