<?xml version="1.0" encoding="utf-8"?>
<!-- Generator: Adobe Illustrator 26.0.3, SVG Export Plug-In . SVG Version: 6.00 Build 0)  -->
<svg version="1.1" id="Calque_3" xmlns="http://www.w3.org/2000/svg" xmlns:xlink="http://www.w3.org/1999/xlink" x="0px" y="0px"
	 viewBox="0 0 46 40" style="enable-background:new 0 0 46 40;" xml:space="preserve">
<style type="text/css">
	.st0{fill:#004680;}
	.st1{fill:none;}
	.st2{fill:#FF8D6D;}
	.st3{fill-rule:evenodd;clip-rule:evenodd;fill:#004680;}
</style>
<g>
	<path class="st0" d="M44.4,1.6L44.4,1.6c-1-1-2.4-1.6-3.8-1.6c-1.5,0-2.8,0.6-3.8,1.6c0,0-18.5,18.8-18.7,18.9
		c-0.1,0.1-0.2,0.4-0.2,0.4l-2.8,9.6c-0.1,0.2,0,0.5,0.2,0.7c0.1,0.1,0.3,0.2,0.5,0.2c0.1,0,0.1,0,0.2,0l9.7-2.9
		c0.1,0,0.1,0,0.2-0.1l0,0L44.4,9.4C46.5,7.3,46.5,3.8,44.4,1.6z M16.8,29.5l2.1-7.3l5.1,5.1L16.8,29.5z M25.3,26.8L19.5,21
		L35.8,4.5l5.7,5.8L25.3,26.8z M43.4,8.4l-0.9,0.9l-5.7-5.8l0.9-0.9c0.8-0.8,1.8-1.2,2.9-1.2s2.1,0.4,2.9,1.2
		c0.8,0.8,1.2,1.8,1.2,2.9C44.6,6.6,44.2,7.6,43.4,8.4z"/>
	<path class="st1" d="M43.4,2.6c-0.8-0.8-1.8-1.2-2.9-1.2s-2.1,0.4-2.9,1.2l-0.9,0.9l5.7,5.8l0.9-0.9c0.8-0.8,1.2-1.8,1.2-2.9
		C44.6,4.4,44.2,3.4,43.4,2.6z"/>
	<polygon class="st2" points="22.7,15.5 22.7,15.8 23,15.5 	"/>
	<path class="st2" d="M7.9,15.5C7.9,15.5,7.9,15.5,7.9,15.5l-0.4,0c-0.4,0-0.8,0.4-0.8,0.8c0,0.5,0.4,0.8,0.8,0.8h0.4c0,0,0,0,0,0
		h13.5l1.3-1.3v-0.3H7.9z"/>
	<path class="st2" d="M7.6,22.5c-0.5,0-0.8,0.4-0.8,0.8c0,0.5,0.4,0.8,0.8,0.8H17l0.5-1.6H7.6z"/>
	<path class="st2" d="M15.1,30.5l0.2-0.7H7.5c-0.4,0-0.8,0.4-0.8,0.8c0,0.5,0.4,0.8,0.8,0.8h8.3c-0.2,0-0.3-0.1-0.5-0.2
		C15.1,31,15.1,30.7,15.1,30.5z"/>
	<path id="Fill-1" class="st3" d="M29.3,34.5c0,2.4-1.9,4.4-4.3,4.4H5.5c-2.4,0-4.3-1.9-4.3-4.4V13c0-2.4,1.9-4.4,4.3-4.4h18.4
		c0.3,0,0.6-0.3,0.6-0.6c0-0.3-0.3-0.6-0.6-0.6H5.5C2.5,7.5,0,10,0,13v21.4C0,37.5,2.5,40,5.5,40H25c3,0,5.5-2.5,5.5-5.5v-3.2
		c0-0.3-0.3-0.6-0.6-0.6l0,0c-0.3,0-0.6,0.3-0.6,0.6V34.5z"/>
</g>
</svg>
