<?xml version="1.0" encoding="utf-8"?>
<!-- Generator: Adobe Illustrator 26.3.1, SVG Export Plug-In . SVG Version: 6.00 Build 0)  -->
<svg version="1.1" id="Calque_1" xmlns="http://www.w3.org/2000/svg" x="0px" y="0px"
     viewBox="0 0 242 200" style="enable-background:new 0 0 242 200;" xml:space="preserve">
<style type="text/css">
	.st0{fill:#FF9F80;}
	.st1{fill:#004680;}
</style>
<g>
	<path class="st0" d="M145.9,138.9H80.8v-11h65.1V138.9z M83,136.7h60.7v-6.6H83V136.7z"/>
	<g>
		<path class="st1" d="M236.7,25.5H230l-38.6-25c-1.2-0.8-3.3-0.8-4.6-0.5L95,25.5C92,25.6,89.7,28,89.7,31c0,3,2.5,5.5,5.5,5.5h7.8
			v8.8h9.3v39.7c-2.6,0.5-4.6,2.8-4.6,5.6c0,2.5,1.6,4.6,3.8,5.4l-12.2,10.8c-0.1,0.1-0.2,0.2-0.2,0.3H87.2v11h52.4v-11h-12
			c0,0-0.1-0.1-0.1-0.1l-11.8-11.1c2-0.9,3.5-2.9,3.5-5.2c0-2.8-2-5.1-4.6-5.6V45.3h9.3v-8.8H175l-4.9,14.9v6.3
			c0,2.5,2.1,4.6,4.6,4.6h4.4v0.2c0,0.2,0,0.4,0,0.5v19.5c0,0,0,0,0,0.1c0,0,0,0.1,0,0.1c0,0,0,0.1,0,0.1c0,0,0,0.1,0,0.1
			c0,0,0,0.1,0,0.1c0,0,0,0,0,0.1v19.5c0,0,0,0,0,0.1c0,0,0,0.1,0,0.1c0,0,0,0.1,0,0.1c0,0,0,0.1,0,0.1c0,0,0,0.1,0,0.1
			c0,0,0,0,0,0.1v19.5c0,0,0,0,0,0.1c0,0,0,0.1,0,0.1c0,0,0,0.1,0,0.1c0,0,0,0.1,0,0.1c0,0,0,0.1,0,0.1c0,0,0,0,0,0.1v19.5
			c0,0,0,0,0,0.1c0,0,0,0.1,0,0.1c0,0,0,0.1,0,0.1c0,0,0,0.1,0,0.1c0,0,0,0.1,0,0.1c0,0,0,0,0,0.1v19.5c0,0,0,0,0,0.1
			c0,0,0,0.1,0,0.1c0,0,0,0.1,0,0.1c0,0,0,0.1,0,0.1c0,0,0,0.1,0,0.1c0,0,0,0,0,0.1v18.7H179c-2.2,0-4,1.8-4,4v3.7h-4.4
			c-2.4,0-4.3,1.9-4.3,4.3v5.7H235v-5.7c0-2.3-1.8-4.2-4.1-4.3v-5.4v-2.2v-5.4v-2.2v-7.6h-21.8v7.6v2.2v5.4v2.2v5.4h-4.9v-3.7
			c0-2.2-1.8-4-4-4H200v-18.7c0,0,0,0,0-0.1c0,0,0-0.1,0-0.1c0,0,0-0.1,0-0.1c0,0,0-0.1,0-0.1c0,0,0-0.1,0-0.1c0,0,0,0,0-0.1v-19.5
			c0,0,0,0,0-0.1c0,0,0-0.1,0-0.1c0,0,0-0.1,0-0.1c0,0,0-0.1,0-0.1c0,0,0-0.1,0-0.1c0,0,0,0,0-0.1v-19.5c0,0,0,0,0-0.1
			c0,0,0-0.1,0-0.1c0,0,0-0.1,0-0.1c0,0,0-0.1,0-0.1c0,0,0-0.1,0-0.1c0,0,0,0,0-0.1v-19.5c0,0,0,0,0-0.1c0,0,0-0.1,0-0.1
			c0,0,0-0.1,0-0.1c0,0,0-0.1,0-0.1c0,0,0-0.1,0-0.1c0,0,0,0,0-0.1V83.1c0,0,0,0,0-0.1c0,0,0-0.1,0-0.1c0,0,0-0.1,0-0.1
			c0,0,0-0.1,0-0.1c0,0,0-0.1,0-0.1c0,0,0,0,0-0.1V63.1c0-0.2,0-0.4,0-0.5v-0.2c2.4-0.4,4.3-2.4,4.3-5V36.5h32.4
			c3,0,5.5-2.5,5.5-5.5C242.2,28,239.8,25.5,236.7,25.5z M137.4,115.9h-48v-6.6h48V115.9z M102.3,107.1L113.7,97l10.7,10.1H102.3z
			 M116.9,90.6c0,1.8-1.4,3.3-3.1,3.5l0,0l-0.1,0.1c-0.1,0-0.2,0-0.3,0c-1.9,0-3.5-1.6-3.5-3.5c0-1.9,1.6-3.5,3.5-3.5
			C115.3,87.1,116.9,88.7,116.9,90.6z M226,25.5h-26.4L191.3,3L226,25.5z M103.2,25.5l83.6-23.2l-7.1,23.2H103.2z M188.9,2.9
			l8.3,22.6H182L188.9,2.9z M121.6,43.1h-16.5v-6.6h16.5V43.1z M181.4,100V85.6l6.7,7.2L181.4,100z M189.6,94.4l7.8,8.4l-7.8,8.4
			l-7.8-8.4L189.6,94.4z M188.1,112.8l-6.7,7.2v-14.4L188.1,112.8z M189.6,114.5l7.8,8.4l-7.8,8.4l-7.8-8.4L189.6,114.5z
			 M188.1,132.9l-6.7,7.2v-14.4L188.1,132.9z M189.6,134.5l7.8,8.4l-7.8,8.4l-7.8-8.4L189.6,134.5z M188.1,152.9l-6.7,7.2v-14.4
			L188.1,152.9z M189.6,154.5l7.8,8.4l-7.8,8.4l-7.8-8.4L189.6,154.5z M191.1,152.9l6.7-7.2v14.4L191.1,152.9z M191.1,132.9l6.7-7.2
			v14.4L191.1,132.9z M191.1,112.8l6.7-7.2V120L191.1,112.8z M191.1,92.8l6.7-7.2V100L191.1,92.8z M189.6,91.2l-7.8-8.4l7.8-8.4
			l7.8,8.4L189.6,91.2z M181.4,80V65.6l6.7,7.2L181.4,80z M188.1,172.9l-6.7,7.2v-14.4L188.1,172.9z M189.6,174.5l6.8,7.3h-13.7
			L189.6,174.5z M191.1,172.9l6.7-7.2v14.4L191.1,172.9z M197.8,80l-6.7-7.2l6.7-7.2V80z M197.8,62.4l-8.2,8.8l-8.2-8.8v-0.1
			L197.8,62.4L197.8,62.4z M211.3,168.9h17.5v5.4h-17.5V168.9z M211.3,176.5h17.5v5.4h-17.5V176.5z M211.3,184.1h17.5v5.4h-17.5
			V184.1z M209.1,191.7h21.6c1.2,0,2.1,1,2.1,2.1v3.5h-64.4v-3.5c0-1.2,1-2.1,2.1-2.1h4.4h29.2H209.1z M202,185.8v3.7h-24.8v-3.7
			c0-1,0.8-1.8,1.8-1.8h0.2H200h0.2C201.2,184,202,184.9,202,185.8z M199.3,60.2h-20h-4.4c-1.3,0-2.4-1.1-2.4-2.4v-5h29.8v4.6
			C202.1,58.9,200.8,60.2,199.3,60.2z M202.1,50.5h-29.4l4.6-14h24.8V50.5z M236.7,34.3H95.2c-1.8,0-3.3-1.5-3.3-3.3
			c0-1.8,1.5-3.3,3.3-3.3h103.7c0,0,0,0,0,0c0,0,0,0,0,0h37.9c1.8,0,3.3,1.5,3.3,3.3C240,32.9,238.6,34.3,236.7,34.3z"/>
		<path class="st1" d="M18.5,90.2c-2.6,0-4.7,2.1-4.7,4.7v37.7c0,2.6,2.1,4.7,4.7,4.7h32.4c2.6,0,4.7-2.1,4.7-4.7V94.9
			c0-2.6-2.1-4.7-4.7-4.7H18.5z M53.4,94.9v37.7c0,1.4-1.1,2.5-2.5,2.5H18.5c-1.4,0-2.5-1.1-2.5-2.5V94.9c0-1.4,1.1-2.5,2.5-2.5
			h32.4C52.3,92.4,53.4,93.5,53.4,94.9z"/>
		<path class="st1" d="M152.9,52.9h-30.9c-0.6,0-1.1,0.5-1.1,1.1s0.5,1.1,1.1,1.1h30.9c5.3,0,9.6,4.3,9.6,9.6v11.5h-40.5
			c-0.6,0-1.1,0.5-1.1,1.1s0.5,1.1,1.1,1.1h40.5v83.3c0,5.3-4.3,9.6-9.6,9.6h-7v-18.2c0-3-2.5-5.5-5.5-5.5h-54c-3,0-5.5,2.5-5.5,5.5
			v18.2c-0.6,0-1,0.5-1,1.1c0,0.6,0.5,1.1,1.1,1.1h72c6.5,0,11.8-5.3,11.8-11.8v-97C164.8,58.2,159.5,52.9,152.9,52.9z M83,153.1
			c0-1.8,1.5-3.3,3.3-3.3h54c1.8,0,3.3,1.5,3.3,3.3v18.1H83V153.1z"/>
		<path class="st1" d="M105.1,78.5c0.6,0,1.1-0.5,1.1-1.1s-0.5-1.1-1.1-1.1H2.4V64.8c0-5.3,4.3-9.6,9.6-9.6h92.8
			c0.6,0,1.1-0.5,1.1-1.1s-0.5-1.1-1.1-1.1H12.1c-6.5,0-11.8,5.3-11.8,11.8v97c0,0.6,0.5,1.1,1.1,1.1s1.1-0.5,1.1-1.1V78.5H105.1z"
			/>
		<path class="st1" d="M8.2,65.8c0,2.8,2.3,5,5,5s5-2.3,5-5c0-2.8-2.3-5-5-5S8.2,63,8.2,65.8z M16,65.8c0,1.6-1.3,2.8-2.8,2.8
			c-1.6,0-2.8-1.3-2.8-2.8s1.3-2.8,2.8-2.8C14.7,63,16,64.3,16,65.8z"/>
		<path class="st1" d="M23.4,65.8c0,2.8,2.3,5,5,5s5-2.3,5-5c0-2.8-2.3-5-5-5S23.4,63,23.4,65.8z M31.3,65.8c0,1.6-1.3,2.8-2.8,2.8
			c-1.6,0-2.8-1.3-2.8-2.8s1.3-2.8,2.8-2.8C30,63,31.3,64.3,31.3,65.8z"/>
		<path class="st1" d="M38.5,65.8c0,2.8,2.3,5,5,5c2.8,0,5-2.3,5-5c0-2.8-2.3-5-5-5C40.8,60.8,38.5,63,38.5,65.8z M46.4,65.8
			c0,1.6-1.3,2.8-2.8,2.8c-1.6,0-2.8-1.3-2.8-2.8S42,63,43.6,63C45.1,63,46.4,64.3,46.4,65.8z"/>
		<path class="st1" d="M58.2,158.6v-11.8c0-1.3-1.1-2.4-2.4-2.4h-5.1c-1.3,0-2.4,1.1-2.4,2.4v3.8H19.9v-3.8c0-1.3-1.1-2.4-2.4-2.4
			h-5.1c-1.3,0-2.4,1.1-2.4,2.4v50.9c0,1.3,1.1,2.4,2.4,2.4h5.1c0.1,0,0.1,0,0.2,0c0.2,0.1,0.4,0.1,0.6,0.1c0.6,0,1.3-0.2,1.7-0.7
			L34.4,185l14.5,14.5c0.5,0.5,1.1,0.7,1.7,0.7c0.2,0,0.4,0,0.6-0.1h4.6c1.3,0,2.4-1.1,2.4-2.4v-25l26.8,26.8
			c0.5,0.5,1.1,0.7,1.7,0.7c0.7,0,1.3-0.3,1.7-0.7l3.6-3.6c0.5-0.5,0.7-1.1,0.7-1.7c0-0.7-0.3-1.3-0.7-1.7L58.2,158.6z M48.2,152.7
			v4.4l-1,1l-0.2,0.2h0H21.9l-1.9-1.9c0,0-0.1-0.1-0.1-0.1v-3.6H48.2z M19.9,160.5H21l11.9,11.9l-4,4l-9.1-9.1V160.5z M44.8,160.5
			l-10.4,10.4l-9.1-9.1l-1.3-1.3H44.8L44.8,160.5z M21,171.5l6.4,6.4l-6.1,6.1l-1.4,1.4v-15L21,171.5z M12.1,197.7v-50.9
			c0-0.1,0.1-0.3,0.3-0.3h5.1c0.1,0,0.3,0.1,0.3,0.3v3.8v4.7v2.4v0.7v2.2v4.6v3.1v19.4v3.1v6.9c0,0.1-0.1,0.2-0.2,0.2l0,0
			c0,0,0,0,0,0h-5.1C12.2,197.9,12.1,197.8,12.1,197.7z M19.9,196.5v-7.9L30.5,178l0,0l0.6-0.6l4.9-4.9l0,0l4.1-4.1l7.8-7.8h0.3v7.6
			l-9.8,9.8l0,0L19.9,196.5z M48.2,184.7l-6.7-6.7l6.7-6.7V184.7z M39.9,179.5l8.3,8.3v7.9L36,183.5L39.9,179.5z M56,197.7
			c0,0.1-0.1,0.3-0.3,0.3h-5.1c-0.1,0-0.3-0.1-0.3-0.3v-7.7v-3.1v-17.8V166v-5.4v-2.2V158V155v-4.4v-3.8c0-0.1,0.1-0.3,0.3-0.3h5.1
			c0.1,0,0.3,0.1,0.3,0.3v9.6v14.1V197.7z M90.5,194.3l-3.6,3.6c-0.1,0.1-0.2,0.1-0.4,0l-28.3-28.3v-7.9L90.5,194v0
			c0.1,0.1,0.1,0.1,0.1,0.2C90.5,194.2,90.5,194.2,90.5,194.3z"/>
	</g>
</g>
</svg>
