<?xml version="1.0" encoding="utf-8"?>
<!-- Generator: Adobe Illustrator 26.0.1, SVG Export Plug-In . SVG Version: 6.00 Build 0)  -->
<svg version="1.1" id="Calque_1" xmlns="http://www.w3.org/2000/svg" x="0px" y="0px"
     viewBox="0 0 90 90" style="enable-background:new 0 0 90 90;" xml:space="preserve">
<style type="text/css">
	.st0{fill:#FF8D6D;}
	.st1{fill:#004680;}
</style>
<g>
	<path class="st0" d="M49.4,64.2H48c0-1.4-2.8-4.5-4.5-4.5v-1.4c1.6,0,4.5-2.9,4.5-4.5h1.4c0,1.6,2.6,4.5,4.5,4.5v1.4
		C52.1,59.7,49.4,62.7,49.4,64.2z M45.6,59.1c1.2,0.7,2.4,1.9,3.1,3.1c0.7-1.2,1.8-2.4,3-3.1c-1.2-0.7-2.3-1.8-3-3
		C48,57.2,46.8,58.4,45.6,59.1z"/>
	<path class="st0" d="M67.1,35.5h-1.4c0-2.3-4.4-7.1-7.1-7.1V27c2.6,0,7.1-4.5,7.1-7.1h1.4c0,2.6,4.1,7.1,7.1,7.1v1.4
		C71.3,28.4,67.1,33,67.1,35.5z M61,27.7c2.1,1.1,4.3,3.3,5.3,5.4c1-2.1,3.1-4.3,5.3-5.4c-2.1-1.1-4.2-3.2-5.3-5.3
		C65.3,24.5,63.1,26.7,61,27.7z"/>
	<g>
		<path class="st1" d="M56.9,35.4H45.2c-0.1-3.6-3.1-6.4-6.9-6.4c-3.7,0-6.8,2.9-6.9,6.4H19.3c-1.7,0-3.2,1.4-3.2,3.2v28.2
			c0,1.7,1.4,3.2,3.2,3.2h37.6c1.7,0,3.2-1.4,3.2-3.2V38.6C60.1,36.8,58.7,35.4,56.9,35.4z M38.4,30.3c3,0,5.4,2.2,5.5,5h-11
			C33,32.6,35.4,30.3,38.4,30.3z M58.7,66.8c0,1-0.8,1.8-1.8,1.8H19.3c-1,0-1.8-0.8-1.8-1.8V38.6c0-1,0.8-1.8,1.8-1.8h37.6
			c1,0,1.8,0.8,1.8,1.8V66.8z"/>
		<path class="st1" d="M47.7,44H23.3c-0.4,0-0.7,0.3-0.7,0.7c0,0.4,0.3,0.7,0.7,0.7h24.4c0.4,0,0.7-0.3,0.7-0.7
			C48.4,44.4,48.1,44,47.7,44z"/>
		<path class="st1" d="M40.6,50.7H23.3c-0.4,0-0.7,0.3-0.7,0.7c0,0.4,0.3,0.7,0.7,0.7h17.3c0.4,0,0.7-0.3,0.7-0.7
			C41.3,51,41,50.7,40.6,50.7z"/>
	</g>
</g>
</svg>
