<?xml version="1.0" encoding="utf-8"?>
<!-- Generator: Adobe Illustrator 26.0.1, SVG Export Plug-In . SVG Version: 6.00 Build 0)  -->
<svg version="1.1" id="Calque_1" xmlns="http://www.w3.org/2000/svg" xmlns:xlink="http://www.w3.org/1999/xlink" x="0px" y="0px"
	 viewBox="0 0 90 90" style="enable-background:new 0 0 90 90;" xml:space="preserve">
<style type="text/css">
	.st0{fill:#004680;}
	.st1{fill:#FF8D6D;}
</style>
<path class="st0" d="M45.2,29.1c-8,0-14.5,6.5-14.5,14.5c0,1.2,0.1,2.4,0.4,3.4c0.4,1.8,1.1,3,2,4.6l0,0.1c0.1,0.3,0.3,0.5,0.4,0.8
	c0.1,0.2,0.2,0.3,0.3,0.5c0.1,0.2,0.2,0.4,0.4,0.6c0.2,0.3,0.3,0.6,0.5,0.9l0.1,0.2c1.3,2.1,2.1,3.5,2.1,6.2v6.2
	c0,1.3,0.9,2.3,2.2,2.6l0.4,0.1l0.1,0.4c0.5,2.3,1.8,5.1,5.5,5.1c3,0,4.9-1.8,5.5-5l0.1-0.4l0.4-0.1c1.2-0.2,2.2-1.3,2.2-2.6v-6.2
	c0-2.8,0.9-4.3,2.2-6.3c0.3-0.5,0.6-1,0.9-1.5c0.1-0.2,0.2-0.3,0.3-0.5c0.2-0.3,0.3-0.5,0.4-0.7l0.1-0.1c0.9-1.6,1.6-2.7,2-4.5
	c0.3-1.1,0.5-2.2,0.5-3.5C59.8,35.6,53.2,29.1,45.2,29.1z M49.2,70.5c-0.8,3.2-3.2,3.2-3.9,3.2c-0.7,0-3,0-3.9-3.2l-0.2-0.7h8.2
	L49.2,70.5z M51.6,67.8c-0.2,0.3-0.5,0.4-0.9,0.4h-11c-0.6,0-1.1-0.5-1.1-1.1v-2.6h13.2v2.6C51.9,67.4,51.8,67.6,51.6,67.8z
	 M51.9,60.1c0,0.1,0,3,0,3H38.7v-2.1c0-0.3,0-0.5,0-0.7l-0.2-0.7h13.4V60.1z M58.3,43.7c-0.1,1-0.3,2-0.5,3.1
	c-0.3,1.5-0.9,2.5-1.9,4.1c-0.2,0.3-0.3,0.5-0.5,0.8c-0.1,0.1-0.2,0.3-0.2,0.4c-0.2,0.3-0.3,0.5-0.4,0.7c-0.2,0.3-0.3,0.5-0.5,0.8
	l-0.1,0.1c-0.8,1.3-1.4,2.4-1.9,3.7l-0.1,0.4h-14l-0.1-0.4c-0.4-1.2-1-2.3-1.9-3.8c-0.1-0.2-0.2-0.4-0.3-0.5c-0.2-0.3-0.4-0.6-0.6-1
	c-0.2-0.4-0.5-0.9-0.7-1.2c-0.9-1.6-1.5-2.6-1.9-4.2c-0.3-1-0.4-2.1-0.4-3.1c0-7.2,5.8-13,13-13S58.4,36.5,58.3,43.7L58.3,43.7z"/>
<path class="st0" d="M72.3,42.5h-5.5c-0.4,0-0.8,0.3-0.8,0.8c0,0.4,0.3,0.8,0.8,0.8h5.5c0.4,0,0.8-0.3,0.8-0.8
	C73.1,42.9,72.7,42.5,72.3,42.5z"/>
<path class="st0" d="M60.9,28.4l3.9-3.9c0.3-0.3,0.3-0.8,0-1.1c-0.2-0.2-0.3-0.2-0.5-0.2s-0.4,0.1-0.5,0.2l-3.9,3.9
	c-0.3,0.3-0.3,0.8,0,1.1C60.1,28.7,60.6,28.7,60.9,28.4z"/>
<path class="st0" d="M44.9,22.2c0.4,0,0.8-0.3,0.8-0.8v-5.5c0-0.4-0.3-0.8-0.8-0.8s-0.8,0.3-0.8,0.8v5.5
	C44.2,21.9,44.5,22.2,44.9,22.2z"/>
<path class="st0" d="M29,28.4c0.3,0.3,0.8,0.3,1.1,0c0.3-0.3,0.3-0.8,0-1.1l-3.9-3.9c-0.2-0.2-0.3-0.2-0.5-0.2
	c-0.2,0-0.4,0.1-0.5,0.2c-0.3,0.3-0.3,0.8,0,1.1L29,28.4z"/>
<path class="st0" d="M23.4,42.5h-5.5c-0.4,0-0.8,0.3-0.8,0.8c0,0.4,0.3,0.8,0.8,0.8h5.5c0.4,0,0.8-0.3,0.8-0.8
	C24.1,42.9,23.8,42.5,23.4,42.5z"/>
<path class="st0" d="M29.5,57.9C29.5,57.9,29.5,57.9,29.5,57.9c-0.2,0-0.4,0.1-0.5,0.2l0,0l-3.9,3.9c-0.3,0.3-0.3,0.8,0,1.1
	c0.3,0.3,0.8,0.3,1.1,0l3.9-3.9c0.3-0.3,0.3-0.8,0-1.1C29.9,58,29.7,57.9,29.5,57.9z"/>
<path class="st0" d="M60.9,58.2c-0.2-0.2-0.3-0.2-0.5-0.2S60,58,59.8,58.2c-0.3,0.3-0.3,0.8,0,1.1l3.9,3.9c0.3,0.3,0.8,0.3,1.1,0
	c0.3-0.3,0.3-0.8,0-1.1L60.9,58.2z"/>
<path class="st1" d="M47.1,41.7l0.1-3.1c0-0.5-0.7-1-1.2-0.5l-6.4,6.4c-0.6,0.6-0.2,1.2,0.5,1.2h3.4l-0.3,3.3c0,0.7,0.8,0.9,1.2,0.6
	l6.7-6.7c0.4-0.4,0.3-1.2-0.5-1.2L47.1,41.7L47.1,41.7L47.1,41.7z M44.7,47.3l0.2-2.1c0.1-0.4-0.1-0.8-0.7-0.8h-2.5l3.9-3.9l-0.1,2
	c0,0.6,0.4,0.7,0.7,0.7h2.5L44.7,47.3z"/>
</svg>
