<?xml version="1.0" encoding="utf-8"?>
<!-- Generator: Adobe Illustrator 26.0.1, SVG Export Plug-In . SVG Version: 6.00 Build 0)  -->
<svg version="1.1" xmlns="http://www.w3.org/2000/svg" x="0px" y="0px"
     viewBox="0 0 416 220" style="enable-background:new 0 0 416 220;" xml:space="preserve">
<style type="text/css">
	.st0{fill:#FFFFFF;}
	.st1{fill:#FF8D6D;}
</style>
<g id="Calque_1">
</g>
<g id="Calque_2">
	<path class="st0" d="M209.1,76c-17.9,0-32.4,14.5-32.4,32.4c0,2.8,0.3,5.3,1,7.7c0.9,4.1,2.4,6.7,4.5,10.2l0.1,0.2
		c0.3,0.6,0.6,1.1,1,1.7c0.2,0.4,0.4,0.7,0.7,1.1c0.3,0.4,0.5,0.9,0.8,1.4c0.4,0.7,0.8,1.3,1.2,1.9l0.2,0.4
		c2.9,4.7,4.7,7.8,4.7,13.9v13.9c0,2.9,2,5.2,4.9,5.7l0.8,0.1l0.2,0.8c1,5.2,4,11.3,12.3,11.3c6.6,0,11-4,12.3-11.3l0.2-0.9l0.9-0.2
		c2.8-0.5,4.9-3,4.9-5.7v-13.9c0-6.3,2.1-9.6,4.9-14.2c0.6-1,1.3-2.2,2.1-3.4c0.2-0.4,0.4-0.7,0.7-1.1c0.3-0.6,0.7-1.1,0.9-1.6
		l0.2-0.3c2.1-3.5,3.6-6.1,4.5-10.1c0.7-2.5,1-5,1-7.8C241.5,90.6,227,76,209.1,76z M217.9,168.4c-1.9,7.2-7.1,7.2-8.8,7.2
		c-1.7,0-6.7,0-8.6-7.2l-0.4-1.6h18.2L217.9,168.4z M223.4,162.4c-0.5,0.6-1.2,1-2,1h-24.6c-1.4,0-2.4-1.1-2.4-2.4v-5.8h29.5v5.7
		C223.9,161.4,223.8,161.9,223.4,162.4z M224,145.1c0,0.3,0,6.6,0,6.6h-29.5V147c0-0.7,0-1.2-0.1-1.6l-0.4-1.6h30V145.1z
		 M238.4,108.6c-0.3,2.2-0.6,4.5-1.2,6.9c-0.8,3.3-1.9,5.6-4.2,9.3c-0.4,0.6-0.7,1.2-1.1,1.8c-0.2,0.3-0.3,0.6-0.5,0.9
		c-0.4,0.6-0.7,1.1-1,1.6c-0.4,0.6-0.7,1.2-1,1.7l-0.2,0.3c-1.7,2.9-3.2,5.3-4.2,8.2l-0.3,0.9h-31.2l-0.3-0.9
		c-0.9-2.7-2.1-5.1-4.3-8.5c-0.3-0.4-0.5-0.8-0.7-1.2c-0.4-0.7-0.9-1.4-1.3-2.2c-0.6-1-1.1-2-1.6-2.7c-2-3.5-3.4-5.8-4.2-9.4
		c-0.6-2.3-0.9-4.6-0.9-6.9c0-16,13-29,29-29s29,13,29,29L238.4,108.6z"/>
	<path class="st0" d="M269.6,105.9h-12.3c-0.9,0-1.7,0.8-1.7,1.7c0,0.9,0.8,1.7,1.7,1.7h12.3c0.9,0,1.7-0.8,1.7-1.7
		C271.3,106.7,270.5,105.9,269.6,105.9z"/>
	<path class="st0" d="M244.1,74.4l8.7-8.7c0.7-0.7,0.7-1.7,0-2.4c-0.3-0.3-0.8-0.5-1.2-0.5s-0.8,0.2-1.2,0.5l-8.7,8.7
		c-0.7,0.7-0.7,1.7,0,2.4C242.4,75.1,243.4,75.1,244.1,74.4z"/>
	<path class="st0" d="M208.5,60.6c0.9,0,1.7-0.8,1.7-1.7V46.6c0-0.9-0.8-1.7-1.7-1.7c-0.9,0-1.7,0.8-1.7,1.7v12.3
		C206.8,59.8,207.5,60.6,208.5,60.6z"/>
	<path class="st0" d="M172.9,74.4c0.7,0.7,1.7,0.7,2.4,0c0.7-0.7,0.7-1.7,0-2.4l-8.7-8.7c-0.3-0.3-0.8-0.5-1.2-0.5
		c-0.4,0-0.8,0.2-1.2,0.5c-0.7,0.7-0.7,1.7,0,2.4L172.9,74.4z"/>
	<path class="st0" d="M159.8,105.9h-12.3c-0.9,0-1.7,0.8-1.7,1.7c0,0.9,0.8,1.7,1.7,1.7h12.3c0.9,0,1.7-0.8,1.7-1.7
		C161.5,106.7,160.8,105.9,159.8,105.9z"/>
	<path class="st0" d="M174,140.3C174,140.3,174,140.3,174,140.3c-0.5,0-0.8,0.2-1.1,0.5l-0.1,0.1l-8.7,8.7c-0.7,0.7-0.7,1.7,0,2.4
		c0.7,0.7,1.7,0.7,2.4,0l8.7-8.7c0.7-0.7,0.7-1.7,0-2.4C174.9,140.5,174.5,140.3,174,140.3z"/>
	<path class="st0" d="M244.1,140.9c-0.3-0.3-0.8-0.5-1.2-0.5s-0.9,0.2-1.2,0.5c-0.7,0.7-0.7,1.7,0,2.4l8.7,8.7
		c0.7,0.7,1.7,0.7,2.4,0c0.7-0.7,0.7-1.7,0-2.4L244.1,140.9z"/>
	<path class="st1" d="M212.9,105.9v-0.2l-0.2,0l0-0.2l0.2-6.7c0-0.5-0.3-1-0.9-1.2c-0.2-0.1-0.4-0.1-0.5-0.1c-0.3,0-0.6,0.1-0.9,0.4
		l-14.3,14.3c-0.5,0.5-0.7,1-0.5,1.5c0.2,0.5,0.7,0.8,1.4,0.8h7.9l-0.7,7.7c0,0.6,0.3,1.1,0.7,1.3c0.5,0.2,1.1,0.2,1.6-0.2l15-15
		c0.4-0.4,0.6-1,0.4-1.5c-0.2-0.5-0.7-0.8-1.3-0.8H212.9z M207.2,118.8l0.6-5.4c0.1-0.4,0-0.8-0.3-1.1c-0.2-0.3-0.6-0.4-1.1-0.4
		h-6.1l9.6-9.6l-0.2,5.1c0,1.1,0.7,1.4,1.4,1.4h6.1L207.2,118.8z"/>
</g>
</svg>
