<?xml version="1.0" encoding="utf-8"?>
<!-- Generator: Adobe Illustrator 26.0.1, SVG Export Plug-In . SVG Version: 6.00 Build 0)  -->
<svg version="1.1" id="Calque_1" xmlns="http://www.w3.org/2000/svg" x="0px" y="0px"
     viewBox="0 0 40 40" style="enable-background:new 0 0 40 40;" xml:space="preserve">
<style type="text/css">
	.st0{fill-rule:evenodd;clip-rule:evenodd;fill:#E7E9ED;}
	.st1{fill-rule:evenodd;clip-rule:evenodd;fill:#D5D8DE;}
</style>
<circle id="Oval_00000086676206830518572380000003375450670877136015_" class="st0" cx="20" cy="20" r="20"/>
<path d="M28.4,11.4l-11.5-0.8c0,0-0.1,0-0.1,0c-0.6,0-1.2,0.5-1.2,1.2l-1.1,15.5c0,0.7,0.5,1.3,1.2,1.3l11.5,0.8
	c0.3,0,0.7-0.1,0.9-0.3s0.4-0.5,0.4-0.9l1.1-15.5C29.6,12.1,29.1,11.5,28.4,11.4z"/>
<path d="M13,26.7l-0.3,0c-0.7,0-1.3-0.5-1.4-1.2l-0.6-11.4c0-0.7,0.5-1.3,1.2-1.4l2-0.1l0.1-0.9c0-0.2,0-0.3,0.1-0.5l-2.2,0.1
	c-1.5,0.1-2.6,1.4-2.6,2.8L10,25.6c0.1,1.4,1.3,2.6,2.7,2.6c0,0,0.1,0,0.1,0l0.3,0c-0.1-0.3-0.1-0.6-0.1-1L13,26.7z"/>
<polygon class="st1" points="26,19.7 22.6,19.5 22.8,16.1 21.6,16 21.4,19.4 18,19.2 18,20.4 21.3,20.6 21.1,24 22.3,24 22.5,20.7
	25.9,20.9 "/>
</svg>
