<svg id="Calque_3" data-name="Calque 3" xmlns="http://www.w3.org/2000/svg" viewBox="0 0 100 100"><path class="svg-primary" d="M46.7,86a7.1,7.1,0,0,1-4.42-1.55l-.4-.32A3.18,3.18,0,0,1,41,80.35L41.1,80a1.2,1.2,0,0,0-.24-1.32,9.92,9.92,0,0,1-1.81-2.5l-3-5.86a2.24,2.24,0,0,1,.25-2.42l0,0a1.56,1.56,0,0,0,.36-1,.93.93,0,0,0-.36-.74L34.52,64.7a32.08,32.08,0,0,0-5.24-3.38l-1.22-.63a19.49,19.49,0,0,1-4.63-3.32l-.29-.27a8.3,8.3,0,0,1-2.41-4.41l0-.14A5,5,0,0,1,22.11,48a14.15,14.15,0,0,0,2.5-3.3l.43-.79a1.24,1.24,0,0,0-.2-1.48,2.48,2.48,0,0,1,.07-3.49l1.44-1.4c.56-.54,1.1-1.1,1.62-1.67A.23.23,0,0,0,28,35.7a.29.29,0,0,0-.08-.14l-1.16-.92a1.34,1.34,0,0,0-1.6,0,2.71,2.71,0,0,1-3.66-.42l-1.39-1.6a4.53,4.53,0,0,1,.28-6.2l0-.05a2.4,2.4,0,0,0,.7-1.73,2.44,2.44,0,0,0-.74-1.72l-1-.93A4.19,4.19,0,0,1,19.53,16L21,14.61a2.21,2.21,0,0,1,3.14.09,2.87,2.87,0,0,1,.53,3.16A1.07,1.07,0,0,0,24.85,19l.12.12a1.39,1.39,0,0,0,1.47.37l1.2-.41a3.62,3.62,0,0,1,2.76.18,7.78,7.78,0,0,1,2,1.48L45,33.53a3.34,3.34,0,0,1,1,2.37,1.27,1.27,0,0,0,.46,1l.88.72a1.49,1.49,0,0,0,2-.1L58.77,28a2.46,2.46,0,0,1,3.46.12,3.16,3.16,0,0,1,.46,3.65l-1.35,2.46a1.1,1.1,0,0,0,.09,1.17.44.44,0,0,0,.59.09l4.7-3.26a2.73,2.73,0,0,1,3.27.12,2.18,2.18,0,0,1,.22.21,2.09,2.09,0,0,1-.12,3l-2.92,2.68a2.62,2.62,0,0,0,1,4.42,8.11,8.11,0,0,0,2.36.47c1,0,2.5-.91,3.7-1.64,1.65-1,3.08-1.87,4-.94a2.65,2.65,0,0,1,.61,1.42,5.7,5.7,0,0,0,.57,1.6,4.08,4.08,0,0,0,.51.68,4.38,4.38,0,0,1,.54,4.94L80,50a1.2,1.2,0,0,0,.23,1.42l.51.49a3.26,3.26,0,0,1,1,2,2.54,2.54,0,0,1-.92,2.16l-1,.79a3.14,3.14,0,0,1-4.28-.31l-1-1.13a2.37,2.37,0,0,1-.57-2.13,1,1,0,0,0-.13-.75l-.59-1a.47.47,0,0,0-.09-.12.6.6,0,0,0-.84,0L68,55.81a.89.89,0,0,0,0,1.27A2.88,2.88,0,0,1,68.27,61l-.3.37a1.43,1.43,0,0,0,.21,2L71,65.62c.17.13.32.27.47.41a6.25,6.25,0,0,1,0,8.82l-7.69,7.69a3,3,0,0,1-4.21.08,1.24,1.24,0,0,0-1.72,0l-1.16,1.17a2.69,2.69,0,0,1-3.59.2,1.11,1.11,0,0,0-1.4,0l-.55.43A7.19,7.19,0,0,1,46.7,86Zm-9-17,0,0a.44.44,0,0,0-.05.49l3,5.87a8.4,8.4,0,0,0,1.49,2.06,3,3,0,0,1,.6,3.3l-.14.32a1.39,1.39,0,0,0,.4,1.65l.41.33a5.32,5.32,0,0,0,3.3,1.15A5.39,5.39,0,0,0,50,83.06l.55-.44a2.9,2.9,0,0,1,3.63,0,.9.9,0,0,0,1.2-.07l1.16-1.17a3,3,0,0,1,4.2-.09,1.26,1.26,0,0,0,1.74,0l7.68-7.68a4.44,4.44,0,0,0,0-6.29,2.35,2.35,0,0,0-.33-.3l-2.79-2.28a3.23,3.23,0,0,1-.48-4.5l.3-.38a1.08,1.08,0,0,0-.09-1.47A2.66,2.66,0,0,1,66,56.49a2.72,2.72,0,0,1,.75-1.91l.07-.06L71,50.2a2.35,2.35,0,0,1,1.68-.7h0a2.38,2.38,0,0,1,1.67.69,2.28,2.28,0,0,1,.36.46l.59,1a2.8,2.8,0,0,1,.34,2.08.59.59,0,0,0,.14.52l1,1.13a1.35,1.35,0,0,0,1.84.13l1-.78a.73.73,0,0,0,.26-.63,1.35,1.35,0,0,0-.41-.88l-.52-.5a3,3,0,0,1-.55-3.54l.46-.86a2.59,2.59,0,0,0-.33-2.93,6,6,0,0,1-1.45-3l-.1-.39a13.15,13.15,0,0,0-1.9,1c-1.47.89-3.13,1.9-4.63,1.9a9.69,9.69,0,0,1-2.91-.55,4.42,4.42,0,0,1-2.84-5.56A4.62,4.62,0,0,1,66,36.85l2.92-2.68A.34.34,0,0,0,69,34a.33.33,0,0,0-.08-.22,1,1,0,0,0-1.16-.07L63,36.94a2.21,2.21,0,0,1-3-.49,2.86,2.86,0,0,1-.24-3.09l1.35-2.47a1.35,1.35,0,0,0-.2-1.57.68.68,0,0,0-.46-.21.6.6,0,0,0-.48.18l-9.4,9.47a3.27,3.27,0,0,1-4.4.23l-.88-.73a3,3,0,0,1-1.12-2.36,1.57,1.57,0,0,0-.46-1.12L31.16,22a6,6,0,0,0-1.56-1.13,1.83,1.83,0,0,0-1.38-.09l-1.2.41a3.17,3.17,0,0,1-3.36-.84l-.11-.12A2.83,2.83,0,0,1,23,17.12,1.07,1.07,0,0,0,22.85,16a.44.44,0,0,0-.32-.16.36.36,0,0,0-.3.11l-.64-.63.63.64-1.44,1.41a2.4,2.4,0,0,0,0,3.39l.93.9a4.24,4.24,0,0,1,.07,6l-.08.08a2.74,2.74,0,0,0-.16,3.75L22.88,33a.94.94,0,0,0,1.26.14,3.12,3.12,0,0,1,3.77.08l1.15.91A2,2,0,0,1,29.38,37l-.1.12c-.54.58-1.11,1.17-1.69,1.73l-1.44,1.4a.69.69,0,0,0,0,1,3,3,0,0,1,.48,3.57l-.44.8a15.91,15.91,0,0,1-2.81,3.72,3.22,3.22,0,0,0-.91,2.93l0,.13a6.52,6.52,0,0,0,1.9,3.47l.28.28a18.44,18.44,0,0,0,4.22,3l1.22.63a34,34,0,0,1,5.54,3.58l1.82,1.45a2.71,2.71,0,0,1,1,2.14A3.35,3.35,0,0,1,37.75,69Z"/></svg>
