<?xml version="1.0" encoding="UTF-8"?><svg id="Calque_2" xmlns="http://www.w3.org/2000/svg" viewBox="0 0 91.87 83.46"><defs><style>.cls-1,.cls-2{stroke-linecap:round;stroke-linejoin:round;}.cls-1,.cls-2,.cls-3{fill:none;}.cls-1,.cls-4,.cls-3{stroke:#004680;stroke-width:2.8px;}.cls-2{stroke:#ff8d6d;stroke-width:2px;}.cls-4{fill:#fff;}</style></defs><g id="Calque_1-2"><polygon class="cls-1" points="51.53 1.4 85.97 20.47 37.21 55.91 2.37 37.13 51.53 1.4"/><path class="cls-1" d="m2.37,37.13c-2.63,2.96.47,9,4.61,11.69l31.04,16.35,48.76-35.44"/><path class="cls-1" d="m86.58,29.55c-1.45-1.77-2.07-4.98-1.95-7.09"/><polyline class="cls-1" points="86.98 30.11 38.22 65.55 3.39 46.78"/><path class="cls-1" d="m3.39,46.78c-2.63,2.96.47,9,4.61,11.69l31.04,16.35,48.76-35.44"/><path class="cls-1" d="m87.59,39.19c-1.45-1.77-2.07-4.98-1.95-7.09"/><line class="cls-2" x1="52.14" y1="11.04" x2="70.86" y2="21.41"/><line class="cls-2" x1="46.1" y1="15.73" x2="64.82" y2="26.1"/><circle id="Oval-Copy-14" class="cls-4" cx="66.65" cy="58.24" r="23.82"/><line class="cls-2" x1="56.43" y1="36.72" x2="76.87" y2="79.75"/><line class="cls-2" x1="45.13" y1="68.46" x2="88.17" y2="48.02"/><path class="cls-2" d="m45.59,47.11l.23.21c9.72,8.7,15.54,20.94,16.14,33.97v.31"/><path class="cls-2" d="m71.7,34.7v.31c.61,13.03,6.43,25.28,16.15,33.97l.23.21"/><circle id="Oval-Copy-14-2" class="cls-3" cx="66.65" cy="58.24" r="23.82"/></g></svg>