<?xml version="1.0" encoding="UTF-8"?><svg id="Calque_2" xmlns="http://www.w3.org/2000/svg" viewBox="0 0 103.54 64.3"><defs><style>.cls-1{stroke:#13487f;stroke-width:2.8px;}.cls-1,.cls-2,.cls-3{fill:none;stroke-linejoin:round;}.cls-2{stroke-linecap:round;}.cls-2,.cls-3{stroke:#f68c6f;stroke-width:2px;}.cls-4{fill:#13487f;}.cls-4,.cls-5{stroke-width:0px;}.cls-5{fill:#f68c70;}</style></defs><g id="Calque_1-2"><polygon class="cls-1" points="102.14 21.77 51.77 42.14 1.4 21.77 51.77 1.4 102.14 21.77"/><polyline class="cls-1" points="83.06 46.57 83.91 47.32 51.77 60.32 19.63 47.32 20.73 46.88"/><line class="cls-1" x1="19.63" y1="47.32" x2="19.63" y2="29.14"/><line class="cls-1" x1="83.91" y1="47.32" x2="83.91" y2="29.54"/><line class="cls-1" x1="51.77" y1="60.32" x2="51.77" y2="42.14"/><line class="cls-2" x1="51.77" y1="21.77" x2="26.59" y2="31.96"/><path class="cls-5" d="m27.8,58.71c-.36.17-.75.28-1.18.28s-.82-.11-1.18-.28l-2.55,5.6h7.45l-2.55-5.6Z"/><line class="cls-3" x1="26.62" y1="53.85" x2="26.62" y2="32.15"/><path class="cls-5" d="m27.62,54.41v-1.92h-2v1.89c.29-.17.62-.28.98-.28.38,0,.73.11,1.02.3Z"/><path class="cls-4" d="m27.6,55.01c-.29-.18-.62-.29-.99-.29-.34,0-.66.1-.94.27-.54.32-.9.9-.9,1.58,0,1.02.82,1.84,1.84,1.84s1.84-.82,1.84-1.84c0-.65-.34-1.22-.86-1.55Z"/></g></svg>