<svg id="Calque_3" data-name="Calque 3" xmlns="http://www.w3.org/2000/svg" viewBox="0 0 100 100"><path class="svg-no-fill" d="M38.08,66h.2c.31,0,.72.05,1.18.05,1.67,0,4.12-.29,5.62-1.79,1.93-1.93,1.86-5.4,1.75-6.8l0-.2-.2,0c-1.4-.12-4.87-.18-6.8,1.75s-1.87,5.4-1.75,6.8Z"/><path class="svg-no-fill" d="M40.87,21.71c0-2.73-2.5-5.14-3.57-6l-.15-.13-.16.13c-1.07.91-3.57,3.32-3.57,6s2.5,5.13,3.57,6l.15.13.16-.13C38.37,26.84,40.87,24.43,40.87,21.71Z"/><path class="svg-no-fill" d="M27.66,33l-.2,0,0,.2c-.11,1.4-.17,4.88,1.75,6.8,1.51,1.5,3.94,1.79,5.6,1.79.48,0,.89,0,1.2,0h.2l0-.2c.11-1.41.17-4.88-1.75-6.8S29.06,32.89,27.66,33Z"/><path class="svg-no-fill" d="M38.08,52.22h.2c.31,0,.71.05,1.18.05,1.66,0,4.11-.29,5.62-1.8,1.93-1.93,1.86-5.39,1.75-6.79l0-.2-.2,0c-1.4-.12-4.87-.19-6.8,1.75S38,50.61,38.06,52Z"/><path class="svg-no-fill" d="M38.08,38.48l.2,0c.31,0,.72,0,1.19,0,1.66,0,4.11-.29,5.61-1.8C47,34.82,46.94,31.36,46.83,30l0-.21h-.2c-1.4-.12-4.87-.18-6.8,1.74s-1.87,5.4-1.75,6.8Z"/><path class="svg-primary" d="M87,84.82h0c-.23-.2-5.94-5-23.19-6.75l-.22,0V67.29l.26,0q.69.06,1.38.06c2,0,4.76-.38,6.58-2.19,3-3,2.08-8.45,2-8.68a.67.67,0,0,0-.55-.56c-.23,0-5.74-.89-8.68,2.05a4.93,4.93,0,0,0-.59.71l-.44.59V53.55l.26,0q.69.06,1.38.06c2,0,4.76-.38,6.58-2.2,3-3,2.08-8.44,2-8.67a.67.67,0,0,0-.55-.56c-.24,0-5.73-.91-8.68,2A5,5,0,0,0,64,45l-.44.59V39.82l.26,0q.69.06,1.38.06c2,0,4.76-.38,6.58-2.2,3-3,2.08-8.44,2-8.67a.66.66,0,0,0-.55-.56c-.24,0-5.71-.92-8.68,2a5.55,5.55,0,0,0-.59.71l-.44.59V29.08l0,0-.7.31-.71-.32,0,0v6.06l-.44-.6a6.34,6.34,0,0,0-.61-.74c-3-3-8.45-2.09-8.68-2a.69.69,0,0,0-.56.56C51.87,32.54,51,38,54,41c1.82,1.81,4.58,2.19,6.58,2.19.47,0,.94,0,1.39-.06l.27,0v5.78l-.44-.6a6.18,6.18,0,0,0-.61-.74c-3-3-8.45-2.08-8.68-2.05a.7.7,0,0,0-.56.56c0,.23-.91,5.72,2.05,8.68,1.81,1.81,4.58,2.19,6.58,2.19.47,0,.94,0,1.39-.06l.27,0V77.92l-.26,0c-3.75-.33-7.8-.49-12-.49s-8.15.16-11.84.47l-.26,0V67.29l.26,0q.69.06,1.38.06c2,0,4.76-.38,6.58-2.19,3-3,2.08-8.45,2.05-8.68a.69.69,0,0,0-.56-.56c-.23,0-5.74-.89-8.68,2.05a6.72,6.72,0,0,0-.59.71l-.44.59V53.55l.26,0q.69.06,1.38.06c2,0,4.76-.38,6.58-2.2,3-3,2.08-8.44,2.05-8.67a.69.69,0,0,0-.56-.56c-.23,0-5.72-.91-8.68,2a5.83,5.83,0,0,0-.59.71l-.44.58V39.82l.26,0q.69.06,1.38.06c2,0,4.76-.38,6.58-2.2,3-3,2.08-8.44,2.05-8.67a.68.68,0,0,0-.56-.56c-.23,0-5.71-.93-8.68,2a7.92,7.92,0,0,0-.59.71l-.44.59V29.08l.09-.08c1-.81,4.32-3.73,4.32-7.29,0-4.19-4.5-7.45-4.69-7.58a.68.68,0,0,0-.79,0c-.19.13-4.69,3.4-4.69,7.58,0,3.56,3.31,6.48,4.32,7.29l.09.08v6.06l-.44-.6a5.47,5.47,0,0,0-.61-.74c-3-3-8.45-2.09-8.68-2a.69.69,0,0,0-.56.56c0,.23-.91,5.72,2.05,8.68,1.82,1.81,4.58,2.19,6.58,2.19.47,0,.94,0,1.4-.06l.26,0v5.78l0,0v8h0V78l-.22,0c-17.32,1.77-23,6.57-23.22,6.78a.67.67,0,0,0,.88,1c.09-.08,2.17-1.82,7.62-3.56,5-1.61,14-3.53,28.39-3.53,27.42,0,36.08,7,36.16,7.09a.69.69,0,0,0,1-.07.64.64,0,0,0,.16-.49A.64.64,0,0,0,87,84.82ZM65.54,59c1.93-1.93,5.4-1.86,6.8-1.75l.2,0,0,.2c.11,1.4.18,4.87-1.75,6.8-1.51,1.5-4,1.79-5.62,1.79-.47,0-.87,0-1.18-.05h-.2l0-.2C63.67,64.35,63.61,60.88,65.54,59Zm0-13.73c1.93-1.94,5.4-1.87,6.8-1.75l.2,0,0,.2c.11,1.4.18,4.86-1.75,6.79-1.51,1.51-4,1.8-5.62,1.8-.47,0-.87,0-1.18-.05h-.2l0-.21C63.68,50.61,63.62,47.14,65.54,45.22Zm0-13.74c1.92-1.92,5.39-1.86,6.8-1.74h.2l0,.21c.11,1.4.18,4.86-1.75,6.79-1.51,1.51-4,1.8-5.62,1.8-.46,0-.87,0-1.18,0l-.2,0,0-.2C63.67,36.88,63.61,33.42,65.54,31.48ZM61.93,41.56v.2h-.2c-.31,0-.73,0-1.2,0-1.66,0-4.09-.29-5.6-1.79-1.92-1.93-1.86-5.4-1.75-6.8l0-.2.2,0c1.4-.12,4.87-.18,6.8,1.75S62.05,40.15,61.93,41.56Zm0,13.73v.2l-.2,0c-.31,0-.72.05-1.2.05-1.66,0-4.09-.3-5.6-1.8C53,51.84,53.06,48.37,53.17,47l0-.2.2,0c1.4-.11,4.87-.18,6.8,1.75S62.05,53.89,61.93,55.29ZM39.81,59c1.93-1.93,5.4-1.87,6.8-1.75l.2,0,0,.2c.11,1.4.18,4.87-1.75,6.8-1.5,1.5-3.95,1.79-5.62,1.79-.46,0-.87,0-1.18-.05h-.2l0-.2C37.94,64.35,37.88,60.88,39.81,59Zm0-13.73c1.93-1.94,5.4-1.87,6.8-1.75l.2,0,0,.2c.11,1.4.18,4.86-1.75,6.79-1.51,1.51-4,1.8-5.62,1.8-.47,0-.87,0-1.18-.05h-.2l0-.21C38,50.61,37.89,47.14,39.81,45.22Zm0-13.74c1.93-1.92,5.4-1.86,6.8-1.74h.2l0,.21c.11,1.4.18,4.86-1.75,6.79-1.5,1.51-3.95,1.8-5.61,1.8-.47,0-.88,0-1.19,0l-.2,0,0-.2C37.94,36.88,37.88,33.41,39.81,31.48Zm-3.6,10.08,0,.2H36c-.31,0-.72,0-1.2,0-1.66,0-4.09-.29-5.6-1.79-1.92-1.92-1.86-5.4-1.75-6.8l0-.2.2,0c1.4-.12,4.87-.18,6.8,1.75S36.32,40.15,36.21,41.56Zm.93-13.68L37,27.75c-1.07-.91-3.57-3.31-3.57-6s2.5-5.13,3.57-6l.16-.13.15.13c1.07.9,3.57,3.31,3.57,6s-2.5,5.13-3.57,6Z"/><path class="svg-accent" d="M63.58,29.06l.06-.06c1-.81,4.32-3.73,4.32-7.29,0-4.19-4.5-7.45-4.69-7.58a.68.68,0,0,0-.79,0c-.19.13-4.69,3.39-4.69,7.58,0,3.56,3.3,6.48,4.32,7.29l.06.05.71.32Zm-.86-1.31c-1.07-.91-3.57-3.31-3.57-6s2.5-5.13,3.57-6l.15-.13.16.13c1.07.9,3.57,3.31,3.57,6s-2.5,5.13-3.57,6l-.16.13Z"/><path class="svg-accent" d="M36,48.27a6.18,6.18,0,0,0-.61-.74c-3-3-8.45-2.08-8.68-2.05a.7.7,0,0,0-.56.56c0,.23-.91,5.72,2.05,8.68,1.82,1.81,4.58,2.19,6.58,2.19.47,0,.94,0,1.4-.06l.24,0v-8Zm.18,7,0,.2-.2,0c-.31,0-.72.05-1.19.05-1.67,0-4.1-.3-5.61-1.8-1.92-1.92-1.86-5.39-1.75-6.8l0-.2.2,0c1.4-.11,4.87-.18,6.8,1.75S36.32,53.89,36.21,55.29Z"/></svg>
