<svg id="Calque_3" data-name="Calque 3" xmlns="http://www.w3.org/2000/svg" viewBox="0 0 100 100"><rect class="svg-primary" x="69.56" y="50" transform="translate(-10.18 81.31) rotate(-57.14)"/><path class="svg-primary" d="M50.6,73.38h0l-.28,0Z"/><path class="svg-primary" d="M59,16.34,58.26,16l.18-.82a1.19,1.19,0,0,0-.13-.7,1.08,1.08,0,0,0-.57-.45,1,1,0,0,0-1.21.54l-.4.68L55.38,15c-.82-.23-1.58-.42-2.32-.57a1.09,1.09,0,0,0-1.33.67,1.32,1.32,0,0,0,.17.95.72.72,0,0,0,.48.35c.59.12,1.23.28,2,.48l1.09.3-1.68,4.27-.87-.23a24.39,24.39,0,0,0-7.33-.81h-.16a22.07,22.07,0,0,0-5.46.86c-.46.13-1,.29-1.53.49l-.32.12c-.4.14-.82.31-1.25.49l-.39.17c-.49.22-.95.44-1.38.67l-.37.2-.21.12-.73.43c-.26.15-.52.31-.77.48l-.21.14-.18.13c-.61.41-1.19.84-1.73,1.28l-.06,0c-.32.26-.6.51-.88.76l-.38.35-.67.64c-.33.34-.66.7-1,1.1l-.14.17a24.18,24.18,0,0,0-3.36,5.06A24.72,24.72,0,0,0,35.83,67.5l.78.34.92.4-1.79,4.27-1-.44-.5-.23q-.67-.32-1.32-.66a1.29,1.29,0,0,0-1-.12.86.86,0,0,0-.52.41,1.17,1.17,0,0,0-.12.89.82.82,0,0,0,.4.52c.71.38,1.46.74,2.31,1.11l.78.34-.21.83a1.26,1.26,0,0,0,.13.68,1.18,1.18,0,0,0,.58.47,1.13,1.13,0,0,0,.81-.08,1.09,1.09,0,0,0,.39-.43l.4-.71.77.24a32.36,32.36,0,0,0,6.85,1.25l.93.07v7.28H34.39a1.1,1.1,0,0,0-.77.35.89.89,0,0,0-.27.64,1.09,1.09,0,0,0,1,1.08H58.7a1.1,1.1,0,0,0,.77-.35.93.93,0,0,0,.27-.64,1.09,1.09,0,0,0-1-1.08H47.58V76.67l1,0a31.12,31.12,0,0,0,6-.92A31.41,31.41,0,0,0,59,16.34ZM23.8,45.48v-.14c0-.07,0-.14,0-.21,0-.63,0-1.28.1-2a22.78,22.78,0,0,1,21.7-20.63c.74,0,1.44,0,2.32,0a23,23,0,0,1,14.46,6.25,22.58,22.58,0,0,1,6.93,14,21.35,21.35,0,0,1,.13,2.38c0,.1,0,.19,0,.28v.18A22.76,22.76,0,0,1,52.35,67.06a21.84,21.84,0,0,1-2.58.5,22.82,22.82,0,0,1-26-22.08Zm50-11.66c.07.2.15.39.23.57l0,0c.06.14.12.28.17.43a31.38,31.38,0,0,1,1.35,4.74c.08.38.15.75.21,1.14,0,.07,0,.16,0,.26h0l0,.1,0,.44c.11.87.17,1.67.2,2.44s0,1.76,0,2.63h0c0,.5,0,1-.1,1.49q0,.26-.06.54v.08c0,.12,0,.23,0,.33v.11s0,.09,0,.13a30.81,30.81,0,0,1-1.48,5.91c-.13.38-.28.77-.44,1.16v0l.07,0-.13.14-.26.58c-.33.73-.69,1.46-1.09,2.19A31.46,31.46,0,0,1,70,63.24l-.12.16c-.12.16-.22.28-.32.39-.24.3-.5.61-.78.91-.48.55-1,1.1-1.61,1.67s-1.1,1-1.72,1.56l-.64.51-.33.26h0c-.21.15-.36.27-.52.37a31.24,31.24,0,0,1-3.87,2.36c-.56.29-1.15.55-1.62.76l-.58.26-.29.11-.2.08c-.38.15-.75.28-1.13.4a31,31,0,0,1-4.41,1.15l-1,.17-.11,0-.76.09a30.51,30.51,0,0,1-3.1.17c-1.11,0-2.16,0-3.13-.14L43,74.41H42.9l-.29-.05c-.48-.07-1-.16-1.52-.27-.74-.15-1.5-.34-2.33-.58l-1.1-.31,1.81-4.3.84.22a25.13,25.13,0,0,0,11.44.27A24.72,24.72,0,0,0,71,49.18a27.81,27.81,0,0,0,.33-3.9v-.37a24.84,24.84,0,0,0-4.35-13.75,25.42,25.42,0,0,0-10.35-8.57l-.87-.4,1.7-4.33,1.77.79c.45.21.9.44,1.37.69.77.41,1.56.88,2.41,1.43.35.23.69.46,1,.7a1.54,1.54,0,0,1,.24.17l0,0,.15.11.21.16.15.1c.6.49,1.23,1,1.84,1.58a30.51,30.51,0,0,1,3.2,3.43h0l.11.14.46.61c.24.33.49.68.72,1,.44.66.86,1.35,1.28,2.09s.76,1.42,1.09,2.14Z"/><path class="svg-accent" d="M69.31,42.7v0l0,0-.06,0-.2-.14-.68-.5c-.33-.21-.65-.4-1-.56a4.86,4.86,0,0,0-3.68-.56,12.28,12.28,0,0,0-3.24,1.9h0c-1.77,1.28-3.6,2.6-5.57,2a24,24,0,0,1-3.65-1.58c-2.78-1.38-5.65-2.82-8.08-1.24a8.85,8.85,0,0,0-3.38,5.79,8.7,8.7,0,0,0,1.12,6.6c2.7,3.75,6.18,3.61,8.49,3.52,1.43-.06,2,0,2.07.27,1,2.76,1.27,3.76.57,5-.34.59-.79,1.42-1.35,2.45l-.51,1-.42.8-.08.13,0,0,0,.1.16,0a24,24,0,0,0,2.58-.51h0l0,0,0-.07a2.12,2.12,0,0,1,.11-.21l.4-.75c.21-.37.41-.74.6-1.09l.39-.7c1.27-2.21.56-4.14-.41-6.82-.68-1.86-2.56-1.79-4.25-1.72-2.15.08-4.59.17-6.59-2.61a6.56,6.56,0,0,1-.74-4.9,6.72,6.72,0,0,1,2.42-4.35c1.36-.89,3.56.2,5.89,1.36a24.74,24.74,0,0,0,4,1.73c3,.87,5.48-.92,7.49-2.37a11.29,11.29,0,0,1,2.62-1.58c.92-.29,2.26.49,3.22,1.2.27.2.56.42.86.68s.5.45.73.68l.1.1.06.06.09.08v-.2c0-.06,0-.12,0-.18v-.27C69.43,44.3,69.39,43.49,69.31,42.7Z"/><path class="svg-accent" d="M48.83,24.33h0c-.1-.28-.21-.57-.35-.88s-.2-.46-.3-.66a1.42,1.42,0,0,1-.08-.18l0-.05,0,0h0c-.48,0-.91,0-1.31,0l-1,0h-.14l0,.09,0,0,.08.13c.1.18.23.41.38.7s.27.54.39.84a8.4,8.4,0,0,1,.73,5.46c-.84,2.92-2.26,4.79-3.76,5a9.65,9.65,0,0,1-2.19-.89c-2.44-1.19-5.78-2.81-8.7-1.2a7.15,7.15,0,0,0-4,5.08A6.74,6.74,0,0,1,25.75,42c-.32.24-.62.45-.94.65s-.41.25-.66.39l-.19.1-.05,0,0,0v0c-.07.71-.1,1.37-.1,2,0,.06,0,.13,0,.2v.27l.09,0,0,0,.13-.06.71-.37c.3-.17.59-.33.86-.5,3.95-2.37,4.57-4.57,5.07-6.35a5,5,0,0,1,2.91-3.75c1.91-1,4.54.23,6.67,1.26,1.46.7,2.51,1.21,3.44,1.08,2.44-.35,4.48-2.74,5.59-6.57A9.72,9.72,0,0,0,48.83,24.33Z"/></svg>
