<svg id="Calque_3" data-name="Calque 3" xmlns="http://www.w3.org/2000/svg" viewBox="0 0 100 100"><path class="svg-primary" d="M83.66,64.88a3.26,3.26,0,0,0-.24-.4A5.14,5.14,0,0,0,77,62.63L62.33,69.2a4.23,4.23,0,0,0-4.2-3.79H47.37a1.52,1.52,0,0,1-.63-.14l-9.68-4.48a3.31,3.31,0,0,0-1.42-.32h-8.7v-.29a2.75,2.75,0,0,0-2.74-2.76H16.83a1,1,0,0,0,0,1.9H24.2a.85.85,0,0,1,.85.86V81a.86.86,0,0,1-.85.87H16.83a.95.95,0,0,0,0,1.89H24.2A2.75,2.75,0,0,0,26.94,81v-.5H32a1.61,1.61,0,0,1,.44.06l17.3,5.31a3.35,3.35,0,0,0,1,.15,3.41,3.41,0,0,0,1.55-.38L81.87,70.44A4.13,4.13,0,0,0,83.66,64.88ZM81,68.76,51.41,83.94a1.45,1.45,0,0,1-1.12.1L33,78.73a3.41,3.41,0,0,0-1-.15H26.94V62.37h8.7a1.56,1.56,0,0,1,.63.14L45.94,67a3.38,3.38,0,0,0,1.43.31H58.13a2.33,2.33,0,1,1,0,4.66H44.91a3.39,3.39,0,0,0-2.44,1l-1.74,1.81a1,1,0,0,0,0,1.34.91.91,0,0,0,.65.26.94.94,0,0,0,.69-.29l1.73-1.81a1.52,1.52,0,0,1,1.08-.46H58.13a4.23,4.23,0,0,0,3.81-2.41H62l15.8-7.08a3.26,3.26,0,0,1,4,1.17,1.79,1.79,0,0,1,.13.22A2.25,2.25,0,0,1,81,68.76Z"/><circle class="svg-no-fill" cx="80.02" cy="30.55" r="0.88"/><rect class="svg-accent" x="20.62" y="29.67" width="8.02" height="1.75"/><path class="svg-no-fill" d="M66,26.52h4.75a9.9,9.9,0,0,0-2.19-7,.85.85,0,0,1-.11-.14,9.14,9.14,0,0,0-7.27-3.63h0c-5,0-8.72,3.74-8.76,3.77a.85.85,0,0,1-.62.26h0a.87.87,0,0,1-.62-.26c-.16-.15-3.94-3.77-8.75-3.77a9.2,9.2,0,0,0-7.31,3.64l-.11.13v0a9.86,9.86,0,0,0-2.13,7.55c.42,5,4,13.3,18.83,24.24l.1.08.1-.08c7.88-5.82,13.34-11.44,16.31-16.74H66V31.43H61.21a.86.86,0,0,1-.76-.45l-3.28-5.74-5.6,14a.87.87,0,0,1-.81.55h0a.88.88,0,0,1-.8-.61L46.31,27.46,44.19,31a.88.88,0,0,1-.75.42H36.3V29.67H43l2.88-4.8a.87.87,0,0,1,1.58.2l3.45,11.21L56.21,22.9a.84.84,0,0,1,.38-.43.88.88,0,0,1,.67-.09.92.92,0,0,1,.53.42l3.87,6.79.05.08H66Z"/><circle class="svg-no-fill" cx="80.02" cy="30.55" r="1.22"/><path class="svg-accent" d="M82.82,29.56a3,3,0,0,0-5.59,0l0,.11H61.71l-.05-.08L57.79,22.8a.92.92,0,0,0-.53-.42.88.88,0,0,0-.67.09.84.84,0,0,0-.38.43L50.86,36.28,47.41,25.07a.86.86,0,0,0-.43-.52.88.88,0,0,0-1.15.32L43,29.67H36.3v1.75h7.14a.88.88,0,0,0,.75-.42l2.12-3.54,3.61,11.71a.88.88,0,0,0,.8.61h0a.87.87,0,0,0,.81-.55l5.6-14L60.45,31a.86.86,0,0,0,.76.45h16l0,.12a3,3,0,0,0,5.59-2ZM80,31.76a1.22,1.22,0,1,1,1.21-1.21A1.22,1.22,0,0,1,80,31.76Z"/><path class="svg-primary" d="M69.9,18.35A11,11,0,0,0,61.19,14h0a15.22,15.22,0,0,0-9.27,3.63l-.11.1-.11-.1A15.2,15.2,0,0,0,42.42,14h0a10.93,10.93,0,0,0-8.7,4.35,11.76,11.76,0,0,0-2.59,8.79c.62,8,7.41,16.76,20.17,26.06a.89.89,0,0,0,1,0c8.87-6.47,14.87-12.72,17.9-18.61a24,24,0,0,0,1.32-3.05l0-.11H69.71l-.09.23a25.15,25.15,0,0,1-1.41,2.93c-3,5.3-8.43,10.92-16.31,16.74l-.1.08-.1-.08C36.9,40.39,33.29,32.11,32.87,27.09A9.86,9.86,0,0,1,35,19.54v0l.11-.13a9.2,9.2,0,0,1,7.31-3.64c4.81,0,8.59,3.62,8.75,3.77a.87.87,0,0,0,.62.26h0a.85.85,0,0,0,.62-.26s3.78-3.77,8.76-3.77h0a9.14,9.14,0,0,1,7.27,3.63.85.85,0,0,0,.11.14,9.9,9.9,0,0,1,2.19,7c0,.16,0,.33,0,.5a15.74,15.74,0,0,1-.43,2.53l0,.12h1.79l.05-.2a16.46,16.46,0,0,0,.36-2.32c0-.21,0-.42,0-.63A11.85,11.85,0,0,0,69.9,18.35Z"/></svg>
