<svg id="Calque_3" data-name="Calque 3" xmlns="http://www.w3.org/2000/svg" viewBox="0 0 100 100"><path class="svg-primary" d="M70.49,26.25c0-.66,0-1.31,0-1.95v-.19c0-.61,0-1.22,0-1.81a.87.87,0,0,0-.88-.87c-7.89,0-13.91-2.28-19-7.18A.88.88,0,0,0,50,14a.86.86,0,0,0-.61.25c-5,4.9-11.06,7.18-19,7.18a.87.87,0,0,0-.87.87c0,1.28,0,2.6-.06,4C29.26,38.83,28.93,56,49.71,63.21a.93.93,0,0,0,.57,0C71.07,56,70.74,38.82,70.49,26.26ZM50.35,61.33h0l-.35.13-.34-.13C30.72,54.44,31,39.49,31.26,26.3V23.19l1-.05c6.85-.3,12.44-2.42,17.07-6.46l.66-.57.67.57c4.73,4.1,10.16,6.15,17.07,6.46l1,.05v3.13C69,38.83,69.37,54.39,50.35,61.33Z"/><path class="svg-primary" d="M83.39,39.87A4.63,4.63,0,0,0,80,38.78a4.65,4.65,0,0,0-4.26,4.61v12.4l-1.33-.44a4.56,4.56,0,0,0-4.67,1.12l-13.6,13.6a9.16,9.16,0,0,0-2.68,6.48v8.57a.88.88,0,1,0,1.75,0V76.54A7.38,7.38,0,0,1,57.4,71.3L71,57.7a3,3,0,0,1,2-.81,2.87,2.87,0,0,1,2,.88,2.83,2.83,0,0,1,0,3.95L67.15,69.6a.88.88,0,0,0,0,1.24.87.87,0,0,0,.62.26.84.84,0,0,0,.62-.26L76.27,63a4.61,4.61,0,0,0,1.24-4.25l0-.16,0-.16a.43.43,0,0,0,0-.16V43.4a2.84,2.84,0,0,1,2.41-2.84,3.73,3.73,0,0,1,.46,0,2.82,2.82,0,0,1,1.68.55A2.88,2.88,0,0,1,83.2,43a3.4,3.4,0,0,1,0,.45V64a8.78,8.78,0,0,1-2.56,6.21L69.76,81.14a.88.88,0,0,0-.27.61v3.37a.88.88,0,0,0,1.76,0v-3L81.94,71.44A10.59,10.59,0,0,0,85,64V43.4A4.61,4.61,0,0,0,83.39,39.87Z"/><path class="svg-primary" d="M30.25,56.47a4.57,4.57,0,0,0-3.76-1.31,4.2,4.2,0,0,0-.92.2l-1.33.44V43.4A4.63,4.63,0,1,0,15,43a1.93,1.93,0,0,0,0,.34V64a10.5,10.5,0,0,0,3.08,7.44L28.76,82.12v3a.88.88,0,1,0,1.75,0V81.73a.88.88,0,0,0-.26-.63L19.31,70.2A8.78,8.78,0,0,1,16.75,64V43.4a2.87,2.87,0,0,1,2.88-2.87,1.82,1.82,0,0,1,.45,0A2.86,2.86,0,0,1,22.5,43.4v15l0,.16,0,.15A4.62,4.62,0,0,0,23.71,63l7.9,7.88a.89.89,0,0,0,.62.25.88.88,0,0,0,.63-.26.9.9,0,0,0,0-1.26L25,61.75A2.83,2.83,0,0,1,26.38,57,3.27,3.27,0,0,1,27,56.9a2.87,2.87,0,0,1,1.53.45,3.14,3.14,0,0,1,.48.39l13.6,13.6a7.45,7.45,0,0,1,2.17,5.25v8.53a.88.88,0,1,0,1.75,0V76.54a9.18,9.18,0,0,0-2.69-6.48Z"/><path class="svg-accent" d="M50.47,23.68a.84.84,0,0,0-.93,0,35.62,35.62,0,0,1-11.81,4.66.89.89,0,0,0-.7.85c0,11.46.93,20.65,12.61,26a.85.85,0,0,0,.73,0C62.06,49.86,63,40.28,63,29.22a.89.89,0,0,0-.7-.88A35.62,35.62,0,0,1,50.47,23.68ZM49.14,53.09l-1.54-1c-7.23-4.45-8.71-11.22-8.81-21.39V30.4l.43-.56.36-.11a38.56,38.56,0,0,0,8.11-2.95l1.46-.73ZM61.22,30.72c-.11,10.19-1.58,17-8.8,21.42l-1.53,1v-27l1.47.73a38,38,0,0,0,8.09,2.94l.78.19Z"/></svg>
