<svg id="Calque_3" data-name="Calque 3" xmlns="http://www.w3.org/2000/svg" viewBox="0 0 100 100"><path class="svg-primary" d="M50,59.07h0a1.12,1.12,0,0,1-.93-.49c-2.46-3.48-14.69-21.23-14.69-29a15.62,15.62,0,0,1,31.24,0c0,7.73-12.23,25.48-14.69,29A1.12,1.12,0,0,1,50,59.07Zm.55-1.53ZM50,15.81A13.83,13.83,0,0,0,36.19,29.62c0,6.76,10.94,23,13.81,27.14,2.87-4.14,13.81-20.38,13.81-27.14A13.83,13.83,0,0,0,50,15.81Z"/><path class="svg-primary" d="M50,37.56a8.3,8.3,0,1,1,8.29-8.29A8.3,8.3,0,0,1,50,37.56Zm0-14.78a6.49,6.49,0,1,0,6.48,6.49A6.49,6.49,0,0,0,50,22.78Z"/><path class="svg-primary" d="M84.46,83.42,77.6,51.78a2.14,2.14,0,0,0-2.08-1.68h-19l-1.14,1.81h6.84l1,18.38L35.08,63.35l5.81-11.44h3.7L43.45,50.1h-19a2.14,2.14,0,0,0-2.08,1.68L15.54,83.42A2.12,2.12,0,0,0,17.62,86H82.38a2.12,2.12,0,0,0,2.08-2.58ZM64.06,51.91H75.52a.32.32,0,0,1,.31.26L80.7,74.6,65.05,70.74Zm-13.86,17L43.4,84.19H24.5L34.24,65Zm-26-16.77a.32.32,0,0,1,.31-.26H38.86l-5.58,11L22.42,60.22Zm-6.8,31.9a.34.34,0,0,1-.06-.27L22,62l10.4,2.57-10,19.63H17.62A.35.35,0,0,1,17.37,84.07Zm65.26,0a.35.35,0,0,1-.25.12h-37L52,69.38l29.13,7.19,1.57,7.23A.34.34,0,0,1,82.63,84.07Z"/></svg>
