<svg id="Calque_3" data-name="Calque 3" xmlns="http://www.w3.org/2000/svg" viewBox="0 0 100 100"><rect class="svg-primary" x="59.56" y="49.07" width="12.68" height="1.85"/><rect class="svg-accent" x="27.76" y="49.07" width="12.68" height="1.85"/><rect class="svg-accent" x="27.76" y="44.39" width="12.68" height="1.85"/><path class="svg-primary" d="M65.9,30.39a8.2,8.2,0,1,0-8.19-8.2A8.2,8.2,0,0,0,65.9,30.39Zm0-14.54a6.34,6.34,0,1,1-6.34,6.34A6.35,6.35,0,0,1,65.9,15.85Z"/><path class="svg-primary" d="M87.79,22.31a.92.92,0,0,0-1,.83,18.69,18.69,0,0,1-3.3,9.59c-1.7,2.24-4.87,3.4-9.39,3.45a4,4,0,0,0-4-3.82H61.69a4,4,0,0,0-4,3.82H56.34c-4,0-4,5.31-4,7v13a.93.93,0,0,0,1.85,0v-13c0-2.23.23-5.19,2.14-5.19h1.37V64.42a4.22,4.22,0,0,0,2.57,3.94V83.18l-4,1A.93.93,0,0,0,56.47,86l.22,0,5.44-1.33v-16a2.24,2.24,0,0,0,1.2-.66c1.36-1.4,1.27-4.7,1.2-7.11,0-.38,0-.81,0-1.15h2.63c0,.29,0,.63,0,.94-.11,3-.1,5.89,1.22,7.27a2.38,2.38,0,0,0,1,.61V84.64L74.75,86a.91.91,0,0,0,1.12-.68.93.93,0,0,0-.67-1.12l-4-1V68.54c1.94-.35,2.93-1.72,2.93-4.12V38c5.14-.05,8.8-1.45,10.86-4.18a20.36,20.36,0,0,0,3.68-10.53A.94.94,0,0,0,87.79,22.31ZM72.24,64.42c0,1.79-.52,2.36-2.13,2.36a.55.55,0,0,1-.44-.18c-.88-.92-.77-4.17-.7-5.92s.08-2.14-.32-2.55l-.32-.31H63.75l-.45,0-.27.28c-.42.43-.4,1.06-.35,2.75s.14,4.93-.68,5.77a.37.37,0,0,1-.31.13,2.25,2.25,0,0,1-2.13-2.36V36.35a2.14,2.14,0,0,1,2.13-2.14h8.42a2.14,2.14,0,0,1,2.13,2.14V64.42Z"/><path class="svg-primary" d="M34.1,30.39a8.2,8.2,0,1,0-8.19-8.2A8.2,8.2,0,0,0,34.1,30.39Zm0-14.54a6.34,6.34,0,1,1-6.34,6.34A6.35,6.35,0,0,1,34.1,15.85Z"/><path class="svg-primary" d="M43.66,36.18H42.28a4,4,0,0,0-4-3.82h-.47l-.28.38c-2.46,3.35-3.37,3.44-3.46,3.44s-1-.09-3.46-3.44l-.28-.38h-.47a4,4,0,0,0-4,3.82c-4.52,0-7.69-1.21-9.39-3.45a18.69,18.69,0,0,1-3.3-9.59.92.92,0,0,0-1-.83.94.94,0,0,0-.84,1,20.36,20.36,0,0,0,3.68,10.53C17.11,36.58,20.77,38,25.91,38V64.42c0,2.4,1,3.77,2.93,4.12V83.18l-4,1a.93.93,0,0,0-.67,1.12.91.91,0,0,0,1.12.68l5.44-1.33V68.5a2.38,2.38,0,0,0,1-.61C33,66.51,33,63.66,32.88,60.62c0-.31,0-.66,0-.94h2.63c0,.34,0,.77,0,1.15-.07,2.41-.16,5.71,1.2,7.11a2.24,2.24,0,0,0,1.2.66v16L43.31,86l.22,0a.92.92,0,0,0,.9-.71.93.93,0,0,0-.68-1.12l-4-1V68.36a4.22,4.22,0,0,0,2.57-3.94V38h1.37c1.91,0,2.13,3,2.13,5.19v13a.93.93,0,0,0,1.86,0v-13a14.55,14.55,0,0,0-.42-3.95C46.45,36.59,44.66,36.18,43.66,36.18ZM40.44,64.42a2.25,2.25,0,0,1-2.13,2.36.37.37,0,0,1-.31-.13c-.82-.84-.73-4-.68-5.77s.07-2.32-.35-2.75l-.33-.31H32.06l-.43,0-.28.29c-.4.41-.38.95-.32,2.55s.18,5-.7,5.92a.55.55,0,0,1-.44.18c-1.61,0-2.13-.57-2.13-2.36V36.35a2.13,2.13,0,0,1,1.7-2.09c2,2.61,3.41,3.78,4.64,3.78s2.67-1.17,4.64-3.78a2.13,2.13,0,0,1,1.7,2.09V64.42Z"/><path class="svg-accent" d="M65.92,38a1.28,1.28,0,1,0,1.28,1.28A1.28,1.28,0,0,0,65.92,38Z"/><path class="svg-accent" d="M65.92,42.93a1.28,1.28,0,1,0,1.28,1.28A1.28,1.28,0,0,0,65.92,42.93Z"/></svg>
