<svg id="Calque_3" data-name="Calque 3" xmlns="http://www.w3.org/2000/svg" viewBox="0 0 100 100"><path class="svg-primary" d="M59.69,23.2H40.31a.94.94,0,1,1,0-1.86H59.69a.94.94,0,1,1,0,1.86Z"/><path class="svg-primary" d="M80.16,65.8H78.65V49a4.09,4.09,0,0,0-1.21-2.92l-1.27-1.27a2.36,2.36,0,0,1-.69-1.68V28.81A13.83,13.83,0,0,0,61.67,15H38.33A13.83,13.83,0,0,0,24.52,28.81V43.1a2.36,2.36,0,0,1-.69,1.68l-1.27,1.27A4.09,4.09,0,0,0,21.35,49V65.8H19.84a.87.87,0,0,0-.87.87V73a.87.87,0,0,0,.87.87H27.7v5.48a5.64,5.64,0,0,0,11.27,0V73.89H62.62v5.48a5.64,5.64,0,0,0,11.27,0V73.89h6.27A.87.87,0,0,0,81,73V66.67A.87.87,0,0,0,80.16,65.8ZM23.79,47.28,25.06,46a4.09,4.09,0,0,0,1.21-2.91V28.81A12.08,12.08,0,0,1,38.33,16.74H61.67A12.08,12.08,0,0,1,73.73,28.81V43.1A4.09,4.09,0,0,0,74.94,46l1.27,1.27a2.38,2.38,0,0,1,.7,1.69V65.8H23.09V49A2.38,2.38,0,0,1,23.79,47.28ZM37.22,79.37a3.89,3.89,0,0,1-7.78,0V73.89h7.78Zm34.93,0a3.9,3.9,0,0,1-7.79,0V73.89h7.79Zm7.14-7.22H20.71V67.54H79.29Z"/><path class="svg-primary" d="M30.16,46.9H69.84a.87.87,0,0,0,.87-.87V28.57a.87.87,0,0,0-.87-.87H30.16a.87.87,0,0,0-.87.87V46A.87.87,0,0,0,30.16,46.9ZM31,29.44H69V45.16H50.08V34.92a.87.87,0,0,0-1.74,0V45.16H31Z"/><path class="svg-primary" d="M40.49,61.43a1.11,1.11,0,0,1-1.11-1.11V52.38a1.12,1.12,0,0,1,2.23,0v7.94A1.12,1.12,0,0,1,40.49,61.43Z"/><path class="svg-primary" d="M45.26,61.43a1.11,1.11,0,0,1-1.11-1.11V52.38a1.11,1.11,0,0,1,2.22,0v7.94A1.11,1.11,0,0,1,45.26,61.43Z"/><path class="svg-primary" d="M50,61.43a1.11,1.11,0,0,1-1.11-1.11V52.38a1.11,1.11,0,0,1,2.22,0v7.94A1.11,1.11,0,0,1,50,61.43Z"/><path class="svg-primary" d="M54.78,61.43a1.11,1.11,0,0,1-1.11-1.11V52.38a1.11,1.11,0,1,1,2.22,0v7.94A1.11,1.11,0,0,1,54.78,61.43Z"/><path class="svg-primary" d="M59.54,61.43a1.11,1.11,0,0,1-1.11-1.11V52.38a1.11,1.11,0,0,1,2.22,0v7.94A1.11,1.11,0,0,1,59.54,61.43Z"/><path class="svg-accent" d="M32.2,61.64a5.15,5.15,0,1,1,5.15-5.15A5.16,5.16,0,0,1,32.2,61.64Zm0-8.49a3.34,3.34,0,1,0,3.34,3.34A3.35,3.35,0,0,0,32.2,53.15Z"/><path class="svg-accent" d="M67.78,61.64a5.15,5.15,0,1,1,5.15-5.15A5.16,5.16,0,0,1,67.78,61.64Zm0-8.49a3.34,3.34,0,1,0,3.34,3.34A3.35,3.35,0,0,0,67.78,53.15Z"/></svg>
