<svg id="Calque_3" data-name="Calque 3" xmlns="http://www.w3.org/2000/svg" viewBox="0 0 100 100"><path class="svg-primary" d="M53.93,62.09a5.35,5.35,0,1,0-5.34-5.35A5.36,5.36,0,0,0,53.93,62.09Zm0-9a3.69,3.69,0,1,1-3.69,3.69A3.7,3.7,0,0,1,53.93,53.05Z"/><path class="svg-primary" d="M31.35,60.59a5.35,5.35,0,1,0,5.34,5.34A5.35,5.35,0,0,0,31.35,60.59Zm0,9A3.69,3.69,0,1,1,35,65.93,3.7,3.7,0,0,1,31.35,69.62Z"/><path class="svg-primary" d="M80,15.2l-.07,0-.2-.12h-.11l0,0h-.36a36.93,36.93,0,0,0-8.89,3.5A49.48,49.48,0,0,0,53.78,32.84L53.7,33l-.13-.08a18.64,18.64,0,0,0-2.73-1.32l-.08,0,0-.08A10.51,10.51,0,0,0,46.21,25a10.66,10.66,0,0,0-6.89-1.67l-.19,0,0-.19a3.18,3.18,0,0,1,.52-1.5,3.31,3.31,0,0,1,2.09-1.43l.85-.18a.83.83,0,0,0-.35-1.62l-.84.18a5,5,0,0,0-3.13,2.15,4.91,4.91,0,0,0-.81,2.78v.13l-6.54,1.38-.05-.12A5.08,5.08,0,0,0,29,22.72,4.93,4.93,0,0,0,25.29,22l-.84.18a.83.83,0,0,0-.53.36.79.79,0,0,0-.11.62.77.77,0,0,0,.36.52.79.79,0,0,0,.62.12l.85-.18a3.31,3.31,0,0,1,2.49.46,3.21,3.21,0,0,1,1.08,1.15l.1.18-.19.06-.05,0-.07,0-.49.19-.08,0a10.57,10.57,0,0,0-2,1.07l-.08.06-.15.1a6.26,6.26,0,0,0-.57.45,3.73,3.73,0,0,0-.3.26l-.47.44-.38.4c-.11.13-.22.25-.32.38s-.32.41-.51.68l-.05.08-.07.09a13.14,13.14,0,0,0-1.9,8.48v.07l0,0a16.75,16.75,0,0,0-2.16,3.28l0,.15h-.06a16.86,16.86,0,0,0-1.38,11l3,14.3A16.86,16.86,0,0,0,31.57,79.43l.16.06,0,.08a11,11,0,0,0,2.1,2.06l.66.47a13.74,13.74,0,0,0,4.47,2.1c5.91,1.77,13,.6,21-3.48h0l.11-.07c.43-.19.88-.41,1.34-.64l.22-.11A28.74,28.74,0,0,0,64.76,78l0,0,.13-.09a38.64,38.64,0,0,0,16.9-28.16A113.85,113.85,0,0,0,82,27.86h0v-.09a108.31,108.31,0,0,0-1.79-12.13v0h0v-.16h0l-.16-.2ZM55.16,33.7A47.61,47.61,0,0,1,71,20h0a46.32,46.32,0,0,1,4.58-2.11l.62-.24-.44.5c-3.25,3.71-6.57,9.34-9.87,16.74l-.21.47-.1-.5c-.37-1.93-1.1-4.4-2.52-5.22A.83.83,0,0,0,62.21,31c1.25.73,2,4.89,2.14,7.33v0l0,0c-.69,1.69-1.39,3.49-2.1,5.34l-.17.46-.14-.48a18.17,18.17,0,0,0-4.17-7.51,18.35,18.35,0,0,0-2.56-2.31l-.13-.1Zm-1.73,1A17.58,17.58,0,0,1,56.24,37l0,.06v.07A6.1,6.1,0,1,1,46,32.1l0-.05h.08a16.34,16.34,0,0,1,7.34,2.65ZM23.21,36.32A11.43,11.43,0,0,1,24,32.51l0-.06c.12-.32.27-.62.39-.88s.14-.26.22-.39.13-.22.2-.33a9.11,9.11,0,0,1,3-3l.09-.05c.26-.15.49-.27.7-.37l.05,0A9.85,9.85,0,0,1,29.91,27L30,27l.32-.08a4.87,4.87,0,0,1,.59-.13l.11,0,7.56-1.59a9,9,0,0,1,10.2,5.5l.11.29-.3-.07a19.51,19.51,0,0,0-2.72-.45.4.4,0,0,1-.13,0,18.52,18.52,0,0,0-5.24.35l-9.49,2a16.85,16.85,0,0,0-7.53,3.72l-.28.24Zm-2.77,20.3-.89-4.24a14.93,14.93,0,0,1,1-9.34l.05-.11h.12a6.89,6.89,0,0,1-.12,13.67ZM32.39,78h0a15.17,15.17,0,0,1-9.83-11.25l-1.79-8.47.18,0a8.59,8.59,0,0,0,7.35-8.47,8.48,8.48,0,0,0-6.69-8.34l-.22,0,.12-.19a16.34,16.34,0,0,1,2-2.55,15.42,15.42,0,0,1,7.84-4.3l9.48-2A18.39,18.39,0,0,1,43.58,32h.31l-.17.26A7.76,7.76,0,1,0,57.55,39l.1-.29.19.25a16.71,16.71,0,0,1,2.73,6.23L63,56.76A16.61,16.61,0,0,1,51,76.31l-.13,0-.06-.13-10-24.6a.84.84,0,0,0-.93-.5.85.85,0,0,0-.66.84L40,78.64l-.14,0a15,15,0,0,1-2.32.18A15.44,15.44,0,0,1,32.39,78ZM50.6,81.79a11.52,11.52,0,0,1-4,1.33c-.37,0-.72.08-1.07.11-.61,0-1.18.08-1.73.08-5.74,0-8.41-2.55-8.53-2.66l-.34-.34.47.06a18.77,18.77,0,0,0,2.11.14,17.63,17.63,0,0,0,3.5-.36.85.85,0,0,0,.66-.84v-.1L41,56.53l8.56,21.12a.84.84,0,0,0,.77.52h.13l0,0a18.47,18.47,0,0,0,5.2-2l.45-.25-.22.46A13.81,13.81,0,0,1,50.6,81.79ZM80.55,31.1c.12,2.8.24,6.55.11,10.81h0c-.09,2.55-.27,5.12-.53,7.65a37,37,0,0,1-16.2,27l-.13.09,0,0a32.26,32.26,0,0,1-8.91,4.12l-.68.21.53-.49a13.9,13.9,0,0,0,4-6.33v-.05l0,0a18.42,18.42,0,0,0,6-17.06l0-.09.07-.06c.89-.79,3.47-2.58,8-2.13a.77.77,0,0,0,.6-.18.84.84,0,0,0,.31-.56.9.9,0,0,0-.18-.61.87.87,0,0,0-.57-.3,12.14,12.14,0,0,0-8.36,1.89l-.2.14-1.64-7.77v0c1.09-3.05,2.11-5.71,3.11-8.13l0,0,0,0c1.11-.72,5-3,8.94-2a.87.87,0,0,0,.63-.09.78.78,0,0,0,.37-.5.8.8,0,0,0-.58-1,12.45,12.45,0,0,0-8,1l-.38.17.17-.38C70.92,27.51,74.91,21,78.62,17.54l.21-.2.06.29A106.37,106.37,0,0,1,80.55,31.1Z"/></svg>
