<svg id="Calque_3" data-name="Calque 3" xmlns="http://www.w3.org/2000/svg" viewBox="0 0 100 100"><path class="svg-primary" d="M41.39,72.55H30.93a4.74,4.74,0,0,0-4.78,4.69V85a1,1,0,1,0,1.94,0V82.4H44.23V85a1,1,0,1,0,1.94,0V77.24A4.74,4.74,0,0,0,41.39,72.55Zm-13.3,7.9V77.24a2.79,2.79,0,0,1,2.84-2.75H41.39a2.79,2.79,0,0,1,2.84,2.75v3.21Z"/><path class="svg-primary" d="M36,51.69a8.48,8.48,0,1,0,8.39,8.48A8.45,8.45,0,0,0,36,51.69Zm6.57,8.48A6.58,6.58,0,1,1,36,53.52,6.63,6.63,0,0,1,42.54,60.17Z"/><path class="svg-primary" d="M63.65,51.69A8.48,8.48,0,1,0,72,60.17,8.45,8.45,0,0,0,63.65,51.69Zm6.57,8.48a6.58,6.58,0,1,1-6.57-6.65A6.63,6.63,0,0,1,70.22,60.17Z"/><path class="svg-primary" d="M69.07,72.55h-.48l-.29.38c-2.9,3.85-4.15,4.15-4.46,4.15s-1.35-.2-4.47-4.16l-.29-.37h-.47a4.74,4.74,0,0,0-4.78,4.69V85a1,1,0,0,0,1.94,0V77.24a2.79,2.79,0,0,1,2.4-2.72c2.49,3.11,4.25,4.5,5.67,4.5s3.32-1.43,5.69-4.5a2.79,2.79,0,0,1,2.38,2.72V85a1,1,0,0,0,1.94,0V77.24A4.74,4.74,0,0,0,69.07,72.55Z"/><path class="svg-accent" d="M63.9,81.79A1.19,1.19,0,1,0,65.08,83,1.19,1.19,0,0,0,63.9,81.79Z"/><path class="svg-accent" d="M43.79,20.89h18.4a.84.84,0,1,0,0-1.68H43.79a.84.84,0,1,0,0,1.68Zm18.4-1.24Z"/><path class="svg-accent" d="M63.05,30.48a.86.86,0,0,0-.86-.84H43.79a.84.84,0,1,0,0,1.68h18.4A.86.86,0,0,0,63.05,30.48Z"/><path class="svg-primary" d="M65.12,14H40.87a3.31,3.31,0,0,0-3.37,3.24v10.4H35a2.46,2.46,0,0,0-2.51,2.41v7.67A2.46,2.46,0,0,0,35,40.14h.63L35,43.57a.79.79,0,0,0,.45.83.84.84,0,0,0,1-.09l4.42-4.17h6.29a2.47,2.47,0,0,0,2.52-2.42V36.53H52.4l8.12,7.77a.81.81,0,0,0,.57.23.86.86,0,0,0,.41-.1.81.81,0,0,0,.49-.81l-.76-7.09h3.89a3.3,3.3,0,0,0,3.36-3.24v-16A3.31,3.31,0,0,0,65.12,14ZM59.64,35.14a.85.85,0,0,0-.22.64L60,41.49l-6.7-6.4a.85.85,0,0,0-.57-.23H40.87a1.6,1.6,0,0,1-1.66-1.57v-16a1.59,1.59,0,0,1,1.66-1.56H65.12a1.58,1.58,0,0,1,1.65,1.56V33.29a1.59,1.59,0,0,1-1.65,1.57H60.27A.84.84,0,0,0,59.64,35.14ZM39.94,38.7l-2.78,2.62.35-1.88a.8.8,0,0,0-.2-.67.86.86,0,0,0-.64-.3H35a.77.77,0,0,1-.8-.75V30.05a.77.77,0,0,1,.8-.74h2.5v4a3.31,3.31,0,0,0,3.37,3.24H48v1.19a.78.78,0,0,1-.81.75H40.52A.85.85,0,0,0,39.94,38.7Z"/><path class="svg-accent" d="M43.79,26.1h18.4a.84.84,0,1,0,0-1.67H43.79a.84.84,0,1,0,0,1.67Zm18.4-1.24Z"/></svg>
