<svg id="Calque_3" data-name="Calque 3" xmlns="http://www.w3.org/2000/svg" viewBox="0 0 100 100"><path class="svg-primary" d="M25.8,62.88h.93V61H25.8a.93.93,0,0,0,0,1.86Z"/><path class="svg-primary" d="M82.23,65.33c-.07-.13-.15-.26-.23-.39a5,5,0,0,0-6.27-1.81L61.36,69.56a4.13,4.13,0,0,0-4.11-3.71H46.72a1.5,1.5,0,0,1-.62-.13l-9.47-4.39A3.32,3.32,0,0,0,35.24,61H26.73v1.86h8.51a1.42,1.42,0,0,1,.61.13l9.47,4.39a3.4,3.4,0,0,0,1.4.31H57.25a2.28,2.28,0,1,1,0,4.55H44.32a3.34,3.34,0,0,0-2.4,1l-1.7,1.77a.93.93,0,1,0,1.34,1.28l1.7-1.77a1.49,1.49,0,0,1,1.06-.45H57.25A4.12,4.12,0,0,0,61,71.75h0l15.46-6.92a3.19,3.19,0,0,1,4,1.14,2.53,2.53,0,0,1,.13.22,2.19,2.19,0,0,1-1,2.95L50.68,84a1.45,1.45,0,0,1-1.1.09L32.65,78.89a3.17,3.17,0,0,0-1-.15H26.73V62.88H25.8a.93.93,0,0,1-.92-.93V81.09a.85.85,0,0,1-.84.85h-7.2a.93.93,0,1,0,0,1.85H24a2.7,2.7,0,0,0,2.69-2.7v-.5h4.95a1.55,1.55,0,0,1,.43.07L49,85.85A3.33,3.33,0,0,0,50,86a3.21,3.21,0,0,0,1.51-.37l29-14.86A4,4,0,0,0,82.23,65.33Z"/><path class="svg-primary" d="M25.8,61h.93v-.29A2.7,2.7,0,0,0,24,58h-7.2a.93.93,0,1,0,0,1.85H24a.85.85,0,0,1,.84.84V62A.93.93,0,0,1,25.8,61Z"/><path class="svg-primary" d="M75.12,38.05a.93.93,0,0,0-.92-.93h-.93V39h.93A.93.93,0,0,0,75.12,38.05Z"/><path class="svg-primary" d="M64.76,37.12a1.42,1.42,0,0,1-.61-.13L54.68,32.6a3.39,3.39,0,0,0-1.4-.3H42.75a2.28,2.28,0,0,1,0-4.56H55.68a3.34,3.34,0,0,0,2.4-1L59.78,25a.93.93,0,0,0-1.34-1.28l-1.7,1.77a1.45,1.45,0,0,1-1.06.45H42.75A4.14,4.14,0,0,0,39,28.25h0L23.52,35.18a3.19,3.19,0,0,1-4-1.14,2.53,2.53,0,0,1-.13-.22,2.16,2.16,0,0,1-.14-1.67,2.22,2.22,0,0,1,1.09-1.28L49.32,16a1.45,1.45,0,0,1,1.1-.1l16.93,5.19a3.17,3.17,0,0,0,1,.15h5V37.12h.93a.93.93,0,0,1,.92.93V18.91a.84.84,0,0,1,.84-.84h7.2a.93.93,0,0,0,0-1.86H76a2.7,2.7,0,0,0-2.69,2.7v.5h-5a1.55,1.55,0,0,1-.43-.07L51,14.15a3.24,3.24,0,0,0-2.48.22l-29,14.86a4,4,0,0,0-1.75,5.44c.07.13.15.26.23.39a5,5,0,0,0,6.27,1.81l14.37-6.43a4.13,4.13,0,0,0,4.11,3.71H53.28a1.64,1.64,0,0,1,.62.13l9.47,4.39a3.32,3.32,0,0,0,1.39.31h8.51V37.12Z"/><path class="svg-primary" d="M83.16,40.11H76a.85.85,0,0,1-.84-.84V38.05a.93.93,0,0,1-.92.93h-.93v.29A2.69,2.69,0,0,0,76,42h7.2a.93.93,0,1,0,0-1.85Z"/><path class="svg-accent" d="M43.82,52.4l0,.13A8.75,8.75,0,0,0,46,56.87a8.1,8.1,0,0,0,6.14,2.55,8.65,8.65,0,0,0,3.78-.78v-3.5a5.55,5.55,0,0,1-3.82,1.32,4.42,4.42,0,0,1-3.52-1.6,5.52,5.52,0,0,1-1-2.26l0-.2h6l.35-1.69H47.28v-.16q0-.49,0-1c0-.31,0-.57,0-.77v-.16h7L54.65,47H47.48l.05-.2a5.14,5.14,0,0,1,1.09-2.22A4.52,4.52,0,0,1,52.19,43a4.78,4.78,0,0,1,3.13,1l.68-3.2A8.5,8.5,0,0,0,52.38,40,8.33,8.33,0,0,0,46,42.58a8.87,8.87,0,0,0-2.13,4.26l0,.13H42.31L42,48.66h1.68v.17c0,.3,0,.65,0,1.05,0,.23,0,.45,0,.66v.17H42.31L42,52.4Z"/></svg>
