<svg id="Calque_3" data-name="Calque 3" xmlns="http://www.w3.org/2000/svg" viewBox="0 0 100 100"><rect class="svg-primary" x="45.2" y="72.07" width="20.78" height="1.93" rx="0.94"/><rect class="svg-primary" x="45.2" y="67.48" width="20.78" height="1.93" rx="0.94"/><path class="svg-no-fill" d="M30.67,51.66,36,46.37a.93.93,0,0,1,1.31,0,.91.91,0,0,1,.27.66.88.88,0,0,1-.27.65l-6.61,6.61v4.84l1-.08a13.44,13.44,0,0,0,8.6-3.48c2.88-2.81,4.35-7.4,4.35-13.66A33.28,33.28,0,0,0,40.1,24.49c-2.81-4.5-6.5-7-10.38-7s-7.57,2.48-10.38,7a33.37,33.37,0,0,0-4.48,17.42c0,6.24,1.46,10.84,4.35,13.66a13.51,13.51,0,0,0,8.64,3.48l1,.08V46.3l-6.25-6.24a.93.93,0,0,1,1.31-1.31l4.93,4.92V32.08a.93.93,0,1,1,1.86,0Z"/><rect class="svg-no-fill" x="77.82" y="67.61" width="3.27" height="14.86"/><path class="svg-primary" d="M78.56,42.86V65.75H76.93a.93.93,0,0,0-.93.93V82.47H69.68V68.18a.93.93,0,1,0-1.85,0V77H43.25V68.18a.93.93,0,0,0-1.86,0V82.47H30.67V61l.84-.06c9.92-.7,15-7.09,15-19A35.21,35.21,0,0,0,41.7,23.52c-3.16-5.06-7.4-7.85-12-7.85S21,18.46,17.8,23.52A34.94,34.94,0,0,0,13,41.91c0,11.93,5,18.32,15,19l.84.06V82.47H13.94a.93.93,0,0,0,0,1.86H86.05a.93.93,0,0,0,0-1.86H83V66.68a.93.93,0,0,0-.93-.93H80.38V42.86ZM29.74,31.15a.93.93,0,0,0-.93.93V43.67l-4.93-4.92a.93.93,0,0,0-1.31,1.31l6.25,6.24V59.13l-1-.08a13.51,13.51,0,0,1-8.64-3.48c-2.89-2.82-4.35-7.42-4.35-13.66a33.37,33.37,0,0,1,4.48-17.42c2.81-4.5,6.5-7,10.38-7s7.57,2.48,10.38,7a33.28,33.28,0,0,1,4.49,17.42c0,6.26-1.47,10.85-4.35,13.66a13.44,13.44,0,0,1-8.6,3.48l-1,.08V54.29l6.61-6.61a.88.88,0,0,0,.27-.65.91.91,0,0,0-.27-.66.93.93,0,0,0-1.31,0l-5.3,5.29V32.08A.93.93,0,0,0,29.74,31.15Zm38,51.32H43.25V78.86H67.78ZM81.09,67.61V82.47H77.82V67.61Z"/><path class="svg-primary" d="M80.38,42.81h2.17a.94.94,0,0,0,.93-.86l.71-9.32,1.68.35a.7.7,0,0,0,.2,0,.93.93,0,0,0,.18-1.85l-6.58-1.35a1,1,0,0,0-.39,0L72.7,31.14a.93.93,0,0,0-.6.4.94.94,0,0,0-.13.7,1,1,0,0,0,.41.59.89.89,0,0,0,.69.13l1.69-.33L75.63,42a.94.94,0,0,0,.93.85h2v.06h1.82Zm-3-1.84-.82-8.69,2.9-.6,2.89.59L81.66,41Z"/></svg>
