<svg id="Calque_3" data-name="Calque 3" xmlns="http://www.w3.org/2000/svg" viewBox="0 0 100 100"><path class="svg-accent" d="M32.51,22a13.21,13.21,0,0,0,15.86,7.82l.21-.06V46.85h-.23A16.06,16.06,0,0,0,38.3,50.33a1,1,0,0,0-.39.63,1,1,0,0,0,1.5.93l.07,0a14.22,14.22,0,0,1,8.78-3h.11a9.16,9.16,0,0,1,1.16.05h0A14.24,14.24,0,0,1,62.48,60.72a1,1,0,0,0,1,.79h.19a1,1,0,0,0,.59-.38,1,1,0,0,0,.17-.7v0A16.09,16.09,0,0,0,50.65,47l-.14,0V38.88l.21.06a13.19,13.19,0,0,0,16.21-7.69l2.34-5.76a1,1,0,0,0-.53-1.24h0a13.31,13.31,0,0,0-17.33,7.3L50.82,33,50.5,33v-4a1,1,0,0,0-.07-.34l0,0v-.35l-.05-.16L48,22.29A13.36,13.36,0,0,0,30.68,15a1,1,0,0,0-.53.51,1,1,0,0,0,0,.73ZM53.16,32.24A11.34,11.34,0,0,1,66.94,25.6l.18.06-2,4.84a11.49,11.49,0,0,1-10.59,7.08,11,11,0,0,1-2-.19l-.4-.07,7.59-5.16a1,1,0,0,0,.25-1.33,1,1,0,0,0-.61-.4.91.91,0,0,0-.72.15L52,35.06ZM32.5,16.33A11.36,11.36,0,0,1,46.25,23l1.15,2.82-6.6-4.45a1,1,0,0,0-1.48,1,.91.91,0,0,0,.4.61l7.59,5.2-.4.07a11.49,11.49,0,0,1-2,.18,11.22,11.22,0,0,1-4.51-.94,11.39,11.39,0,0,1-6.09-6.2l-2-4.84Z"/><path class="svg-primary" d="M83.45,65c-.08-.14-.15-.27-.24-.4a5.13,5.13,0,0,0-6.37-1.84L62.25,69.3a4.19,4.19,0,0,0-4.17-3.76H47.39a1.52,1.52,0,0,1-.63-.14L37.14,61a3.29,3.29,0,0,0-1.41-.31H27.08v-.3a2.73,2.73,0,0,0-2.72-2.74H17a.94.94,0,0,0,0,1.88h7.32a.86.86,0,0,1,.84.86V81a.85.85,0,0,1-.84.85H17a.94.94,0,1,0,0,1.88h7.32A2.72,2.72,0,0,0,27.08,81v-.51h5a1.29,1.29,0,0,1,.43.07l17.19,5.27a3.35,3.35,0,0,0,1,.15,3.42,3.42,0,0,0,1.53-.37L81.67,70.54A4.12,4.12,0,0,0,83.45,65Zm-2.64,3.85L51.4,84a1.43,1.43,0,0,1-1.11.1L33.1,78.78a3.28,3.28,0,0,0-1-.15h-5V62.52h8.65a1.48,1.48,0,0,1,.62.14L46,67.11a3.46,3.46,0,0,0,1.42.31H58.08a2.31,2.31,0,1,1,0,4.62H44.94a3.4,3.4,0,0,0-2.43,1l-1.72,1.8a.94.94,0,0,0,0,1.33.9.9,0,0,0,.65.26.93.93,0,0,0,.68-.29l1.72-1.8a1.49,1.49,0,0,1,1.07-.45H58.08a4.2,4.2,0,0,0,3.79-2.4h0l15.7-7a3.24,3.24,0,0,1,4,1.16,2.53,2.53,0,0,1,.13.22A2.22,2.22,0,0,1,80.81,68.86Z"/></svg>
