<svg id="Calque_3" data-name="Calque 3" xmlns="http://www.w3.org/2000/svg" viewBox="0 0 100 100"><path class="svg-primary" d="M85.71,69.37h0L70,53.63a1,1,0,0,0-1.39,0l-3.82,3.82-4.51-4.52,7.17-7.18a.94.94,0,0,0,.29-.69,1,1,0,0,0-.28-.69L55.63,32.57a1,1,0,0,0-1.38,0l-7.18,7.18-4.52-4.53,3.82-3.81a1,1,0,0,0,.29-.69,1,1,0,0,0-.29-.69L30.63,14.29a1,1,0,0,0-1.38,0l-8.44,8.44a1,1,0,0,0,0,1.38L36.54,39.85a1,1,0,0,0,1.38,0l3.25-3.24,4.52,4.52L38.51,48.3a1,1,0,0,0,0,1.39l5.21,5.21-2.6,2.59-.28-.18a6.54,6.54,0,1,0,1.85,1.85l-.18-.28,2.59-2.6,5.22,5.21a1,1,0,0,0,1.38,0l7.17-7.18,4.52,4.52-3.24,3.24a1,1,0,0,0,0,1.39l8,8,7.75,7.75a1,1,0,0,0,1.38,0l8.44-8.44a1,1,0,0,0,0-1.38ZM22.88,23.42l7.06-7.06,6.49,6.48-7.06,7.07Zm17.72,11v.25h-.24l-3.13,3.12-6.48-6.49,7.06-7.06,6.49,6.49ZM40.48,66a4.59,4.59,0,1,1,0-6.49A4.62,4.62,0,0,1,40.48,66ZM51,59.42,40.58,49,54.94,34.64,65.36,45.06Zm11.21,3.35,7.06-7.06,6.49,6.48-7.06,7.06ZM76.58,77.12l-6.49-6.48,7.06-7.07,6.49,6.49Z"/><path class="svg-accent" d="M37.23,75.7A12.94,12.94,0,0,1,24.3,62.77a1,1,0,1,0-1.95,0A14.9,14.9,0,0,0,37.23,77.65a1,1,0,1,0,0-2Z"/><path class="svg-accent" d="M37.23,84.05A21.3,21.3,0,0,1,16,62.77a1,1,0,1,0-1.95,0A23.25,23.25,0,0,0,37.23,86a1,1,0,1,0,0-2Z"/></svg>
