<svg id="Calque_3" data-name="Calque 3" xmlns="http://www.w3.org/2000/svg" viewBox="0 0 100 100"><path class="svg-no-fill" d="M23.57,43.8c-4.25,0-7.18,8.38-7.25,16.22.09,4.34,2.3,8.14,5.38,9.23l1,.35V51a.88.88,0,1,1,1.75,0V69.63l1-.39c3.12-1.19,5.27-4.91,5.36-9.25A28.59,28.59,0,0,0,28.5,48.31C27.12,45.45,25.33,43.8,23.57,43.8Z"/><path class="svg-no-fill" d="M53.6,28.2c-.09-6.82-3.34-12.37-7.26-12.37s-7.17,5.55-7.26,12.4a7.43,7.43,0,0,0,5.44,7l.94.25V34.32h0v-11a.88.88,0,0,1,1.75,0v11h0v1.21l.94-.25A7.5,7.5,0,0,0,53.6,28.2Z"/><path class="svg-no-fill" d="M81.24,28.2C81.16,21.38,77.9,15.83,74,15.83s-7.17,5.55-7.26,12.4a7.42,7.42,0,0,0,5.44,7l.94.25V33.83h0V23.33a.88.88,0,0,1,1.75,0v10.5h0v1.7l.94-.25A7.49,7.49,0,0,0,81.24,28.2Z"/><path class="svg-accent" d="M44.52,35.2a7.43,7.43,0,0,1-5.44-7c.09-6.85,3.35-12.4,7.26-12.4s7.17,5.55,7.26,12.37a7.5,7.5,0,0,1-5.44,7.08l-.94.25v1.64l.62-.11a9.08,9.08,0,0,0,7.51-8.42v-.76C55.19,20.1,51.24,14,46.34,14s-8.85,6.11-9,13.9v.88a9.2,9.2,0,0,0,7.51,8.37l.61.11V35.45Z"/><path class="svg-accent" d="M72.17,35.2a7.42,7.42,0,0,1-5.44-7c.09-6.85,3.34-12.4,7.26-12.4s7.17,5.55,7.25,12.37a7.49,7.49,0,0,1-5.44,7.08l-.94.25v1.64l.63-.11A9.07,9.07,0,0,0,83,28.64v-.76C82.84,20.1,78.88,14,74,14s-8.86,6.11-9,13.9v.88a9.21,9.21,0,0,0,7.52,8.37l.61.11V35.45Z"/><rect class="svg-green" x="45.46" y="37.26" width="0.01" height="1.44"/><rect class="svg-green" x="47.22" y="34.32" width="0.01" height="1.21"/><rect class="svg-green" x="44.9" y="34.88" width="1.13" height="0.01" transform="translate(0.79 70.77) rotate(-76.27)"/><rect class="svg-green" x="47.22" y="37.17" width="0.01" height="1.54"/><rect class="svg-green" x="73.11" y="37.26" width="0.01" height="1.1"/><rect class="svg-green" x="74.86" y="37.17" height="1.19"/><rect class="svg-green" x="74.86" y="33.83" height="1.69"/><rect class="svg-green" x="72.3" y="34.64" width="1.61" height="0.01" transform="translate(22.95 98.11) rotate(-77.04)"/><path class="svg-no-fill" d="M22.7,67.57V51a.88.88,0,1,1,1.75,0V67.57h0v2.06l1-.39c3.12-1.19,5.27-4.91,5.36-9.25A28.59,28.59,0,0,0,28.5,48.31c-1.38-2.86-3.17-4.51-4.93-4.51-4.25,0-7.18,8.38-7.25,16.22.09,4.34,2.3,8.14,5.38,9.23l1,.35v-2Z"/><rect class="svg-green" x="22.7" y="71.34" height="0.92"/><rect class="svg-green" x="22.7" y="67.57" width="0.01" height="2.03"/><rect class="svg-green" x="24.45" y="71.35" height="0.91"/><rect class="svg-green" x="24.45" y="67.57" height="2.06"/><path class="svg-accent" d="M31.47,51.17a18.29,18.29,0,0,0-1.88-4.69l-.66-1.13a7.52,7.52,0,0,0-1.57-1.67l-.21-.19a5.44,5.44,0,0,0-3.58-1.44c-5,0-8.85,7.58-9,17.64v1c.3,5.29,3.47,9.74,7.53,10.57l.6.12V69.6l-1-.35c-3.08-1.09-5.29-4.89-5.38-9.23.07-7.84,3-16.22,7.25-16.22,1.76,0,3.55,1.65,4.93,4.51A28.59,28.59,0,0,1,30.83,60c-.09,4.34-2.24,8.06-5.36,9.25l-1,.39v1.72l.59-.13c4.13-.92,7.24-5.28,7.54-10.61v-1a28.39,28.39,0,0,0-.47-5.22l-.56-2.9Z"/><path class="svg-green" d="M29.33,45.35h-.4C29,45.48,29.16,45.46,29.33,45.35Z"/><path class="svg-accent" d="M24.45,67.57V51a.88.88,0,1,0-1.75,0V69.6h0v1.74h0V78.7a.88.88,0,1,0,1.75,0V71.35h0V69.63h0Z"/><path class="svg-accent" d="M47.22,43.68V37.17h0V35.53h0V23.33a.88.88,0,0,0-1.75,0V35.45h0v1.81h0v6.42Z"/><path class="svg-primary" d="M75.33,44.84h0l-.47-.19h0a8.32,8.32,0,0,0-1.75-.52L72.25,44a20.62,20.62,0,0,0-3.14-.31H27.36a7.52,7.52,0,0,1,1.57,1.67H69.11a14.57,14.57,0,1,1,0,29.14,5.77,5.77,0,0,0-5.76,5.76v1.62A2.38,2.38,0,0,1,61,84.25H41.46a2.39,2.39,0,0,1-2.38-2.38V78.62a17,17,0,0,1,17-17h2.44a4.94,4.94,0,0,0,0-9.88H31.61l-.06-.26.56,2.9-.17-.89h26.6a3.15,3.15,0,0,1,3.19,3.19,3.19,3.19,0,0,1-3.19,3.19H56.1A18.78,18.78,0,0,0,37.34,78.62v3.25A4.13,4.13,0,0,0,41.46,86H61a4.13,4.13,0,0,0,4.12-4.13V80.25a4,4,0,0,1,4-4,16.32,16.32,0,0,0,6.22-31.4Z"/><path class="svg-accent" d="M74.86,35.53V23.33a.88.88,0,0,0-1.75,0V35.45h0v1.81h0v6.87a8.32,8.32,0,0,1,1.75.52V37.17h0V35.53Z"/></svg>
