<svg id="Calque_3" data-name="Calque 3" xmlns="http://www.w3.org/2000/svg" viewBox="0 0 100 100"><path class="svg-no-fill" d="M77,40.18v-4H73.1a.87.87,0,0,1-.88-.87V31.92l-.45.18a43.84,43.84,0,0,1-6.56,2l-1.54.33.71.43A27.58,27.58,0,0,1,75.79,48.51l.29.77,1-2.44a46.58,46.58,0,0,1,2.61-5.3l.28-.49H77.91A.87.87,0,0,1,77,40.18Z"/><path class="svg-accent" d="M76.69,65.2a26.94,26.94,0,0,0,.86-5.93l-.06-.06A27.45,27.45,0,0,1,76.69,65.2Z"/><path class="svg-primary" d="M76.88,52.08l0-.1,1.87-4.46a42.39,42.39,0,0,1,3.1-6.1,39.45,39.45,0,0,1,2.91-4.14l.42-.54A2.07,2.07,0,0,0,85,34l-5.82-5.81a2.07,2.07,0,0,0-2.49-.33,42.84,42.84,0,0,1-4,2,41.58,41.58,0,0,1-7.9,2.55l-3.69.79-.1,0A26.55,26.55,0,0,0,56,31.48l0,.06a27.5,27.5,0,0,1,21.6,26.92c0,.25,0,.5,0,.75l.06.06c0-.34,0-.68,0-1A27.49,27.49,0,0,0,76.88,52.08ZM74,31.16l.19-.08c1.27-.58,2.38-1.15,3.39-1.73l.22-.13,6.2,6.2-.61.76c-.66.83-1.35,1.77-2.15,3l-.1.15H78.79V35.36a.87.87,0,0,0-.88-.88H74Zm-9.59,3.67-.71-.43,1.54-.33a43.84,43.84,0,0,0,6.56-2l.45-.18v3.44a.87.87,0,0,0,.88.87H77v4a.87.87,0,0,0,.87.87H80l-.28.49a46.58,46.58,0,0,0-2.61,5.3l-1,2.44-.29-.77"/><path class="svg-primary" d="M44.57,70.11A1.3,1.3,0,0,1,43.85,69v-.09A3.06,3.06,0,0,0,40.8,65.8H35.89a3,3,0,0,0-2.73,1.69l-.23.46a3.06,3.06,0,0,0,2.73,4.43h1.52a1.31,1.31,0,0,1,1.31,1.3v1.66a3.06,3.06,0,0,0,3,3.06h1.67a3.06,3.06,0,0,0,3-3.06V72.85A3,3,0,0,0,44.57,70.11Zm-.06,5.23a1.31,1.31,0,0,1-1.3,1.31H41.54a1.31,1.31,0,0,1-1.3-1.31V73.68a3.06,3.06,0,0,0-3.06-3.06H35.66a1.29,1.29,0,0,1-1.16-1.88l.22-.46a1.3,1.3,0,0,1,1.17-.72H40.8a1.3,1.3,0,0,1,1.3,1.3V69a3,3,0,0,0,1.69,2.73,1.3,1.3,0,0,1,.72,1.17Z"/><path class="svg-primary" d="M55.92,31.54l0-.06a27.4,27.4,0,0,0-16.46,1.57l-.45.19v.06h0a27.39,27.39,0,0,0-7.66,5.16c.35-.33.71-.66,1.07-1v-.06l-.1.09A27.37,27.37,0,0,0,22.86,57c0-.59.08-1.18.15-1.76-.07.58-.12,1.17-.15,1.76,0,.24,0,.48,0,.71s0,.35,0,.53v.21a27.35,27.35,0,1,0,33.1-26.92Zm-24.7,7.08c-.35.33-.68.68-1,1C30.54,39.3,30.87,39,31.22,38.62ZM42.49,50l.19.09a1.15,1.15,0,0,1,.63,1v2.14a1.15,1.15,0,0,1-.78,1.07l-1.68.56a1.07,1.07,0,0,1-.64,0l-1.75-.43a2.88,2.88,0,0,0-3.59,2.79v1.46a1.11,1.11,0,0,1-1.12,1.12H32.17a1.16,1.16,0,0,1-1-.62l-1.41-2.82a1.17,1.17,0,0,1,0-1l1.31-2.64a2.86,2.86,0,0,0-.54-3.32l-3-3,.11-.22a25.85,25.85,0,0,1,3.07-4.46l.23-.27,2.41,2.41a2.88,2.88,0,0,0,2,.85h2.19a2.88,2.88,0,0,0,1.58-.48,1.14,1.14,0,0,1,1.18-.06,1.1,1.1,0,0,1,.58,1v2.25A2.91,2.91,0,0,0,42.49,50ZM26.86,44.07c.23-.37.46-.74.71-1.1C27.32,43.33,27.09,43.7,26.86,44.07Zm.92-1.42q.48-.67,1-1.32Q28.26,42,27.78,42.65ZM29,41c.27-.33.54-.66.83-1C29.58,40.34,29.31,40.67,29,41ZM23.28,53.43c-.07.44-.14.87-.2,1.31C23.14,54.3,23.21,53.87,23.28,53.43Zm3.31-8.9c-.23.38-.44.76-.64,1.15C26.15,45.29,26.36,44.91,26.59,44.53ZM25.77,46c-.25.49-.48,1-.7,1.5C25.29,47,25.52,46.51,25.77,46Zm-.87,1.92c-.16.4-.32.8-.46,1.2C24.58,48.74,24.74,48.34,24.9,47.94Zm-.64,1.7c-.15.47-.3.94-.43,1.41C24,50.58,24.11,50.11,24.26,49.64Zm-.5,1.64c-.15.55-.27,1.11-.39,1.68C23.49,52.39,23.61,51.83,23.76,51.28ZM49.33,83.83l-.34,0A25.58,25.58,0,0,1,26.52,48.49l.19-.46,2.58,2.58a1.14,1.14,0,0,1,.2,1.31l-1.31,2.63a2.9,2.9,0,0,0,0,2.57l1.41,2.82a2.9,2.9,0,0,0,2.58,1.59h1.58a2.88,2.88,0,0,0,2.87-2.87V57.2a1.11,1.11,0,0,1,.44-.89,1.09,1.09,0,0,1,1-.2l1.75.43a2.88,2.88,0,0,0,1.62,0l1.69-.57a2.89,2.89,0,0,0,2-2.73V51.05a2.9,2.9,0,0,0-1.59-2.57l-.2-.1a1.14,1.14,0,0,1-.62-1V45.12a2.89,2.89,0,0,0-2.89-2.88,2.93,2.93,0,0,0-1.58.48,1.1,1.1,0,0,1-.62.19H35.37a1.11,1.11,0,0,1-.8-.33l-2.45-2.45.24-.24A25.58,25.58,0,0,1,49,32.68l.34,0Zm1.75-31.89.4.08a6.35,6.35,0,0,1,0,12.45l-.4.08Zm0,14.36.28,0a8.09,8.09,0,0,0,0-16l-.28-.05V39.89l.35,0a18.37,18.37,0,0,1,0,36.67l-.35,0Zm.35,17.51-.35,0V78.36l.31,0a20.12,20.12,0,0,0,0-40.18l-.31,0V32.66l.35,0a25.59,25.59,0,0,1,0,51.13Z"/><path class="svg-accent" d="M56.71,21.37l-1.15-.77a25,25,0,0,0-13.79-4.19h-.33V14.88a.87.87,0,0,0-.87-.88H30.93a.88.88,0,0,0-.88.88v1.53h-.33A24.93,24.93,0,0,0,15.94,20.6l-1.16.78a.87.87,0,0,0-.35,1,.88.88,0,0,0,.84.62H30.05v.33a.89.89,0,0,0,.88.88h1.53V37.42h0v.06A27.3,27.3,0,0,1,39,33.3v-.06h0V24.19h1.54a.88.88,0,0,0,.87-.88V23H56.23a.88.88,0,0,0,.48-1.61Zm-26.66-.14H18.18l1.24-.62a23,23,0,0,1,10.3-2.45h.33Zm7.23,12.88-.17.1a27.3,27.3,0,0,0-2.38,1.47l-.51.35V24.19h3.06v9.92Zm2.41-11.68H31.81V15.75h7.88Zm1.75-1.2V18.16h.33a23,23,0,0,1,10.31,2.45l1.24.62Z"/></svg>
