<svg id="Calque_3" data-name="Calque 3" xmlns="http://www.w3.org/2000/svg" viewBox="0 0 30 30"><path class="svg-primary" d="M16.9,9.36a3.73,3.73,0,0,0-2.62,1,4.86,4.86,0,0,0-1.42,2.58h5.49l-.33,1H12.69l-.06.59c0,.2,0,.41,0,.62s0,.33,0,.53,0,.38.05.53h4.69l-.33,1H12.8a4.33,4.33,0,0,0,.52,1.44,4,4,0,0,0,.9,1.1,3.77,3.77,0,0,0,1.23.71,4.13,4.13,0,0,0,1.45.25,5.1,5.1,0,0,0,1.33-.17,4,4,0,0,0,1.16-.56l.54,1a5.4,5.4,0,0,1-3.19.87,5,5,0,0,1-3.58-1.44,5.59,5.59,0,0,1-1.1-1.49,6.51,6.51,0,0,1-.59-1.74h-1.4l.37-1h.9c0-.12,0-.28,0-.48s0-.38,0-.56,0-.43,0-.66a3.84,3.84,0,0,1,.06-.57H10.09l.37-1h1a7,7,0,0,1,.76-2A5.43,5.43,0,0,1,13.5,9.42a5,5,0,0,1,1.59-.92A5.52,5.52,0,0,1,17,8.19a6.52,6.52,0,0,1,1.48.16,5.09,5.09,0,0,1,1.25.43l-.46,1.13A4.49,4.49,0,0,0,16.9,9.36Z"/></svg>
