<svg id="Calque_3" data-name="Calque 3" xmlns="http://www.w3.org/2000/svg" viewBox="0 0 30 30"><path class="svg-primary" d="M23.94,15.23l0,0c0-.06,0-.13,0-.19A9,9,0,0,0,17,6.25v0l-.13,0A9.14,9.14,0,0,0,15,6a8.9,8.9,0,0,0-3.5.71l-.15.07-.06,0h0A8.81,8.81,0,0,0,9.37,8V8l-.2.17a9,9,0,0,0-3.09,6.37,1.69,1.69,0,0,0,0,.23v.07s0,.07,0,.11V15a8.92,8.92,0,0,0,17.59,2.2v0a9.16,9.16,0,0,0,.28-1.92Zm-8.55,6.3h0a6.6,6.6,0,0,0,0-13.18V6.78h0a8.17,8.17,0,0,1,0,16.32Zm0-4.67V13h0a1.95,1.95,0,0,1,0,3.82Zm0,.76a2.71,2.71,0,0,0,0-5.36V9.12h0a5.83,5.83,0,0,1,0,11.64V17.63Zm-3.9-7.14a.28.28,0,0,1,.28,0,.25.25,0,0,1,.13.23v.73a1,1,0,0,0,.57.92l.06,0a.27.27,0,0,1,.15.24v.69a.28.28,0,0,1-.18.25l-.55.18a.19.19,0,0,1-.15,0l-.56-.13a1,1,0,0,0-.88.18,1,1,0,0,0-.4.81v.47a.27.27,0,0,1-.27.27H9.18a.28.28,0,0,1-.24-.15l-.45-.91a.25.25,0,0,1,0-.24l.42-.85A1,1,0,0,0,8.72,12l-.92-.93h0a8.44,8.44,0,0,1,1-1.43h0l.71.7a1,1,0,0,0,.73.3h.7A1.06,1.06,0,0,0,11.49,10.48Zm-4,1.35h0l.73.72a.28.28,0,0,1,.05.31l-.42.85a1,1,0,0,0,0,.92l.45.91a1,1,0,0,0,.92.57h.51a1,1,0,0,0,1-1V14.6a.28.28,0,0,1,.1-.21.24.24,0,0,1,.23,0l.56.13a1,1,0,0,0,.58,0l.55-.18a1,1,0,0,0,.7-1v-.69a1,1,0,0,0-.57-.92l-.06,0a.28.28,0,0,1-.15-.24V10.7a1,1,0,0,0-1-1,1,1,0,0,0-.56.18.28.28,0,0,1-.15,0h-.7A.27.27,0,0,1,10,9.81l-.72-.72h0a8.23,8.23,0,0,1,5.31-2.3V23.1h0A8.16,8.16,0,0,1,7.45,11.83Z"/><path class="svg-primary" d="M10.31,19.6h.49a.32.32,0,0,1,.32.32v.54a1.09,1.09,0,0,0,1.09,1.09h.54a1.09,1.09,0,0,0,1.08-1.09v-.81a1.09,1.09,0,0,0-.6-1,.31.31,0,0,1-.18-.28v0A1.08,1.08,0,0,0,12,17.28H10.38a1.09,1.09,0,0,0-1,.6L9.34,18a1.08,1.08,0,0,0,.05,1.06A1.06,1.06,0,0,0,10.31,19.6Zm2.58-.23a.31.31,0,0,1,.18.28v.81a.32.32,0,0,1-.32.32h-.54a.32.32,0,0,1-.32-.32v-.54a1.08,1.08,0,0,0-1.09-1.08h-.49a.33.33,0,0,1-.28-.16.33.33,0,0,1,0-.31l.07-.15a.33.33,0,0,1,.29-.18H12a.32.32,0,0,1,.32.33v0A1.09,1.09,0,0,0,12.89,19.37Z"/></svg>
