<svg id="Calque_3" data-name="Calque 3" xmlns="http://www.w3.org/2000/svg" viewBox="0 0 30 30"><path class="svg-primary" d="M22.35,8.74A.79.79,0,0,0,21.61,8H8.39a.77.77,0,0,0-.73.71L5,20.94a1.05,1.05,0,0,0,.22.82.71.71,0,0,0,.52.24h18.5a.71.71,0,0,0,.52-.24,1.05,1.05,0,0,0,.22-.85Zm1,8.51-4.22-1.2-.65-7.2H21.5s0,0,0,0ZM11.4,13.87l2-5h4.17l.63,7Zm3.9,2L13,21.15H8.51l2.58-6.49Zm-6.78-7h4l-1.9,4.79-2.91-.83ZM5.86,21.09l1.62-7.45,2.77.79L7.58,21.15H5.86Zm18.28.06H13.94l2.2-5,7.38,2.09.62,2.87Z"/></svg>
