<svg id="Calque_3" data-name="Calque 3" xmlns="http://www.w3.org/2000/svg" viewBox="0 0 30 30"><path class="svg-primary" d="M20.34,21.37V17.16l.53,0a4.12,4.12,0,0,0,2.36-.66l.08-.06a2.83,2.83,0,0,0,.28-.2c1.22-1.23.87-3.51.85-3.61a.39.39,0,0,0-.32-.32s-2.34-.39-3.57.86l-.21.24v-.68a4.43,4.43,0,0,0,1.76-3c0-1.78-1.9-3.14-1.92-3.16a.41.41,0,0,0-.46,0S17.8,8,17.8,9.73a4.43,4.43,0,0,0,1.76,3v2a1.86,1.86,0,0,0-.22-.25c-1.22-1.23-3.47-.88-3.57-.86a.41.41,0,0,0-.32.32c0,.1-.38,2.37.85,3.61a2,2,0,0,0,.28.2l.08.06a4.12,4.12,0,0,0,2.36.66,4.89,4.89,0,0,0,.54,0V20.3h0v.94a28.76,28.76,0,0,0-4.39-.31,26.62,26.62,0,0,0-4.71.37V17.16l.54,0a4.11,4.11,0,0,0,2.35-.66l.09-.06a2.69,2.69,0,0,0,.27-.2c1.22-1.23.87-3.51.85-3.61a.38.38,0,0,0-.32-.32s-2.33-.39-3.57.86l-.21.24v-.68a4.43,4.43,0,0,0,1.76-3c0-1.77-1.9-3.14-1.92-3.16a.39.39,0,0,0-.45,0S7.91,8,7.91,9.73a4.46,4.46,0,0,0,1.76,3v2a1.84,1.84,0,0,0-.21-.25c-1.22-1.23-3.48-.88-3.58-.86a.41.41,0,0,0-.32.32c0,.1-.38,2.37.85,3.61.09.08.19.13.28.2l.09.06a4.11,4.11,0,0,0,2.35.66,4.89,4.89,0,0,0,.54,0V20.3h0v1.15a7.62,7.62,0,0,0-3.18,1.27.45.45,0,0,0,0,.63.43.43,0,0,0,.62.05s1.93-1.57,8.1-1.57,8.11,1.56,8.13,1.57a.46.46,0,0,0,.29.11.44.44,0,0,0,.34-.16.45.45,0,0,0-.05-.63A8.29,8.29,0,0,0,20.34,21.37ZM8.9,15.08a3.56,3.56,0,0,1,.67,2.62A3.52,3.52,0,0,1,7,17,3.58,3.58,0,0,1,6.3,14.4,3.52,3.52,0,0,1,8.9,15.08ZM8.69,9.73A3.6,3.6,0,0,1,10.06,7.4a3.51,3.51,0,0,1,1.37,2.33,3.56,3.56,0,0,1-1.37,2.33A3.57,3.57,0,0,1,8.69,9.73Zm2.52,4a3.47,3.47,0,0,1,2.6-.66,3.52,3.52,0,0,1-.66,2.62,3.51,3.51,0,0,1-2.6.67A3.59,3.59,0,0,1,11.21,13.75Zm7.58,1.33a3.54,3.54,0,0,1,.66,2.62,3.53,3.53,0,0,1-2.6-.67,3.61,3.61,0,0,1-.66-2.63A3.52,3.52,0,0,1,18.79,15.08Zm-.21-5.35A3.56,3.56,0,0,1,20,7.4a3.54,3.54,0,0,1,1.37,2.33A3.6,3.6,0,0,1,20,12.06,3.53,3.53,0,0,1,18.58,9.73Zm2.52,4a3.45,3.45,0,0,1,2.6-.66A3.56,3.56,0,0,1,23,15.71a3.54,3.54,0,0,1-2.61.67A3.6,3.6,0,0,1,21.1,13.75Z"/></svg>
