<svg id="Calque_3" data-name="Calque 3" xmlns="http://www.w3.org/2000/svg" viewBox="0 0 30 30"><path class="svg-primary" d="M23.89,21.05l-4.27-4.27a.4.4,0,0,0-.55,0l-.95.94-1.05-1,1.86-1.86a.4.4,0,0,0,.12-.28.4.4,0,0,0-.12-.27l-3.2-3.2a.39.39,0,0,0-.27-.11h0a.39.39,0,0,0-.28.11l-1.86,1.85-1-1,.94-1a.36.36,0,0,0,.12-.28.4.4,0,0,0-.12-.27L9,6.11a.4.4,0,0,0-.56,0L6.12,8.4A.36.36,0,0,0,6,8.68.39.39,0,0,0,6.11,9l4.27,4.27a.41.41,0,0,0,.55,0l.79-.79,1,1.05-1.86,1.85a.43.43,0,0,0-.11.28.41.41,0,0,0,.11.28l1.33,1.32-.55.54a1.86,1.86,0,0,0-1-.31,1.89,1.89,0,0,0-1.9,1.9,1.93,1.93,0,0,0,.55,1.35,1.92,1.92,0,0,0,2.69,0,1.91,1.91,0,0,0,.25-2.38l.54-.55,1.32,1.33a.39.39,0,0,0,.28.11h0a.41.41,0,0,0,.28-.11l1.85-1.86,1.05,1.05-.79.79a.36.36,0,0,0-.12.27.36.36,0,0,0,.12.28L21,23.89a.39.39,0,0,0,.28.11h0a.41.41,0,0,0,.28-.11l2.29-2.29a.41.41,0,0,0,.11-.28A.39.39,0,0,0,23.89,21.05Zm-3-1.86-1.73,1.73-1.58-1.58,1.73-1.73Zm2.14,2.13-1.74,1.74-1.58-1.58,1.74-1.74Zm-5-6.78-3.71,3.72-2.65-2.65,3.72-3.71Zm-7.84-6L8.52,10.26,6.94,8.68,8.68,6.94Zm2.13,2.13-1.73,1.74L9.08,10.81l1.73-1.74Zm-1.73,9.8a1.15,1.15,0,0,1-.79-.31,1.11,1.11,0,0,1,0-1.58,1.07,1.07,0,0,1,.79-.33,1.1,1.1,0,0,1,.79.32,1.14,1.14,0,0,1,0,1.59A1.16,1.16,0,0,1,10.66,20.45Z"/></svg>
