<svg id="Calque_3" data-name="Calque 3" xmlns="http://www.w3.org/2000/svg" viewBox="0 0 30 30"><path class="svg-primary" d="M20.84,8.39l-.15-.07a2.57,2.57,0,0,0-.6-.17l-.28-.05a7.18,7.18,0,0,0-1-.1H6.24a.46.46,0,0,0-.44.46.48.48,0,0,0,.47.47h12.5a4.49,4.49,0,0,1,0,9,2.05,2.05,0,0,0-2,2.05v.52a.57.57,0,0,1-.56.57H9.92a.58.58,0,0,1-.57-.57V19.43a5.28,5.28,0,0,1,5.25-5.28h.79a1.78,1.78,0,1,0,0-3.56H7.22a.48.48,0,0,0,0,.95h8.15a.83.83,0,0,1,0,1.66H14.6a6.23,6.23,0,0,0-6.21,6.23v1.05A1.53,1.53,0,0,0,9.92,22h6.25a1.52,1.52,0,0,0,1.52-1.52V20a1.09,1.09,0,0,1,1.08-1.1A5.44,5.44,0,0,0,20.84,8.39Z"/></svg>
