<svg id="Calque_3" data-name="Calque 3" xmlns="http://www.w3.org/2000/svg" viewBox="0 0 30 30"><path class="svg-primary" d="M23.24,15.37l-.14-.13a.14.14,0,0,1,0-.16l.12-.23a1.32,1.32,0,0,0-.17-1.5.66.66,0,0,1-.11-.16,1.16,1.16,0,0,1-.13-.37.92.92,0,0,0-.21-.46c-.36-.34-.83,0-1.29.23a2.47,2.47,0,0,1-.88.4,1.86,1.86,0,0,1-.57-.11.48.48,0,0,1-.3-.26.53.53,0,0,1,0-.39.55.55,0,0,1,.14-.22l.77-.71a.69.69,0,0,0,.23-.5.74.74,0,0,0-.19-.53l-.07-.07a.92.92,0,0,0-1.08,0L18.13,11a.14.14,0,0,1,0-.06l.35-.65a1,1,0,0,0-.15-1.17.81.81,0,0,0-1.16,0l-2.5,2.51a.21.21,0,0,1-.29,0l-.23-.19a.14.14,0,0,1-.06-.12,1.06,1.06,0,0,0-.31-.75L10.49,7.16a2.39,2.39,0,0,0-.58-.42A1.19,1.19,0,0,0,9,6.68l-.31.11a.2.2,0,0,1-.21,0l0,0a.11.11,0,0,1,0-.12.94.94,0,0,0-.17-1,.76.76,0,0,0-.53-.23.75.75,0,0,0-.55.21l-.38.37a1.28,1.28,0,0,0-.39.9,1.31,1.31,0,0,0,.37.92L7.07,8a.45.45,0,0,1,.14.33.42.42,0,0,1-.14.34A1.38,1.38,0,0,0,7,10.52l.36.42a.91.91,0,0,0,1.21.14.18.18,0,0,1,.21,0l.2.17-.33.33L8.26,12a.82.82,0,0,0,0,1.17.19.19,0,0,1,0,.19l-.11.21a3.64,3.64,0,0,1-.63.83,1.49,1.49,0,0,0-.42,1.39A2.42,2.42,0,0,0,7.79,17l.08.07A5.4,5.4,0,0,0,9.13,18l.32.16a8.53,8.53,0,0,1,1.36.88l.48.38a.09.09,0,0,1,0,.06.23.23,0,0,1-.07.16.76.76,0,0,0-.08.83L12,22a3.22,3.22,0,0,0,.51.7.14.14,0,0,1,0,.15l0,.09a1,1,0,0,0,.3,1.2l.1.09a2.07,2.07,0,0,0,1.28.44,2,2,0,0,0,1.27-.44l.15-.11a.11.11,0,0,1,.15,0,.89.89,0,0,0,1.18-.07l.31-.31a.14.14,0,0,1,.21,0,1,1,0,0,0,1.35,0l2-2a1.82,1.82,0,0,0,0-2.57.71.71,0,0,0-.13-.12l-.74-.61a.19.19,0,0,1,0-.28L20,18a.93.93,0,0,0-.09-1.26.09.09,0,0,1,0-.08L21,15.5l.15.26a.1.1,0,0,1,0,.07.79.79,0,0,0,.19.72l.27.3A1,1,0,0,0,23,17l.26-.21a.84.84,0,0,0,.3-.72A1,1,0,0,0,23.24,15.37Zm-1,.92L22,16a1,1,0,0,0-.11-.68l-.16-.25a1,1,0,0,0-.12-.16.82.82,0,0,0-1.14,0l-1.14,1.16a.86.86,0,0,0-.24.63.84.84,0,0,0,.27.61.14.14,0,0,1,0,.16l-.08.1A1,1,0,0,0,19.39,19l.74.6.07.07a1,1,0,0,1,0,1.41l-2,2a.15.15,0,0,1-.21,0,1,1,0,0,0-1.35,0l-.31.31a.08.08,0,0,1-.08,0,1,1,0,0,0-1.18,0l-.15.12a1.25,1.25,0,0,1-1.52,0l-.11-.08a.2.2,0,0,1-.06-.23l0-.08a1,1,0,0,0-.19-1.07,1.64,1.64,0,0,1-.36-.5l-.77-1.51a1.11,1.11,0,0,0,.22-.65.87.87,0,0,0-.34-.7l-.48-.39a9.24,9.24,0,0,0-1.49-1l-.32-.16a4.92,4.92,0,0,1-1.08-.77l-.07-.07a1.64,1.64,0,0,1-.46-.86.72.72,0,0,1,.19-.62,4.32,4.32,0,0,0,.78-1L9,13.7a1,1,0,0,0-.15-1.16l.38-.37c.15-.15.31-.3.45-.46l0,0a.72.72,0,0,0,.14-.52.7.7,0,0,0-.26-.47l-.3-.24a1,1,0,0,0-1.21,0,.07.07,0,0,1-.09,0L7.61,10a.55.55,0,0,1,.06-.77A1.27,1.27,0,0,0,8,8.29a1.3,1.3,0,0,0-.38-.91L7.4,7.15a.47.47,0,0,1,0-.65l.32-.32a.08.08,0,0,1,0,.07.92.92,0,0,0,.16,1l0,0A1,1,0,0,0,9,7.57l.32-.11a.3.3,0,0,1,.23,0,1.36,1.36,0,0,1,.36.27l3.32,3.37a.24.24,0,0,1,.07.17,1,1,0,0,0,.36.76l.23.19a1,1,0,0,0,1.4-.07l2.47-2.5a.17.17,0,0,1,0,.21l-.36.66a.93.93,0,0,0,.08,1,.76.76,0,0,0,1,.17l.95-.66-.4.36a1.35,1.35,0,0,0-.36.58,1.33,1.33,0,0,0,.86,1.68,2.86,2.86,0,0,0,.82.16,2.78,2.78,0,0,0,1.31-.53l.29-.17a2.11,2.11,0,0,0,.2.49,1.68,1.68,0,0,0,.2.28.5.5,0,0,1,.06.57l-.12.23a1,1,0,0,0,.18,1.14l.14.13a.22.22,0,0,1,0,.14l-.26.21A.17.17,0,0,1,22.22,16.29ZM11.77,20Z"/></svg>
