<svg id="Calque_3" data-name="Calque 3" xmlns="http://www.w3.org/2000/svg" viewBox="0 0 30 30"><path class="svg-primary" d="M23.05,10.35h0a5.62,5.62,0,0,0-7.33,3.09l-.25.62-.14.39V12.33c0-.05,0-.29,0-.31s0,0,0-.06l-1-2.45A5.65,5.65,0,0,0,7,6.41a.45.45,0,0,0-.23.22.42.42,0,0,0,0,.31l1,2.43a5.58,5.58,0,0,0,6.7,3.32l.09,0v6.59a7.06,7.06,0,0,0-6,4.06.48.48,0,0,0,.23.64A.46.46,0,0,0,9,24a.47.47,0,0,0,.43-.27,6.15,6.15,0,0,1,11.13,0,.48.48,0,1,0,.86-.41,7.12,7.12,0,0,0-6-4.06V16.56l.06,0a5.59,5.59,0,0,0,6.85-3.26l1-2.45A.41.41,0,0,0,23.05,10.35ZM10.78,9.78,14,12l-.17,0a5,5,0,0,1-.86.08,4.88,4.88,0,0,1-4.48-3L7.65,7l.07,0A4.8,4.8,0,0,1,13.54,9.8L14,11,11.23,9.11a.4.4,0,0,0-.56.1.42.42,0,0,0-.06.31A.41.41,0,0,0,10.78,9.78ZM21.52,13A4.86,4.86,0,0,1,17,16a5.1,5.1,0,0,1-.86-.08l-.17,0,3.21-2.19a.4.4,0,0,0,.1-.56.39.39,0,0,0-.25-.17.42.42,0,0,0-.31.06L16,14.93l.49-1.2a4.78,4.78,0,0,1,5.82-2.81l.08,0Z"/></svg>
