<svg id="Calque_3" data-name="Calque 3" xmlns="http://www.w3.org/2000/svg" viewBox="0 0 30 30"><path class="svg-primary" d="M15,6a9,9,0,1,0,9,9A9,9,0,0,0,15,6Zm-.33.86v0l.14.25c0,.09.09.19.14.3a3.1,3.1,0,0,1,.26,2c-.3,1-.8,1.7-1.32,1.78a3.37,3.37,0,0,1-.77-.32c-.9-.43-2.12-1-3.2-.44a2.64,2.64,0,0,0-1.47,1.88,2.4,2.4,0,0,1-1,1.51L7.13,14l-.24.14h0A8.16,8.16,0,0,1,14.67,6.86ZM6.9,15.17,7.15,15l.32-.18a3.43,3.43,0,0,0,1.86-2.34,1.8,1.8,0,0,1,1-1.33c.67-.37,1.61.09,2.38.46a2.54,2.54,0,0,0,1.28.4c.9-.13,1.65-1,2.06-2.42a3.65,3.65,0,0,0-.16-2.23l-.13-.32c0-.08-.07-.14-.1-.21a8.18,8.18,0,0,1,7.38,7l-.1-.07a2.57,2.57,0,0,0-.35-.2,1.77,1.77,0,0,0-1.38-.21,4.35,4.35,0,0,0-1.19.7c-.63.46-1.29.92-2,.72a8.22,8.22,0,0,1-1.32-.57c-1-.51-2.07-1-3-.44a3.23,3.23,0,0,0-1.24,2.13,3.14,3.14,0,0,0,.41,2.43,3.19,3.19,0,0,0,3.12,1.3c.44,0,.68,0,.71.07.35,1,.45,1.34.21,1.76-.12.21-.28.49-.49.89l-.19.35-.15.29,0,.05,0,0a8,8,0,0,1-1.1.08,8.16,8.16,0,0,1-8.15-8Zm10.5,7.38.21-.39.11-.19,0-.06c.47-.82.21-1.53-.15-2.52-.26-.71-1-.69-1.59-.66a2.37,2.37,0,0,1-2.35-.92,2.34,2.34,0,0,1-.26-1.74,2.43,2.43,0,0,1,.85-1.55c.48-.31,1.26.09,2.09.5a9.43,9.43,0,0,0,1.47.63,3.17,3.17,0,0,0,2.76-.87,3.91,3.91,0,0,1,.94-.56c.25-.08.64.07,1.12.42l.31.25.21.19a8.17,8.17,0,0,1-5.92,7.76Z"/></svg>
