<svg id="Calque_3" data-name="Calque 3" xmlns="http://www.w3.org/2000/svg" viewBox="0 0 30 30"><path class="svg-primary" d="M19,10.35A2.45,2.45,0,1,0,16.5,7.9,2.45,2.45,0,0,0,19,10.35ZM17.32,7.9A1.64,1.64,0,1,1,19,9.54,1.63,1.63,0,0,1,17.32,7.9Z"/><path class="svg-primary" d="M21.41,18.69v-3h.66v-3.8h0v-.05a1.47,1.47,0,0,0-1.58-1.22h-3a1.47,1.47,0,0,0-1.58,1.22v3.85h.64v2.49a5.17,5.17,0,0,0,0,.52h0a1.25,1.25,0,0,0,.72,1.09v3.71l-1,.25a.41.41,0,0,0-.3.5.4.4,0,0,0,.39.31h.1l1.61-.4h0V19.91h1.73v4.22l1.64.41h.1a.42.42,0,0,0,.4-.31.43.43,0,0,0-.31-.5l-1-.25V19.82A1.26,1.26,0,0,0,21.41,18.69Zm-4.58-3.85v-3c0-.25.28-.45.62-.45h3c.34,0,.62.2.62.45v3h-.51v3.8a.45.45,0,0,1-.45.45H17.77a.45.45,0,0,1-.45-.45v-3.8Z"/><path class="svg-primary" d="M11,10.35A2.45,2.45,0,1,0,8.57,7.9,2.46,2.46,0,0,0,11,10.35ZM9.39,7.9a1.64,1.64,0,0,1,3.27,0,1.64,1.64,0,1,1-3.27,0Z"/><path class="svg-primary" d="M14.14,11.88v-.05a1.47,1.47,0,0,0-1.58-1.22h-3a1.47,1.47,0,0,0-1.58,1.22v3.85h.64v2.49a5.17,5.17,0,0,0,0,.52h0a1.27,1.27,0,0,0,.72,1.09v3.71l-1,.25a.41.41,0,0,0,.1.81h.1l1.6-.4h0V19.91h1.72v4.22l1.65.41h.1a.41.41,0,0,0,.39-.31.37.37,0,0,0-.05-.31.41.41,0,0,0-.25-.19l-1-.25V19.82a1.25,1.25,0,0,0,.82-1.13v-3h.66V12.36a4.78,4.78,0,0,0,0-.48Zm-5.24,3v-3c0-.25.28-.45.62-.45h3c.34,0,.62.2.62.45v3h-.51v3.8a.45.45,0,0,1-.45.45H9.84a.45.45,0,0,1-.45-.45v-3.8Z"/></svg>
