<svg id="Calque_3" data-name="Calque 3" xmlns="http://www.w3.org/2000/svg" viewBox="0 0 30 30"><path class="svg-primary" d="M19.46,15a1.6,1.6,0,1,0,1.6,1.6A1.6,1.6,0,0,0,19.46,15Zm0,2.44a.84.84,0,0,1-.83-.84.83.83,0,0,1,.83-.83.84.84,0,0,1,.84.83A.85.85,0,0,1,19.46,17.43Z"/><path class="svg-primary" d="M22.45,18.42V14.75a1.44,1.44,0,0,0-.43-1l-.31-.31a.15.15,0,0,1,0-.1V9.82A3.82,3.82,0,0,0,17.85,6h-5.7A3.82,3.82,0,0,0,8.33,9.82v3.49a.15.15,0,0,1,0,.1L8,13.72a1.42,1.42,0,0,0-.43,1v3.67a.67.67,0,0,0-.58.66v1.55a.66.66,0,0,0,.66.65H9.11v.9a1.82,1.82,0,1,0,3.63,0v-.9h4.9v.9a1.82,1.82,0,0,0,3.64,0v-.9h1.1a.65.65,0,0,0,.65-.65V19.08A.67.67,0,0,0,22.45,18.42Zm-.19,2.1H20.52v1.66a1.06,1.06,0,0,1-2.11,0V20.52H12v1.66a1.06,1.06,0,0,1-2.11,0V20.52H7.74V19.19h.58V14.75a.68.68,0,0,1,.2-.49L8.83,14a.91.91,0,0,0,.27-.64V9.82a3,3,0,0,1,3.05-3.05h5.7a3,3,0,0,1,3,3.05v3.49a.91.91,0,0,0,.27.64l.31.31a.68.68,0,0,1,.2.49v4.44h.58Z"/><path class="svg-primary" d="M20,9.65H10v4.49H20Zm-.76,3.72H10.8v-3h8.4Z"/><path class="svg-primary" d="M10.83,15a1.6,1.6,0,1,0,1.6,1.6A1.6,1.6,0,0,0,10.83,15Zm0,2.44a.84.84,0,0,1-.83-.84.83.83,0,0,1,.83-.83.84.84,0,0,1,.84.83A.85.85,0,0,1,10.83,17.43Z"/></svg>
