<svg id="Calque_3" data-name="Calque 3" xmlns="http://www.w3.org/2000/svg" viewBox="0 0 30 30"><rect class="svg-primary" x="13.95" y="19.7" width="7.87" height="0.76" rx="0.04"/><path class="svg-primary" d="M14,17.88h7.78a0,0,0,0,1,0,0v.68a0,0,0,0,1,0,0H14a0,0,0,0,1,0,0v-.68A0,0,0,0,1,14,17.88Z"/><path class="svg-primary" d="M24.89,23.84a.33.33,0,0,0-.28-.15H23.22V18.16a.36.36,0,1,0-.71,0v3.51h-9.3V18.16a.36.36,0,1,0-.71,0v5.53H9.83v-5.6h.11c2.66-.19,4-2,4-5.3A10.09,10.09,0,0,0,12.69,7.7,3.89,3.89,0,0,0,9.48,5.5,3.86,3.86,0,0,0,6.27,7.7,9.94,9.94,0,0,0,5,12.78c0,3.32,1.35,5.11,4,5.3h.11v5.6H5.39a.42.42,0,0,0-.15,0,.38.38,0,0,0-.24.35.41.41,0,0,0,.11.27.36.36,0,0,0,.28.15H24.61a.42.42,0,0,0,.16,0,.38.38,0,0,0,.23-.35A.39.39,0,0,0,24.89,23.84ZM9.47,9.72a.37.37,0,0,0-.36.38V13L8,11.83a.35.35,0,0,0-.51,0,.4.4,0,0,0-.1.26.43.43,0,0,0,.1.27L9.12,14v3.31H9a3.26,3.26,0,0,1-2.17-.91,5.08,5.08,0,0,1-1.1-3.63A9.33,9.33,0,0,1,6.87,8.09a3.21,3.21,0,0,1,2.6-1.84,3.23,3.23,0,0,1,2.6,1.84,9.33,9.33,0,0,1,1.15,4.69,5.05,5.05,0,0,1-1.1,3.63,3.26,3.26,0,0,1-2.16.91H9.83V16.2l1.69-1.76a.38.38,0,0,0,.1-.27.39.39,0,0,0-.1-.27.36.36,0,0,0-.51,0L9.83,15.13v-5A.37.37,0,0,0,9.47,9.72Zm3.74,14V22.4H22.5v1.29H13.21Z"/></svg>
