<svg id="Calque_3" data-name="Calque 3" xmlns="http://www.w3.org/2000/svg" viewBox="0 0 30 30"><path class="svg-primary" d="M15,10.1A4.89,4.89,0,1,0,19.9,15,4.9,4.9,0,0,0,15,10.1Zm0,8.69A3.8,3.8,0,1,1,18.81,15,3.81,3.81,0,0,1,15,18.79Z"/><path class="svg-primary" d="M15,8.55A.55.55,0,0,0,15.55,8V6.05a.55.55,0,0,0-1.1,0V8A.54.54,0,0,0,15,8.55Z"/><path class="svg-primary" d="M9.65,10.43a.54.54,0,0,0,.76-.78L9,8.28a.56.56,0,0,0-.78,0,.55.55,0,0,0-.16.39.57.57,0,0,0,.16.39Z"/><path class="svg-primary" d="M8,14.44H6.05a.55.55,0,0,0,0,1.1H8A.54.54,0,0,0,8.55,15,.55.55,0,0,0,8,14.44Z"/><path class="svg-primary" d="M10.07,19.38a.63.63,0,0,0-.42.17L8.28,20.92A.54.54,0,1,0,9,21.7l1.37-1.37a.56.56,0,0,0,0-.78A.51.51,0,0,0,10.07,19.38Z"/><path class="svg-secondary" d="M9.59,19.49,8.22,20.86a.65.65,0,0,0,0,.91.63.63,0,0,0,.88,0l1.38-1.37a.67.67,0,0,0,0-.91A.61.61,0,0,0,9.59,19.49Zm.82.84L9,21.7a.54.54,0,0,1-.76-.78l1.37-1.37a.63.63,0,0,1,.42-.17.51.51,0,0,1,.34.17.56.56,0,0,1,0,.78Z"/><path class="svg-primary" d="M15,21.43a.55.55,0,0,0-.55.56v2a.55.55,0,1,0,1.1,0V22A.55.55,0,0,0,15,21.43Z"/><path class="svg-primary" d="M20.35,19.55A.58.58,0,0,0,20,19.4a.54.54,0,0,0-.39.15.56.56,0,0,0,0,.78l1.37,1.37a.56.56,0,0,0,.76,0,.58.58,0,0,0,0-.78Z"/><path class="svg-primary" d="M24,14.44H22a.55.55,0,1,0,0,1.1h2a.55.55,0,0,0,0-1.1Z"/><path class="svg-primary" d="M20.33,10.45,21.7,9.08a.58.58,0,0,0,0-.78.56.56,0,0,0-.78,0L19.55,9.67a.56.56,0,0,0,0,.78A.58.58,0,0,0,20.33,10.45Z"/></svg>
