<svg id="Calque_3" data-name="Calque 3" xmlns="http://www.w3.org/2000/svg" viewBox="0 0 30 30"><path class="svg-primary" d="M22.84,8.36A4.8,4.8,0,0,0,19,6.46,6.61,6.61,0,0,0,15,8a6.59,6.59,0,0,0-4-1.57,4.76,4.76,0,0,0-3.8,1.9A5.14,5.14,0,0,0,6,12.2c.27,3.46,3.2,7.24,8.69,11.25a.51.51,0,0,0,.28.09.47.47,0,0,0,.28-.09c3.81-2.78,6.4-5.47,7.71-8l.05-.1s0-.05,0-.08,0,0,0-.06l.23-.47c.09-.22.16-.41.23-.61l.06-.17h0c.06-.21.11-.39.15-.56l0-.16a.08.08,0,0,0,0,0c.07-.36.12-.69.15-1,0-.06,0-.13,0-.19v-.09A5.12,5.12,0,0,0,22.84,8.36ZM11.42,14.13a.47.47,0,0,0,.4-.23l.8-1.33,1.48,4.81a.48.48,0,0,0,.46.33.49.49,0,0,0,.44-.3l2.32-5.81,1.31,2.29a.48.48,0,0,0,.41.24h3.5A10.14,10.14,0,0,1,22,15.34a24.7,24.7,0,0,1-7,7.14c-4-2.94-6.49-5.75-7.53-8.35Zm6-4.07a.45.45,0,0,0-.36,0,.54.54,0,0,0-.21.24l-2.19,5.48-1.39-4.55A.48.48,0,0,0,13,11a.4.4,0,0,0-.22-.06l-.14,0a.56.56,0,0,0-.27.21l-1.2,2h-4a6.86,6.86,0,0,1-.18-1A4.14,4.14,0,0,1,7.87,9l.06-.07A3.85,3.85,0,0,1,11,7.41,6,6,0,0,1,14.67,9a.47.47,0,0,0,.67,0A5.83,5.83,0,0,1,19,7.41a3.82,3.82,0,0,1,3,1.51l.05.07A4.12,4.12,0,0,1,23,11.92V12s0,.1,0,.15h0a6.06,6.06,0,0,1-.18,1H19.31l-1.65-2.9A.49.49,0,0,0,17.37,10.06Z"/></svg>
