<svg id="Calque_3" data-name="Calque 3" xmlns="http://www.w3.org/2000/svg" viewBox="0 0 30 30"><path class="svg-primary" d="M21.26,7.5H8.74A1.77,1.77,0,0,0,7,9.25v8.4A1.77,1.77,0,0,0,8.74,19.4h5.93l4.18,4.06a.46.46,0,0,0,.33.13.52.52,0,0,0,.24-.05.46.46,0,0,0,.27-.48l-.38-3.66h2a1.77,1.77,0,0,0,1.79-1.75V9.25A1.77,1.77,0,0,0,21.26,7.5ZM18.27,19l.3,2.86-3.36-3.26a.44.44,0,0,0-.32-.13H8.74a.79.79,0,0,1-.81-.78V9.25a.79.79,0,0,1,.81-.78H21.26a.79.79,0,0,1,.81.78v8.4a.79.79,0,0,1-.81.78h-2.5a.52.52,0,0,0-.37.16A.52.52,0,0,0,18.27,19Z"/></svg>
