<svg id="Calque_3" data-name="Calque 3" xmlns="http://www.w3.org/2000/svg" viewBox="0 0 30 30"><path class="svg-primary" d="M23.34,10h0c0-.27,0-.53,0-.79V9.14c0-.24,0-.48,0-.72A.42.42,0,0,0,22.89,8,10.21,10.21,0,0,1,15.3,5.12a.44.44,0,0,0-.6,0A10.21,10.21,0,0,1,7.11,8a.42.42,0,0,0-.42.43c0,.51,0,1,0,1.6-.09,5.08-.23,12,8.2,15L15,25l.14,0C23.57,22.06,23.43,15.1,23.34,10ZM15.13,24.08l-.13,0-.11,0C7.3,21.32,7.42,15.32,7.52,10V8.84h.32a10.83,10.83,0,0,0,6.93-2.62L15,6l.21.19a10.79,10.79,0,0,0,6.93,2.62h.32V10C22.58,15.06,22.73,21.29,15.13,24.08Z"/><path class="svg-primary" d="M20,10.78a14.45,14.45,0,0,1-4.73-1.87h0a.41.41,0,0,0-.45,0A14.41,14.41,0,0,1,10,10.78a.43.43,0,0,0-.34.42c0,4.64.38,8.37,5.12,10.54a.42.42,0,0,0,.36,0c4.76-2.16,5.14-6,5.13-10.53A.43.43,0,0,0,20,10.78Zm-.51.76v.27c0,4.08-.63,6.79-3.51,8.57l-.5.31V10.05l.48.24a15.13,15.13,0,0,0,3.28,1.19Zm-4.87-1.49V20.7l-.51-.32c-2.88-1.78-3.47-4.48-3.51-8.56v-.11l.15-.19.12,0a15.52,15.52,0,0,0,3.28-1.19Z"/></svg>
