<?xml version="1.0" encoding="utf-8"?>
<!-- Generator: Adobe Illustrator 26.2.1, SVG Export Plug-In . SVG Version: 6.00 Build 0)  -->
<svg version="1.1" id="Calque_1" xmlns="http://www.w3.org/2000/svg" xmlns:xlink="http://www.w3.org/1999/xlink" x="0px" y="0px"
	 viewBox="0 0 18 18" style="enable-background:new 0 0 18 18;" xml:space="preserve">
<style type="text/css">
	.st0{fill:#004680;}
	.st1{fill:#FFFFFF;}
</style>
<g>
	<polygon class="st0" points="8.7,9.5 8.6,10.8 9.9,10.7 13.8,6.8 12.6,5.6 	"/>
	<path class="st0" d="M16,0H2C0.9,0,0,0.9,0,2v14c0,1.1,0.9,2,2,2h14c1.1,0,2-0.9,2-2V2C18,0.9,17.1,0,16,0z M13.5,12.8
		c0,0.6-0.4,1-1,1H5.2c-0.6,0-1-0.4-1-1V5.5c0-0.6,0.4-1,1-1h5.7c0.1,0,0.2,0.2,0.1,0.3l-0.7,0.7c0,0-0.1,0-0.1,0h-5v7.3h7.3v-2.4
		c0,0,0-0.1,0-0.1l0.7-0.7c0.1-0.1,0.3,0,0.3,0.1V12.8z M15.8,6.2l-5.5,5.5l-1.9,0.2c-0.5,0.1-1-0.4-1-0.9L7.7,9l5.5-5.5
		c0.5-0.5,1.2-0.5,1.7,0l0.9,0.9C16.3,4.9,16.3,5.7,15.8,6.2z"/>
	<path class="st0" d="M14.2,4.2c-0.1-0.1-0.2-0.1-0.3,0l-0.6,0.6l1.2,1.2l0.6-0.6c0.1-0.1,0.1-0.2,0-0.3L14.2,4.2z"/>
</g>
<path class="st1" d="M13.2,9.7l-0.7,0.7c0,0,0,0.1,0,0.1v2.4H5.2V5.5h5c0,0,0.1,0,0.1,0L11,4.8c0.1-0.1,0-0.3-0.1-0.3H5.2
	c-0.6,0-1,0.4-1,1v7.3c0,0.6,0.4,1,1,1h7.3c0.6,0,1-0.4,1-1v-3C13.5,9.7,13.4,9.6,13.2,9.7z"/>
</svg>
