<svg id="Calque_3" data-name="Calque 3" xmlns="http://www.w3.org/2000/svg" viewBox="0 0 100 100"><path class="svg-primary" d="M85,78.54h0A9.87,9.87,0,0,1,82,78a17.36,17.36,0,0,1-3.74-1.77c-4.87-3-7.86-1.36-11,.34s-6.53,3.49-12.82-.34c-4.84-2.94-7.85-1.35-11,.33s-6.58,3.47-12.82-.33a9.72,9.72,0,0,0-5.12-1.48c-3.33,0-6.28,1.71-8.47,3a8.5,8.5,0,0,1-2.05,1A1,1,0,0,0,15,80.87h.09A8.23,8.23,0,0,0,18,79.57C20.67,78,25.17,75.37,29.54,78c7.2,4.38,11.05,2.35,14.78.39C47,77,49.52,75.68,53.39,78c7.27,4.42,11.1,2.37,14.8.39,2.65-1.42,5.15-2.76,9-.39a20.5,20.5,0,0,0,4.18,2,11.91,11.91,0,0,0,3.57.59h0a1,1,0,0,0,.71-.3,1,1,0,0,0,.3-.72,1.05,1.05,0,0,0-.29-.73A1,1,0,0,0,85,78.54Z"/><path class="svg-primary" d="M85,67.24h0a9.87,9.87,0,0,1-3-.51A17.36,17.36,0,0,1,78.28,65c-4.87-3-7.86-1.36-11,.33s-6.53,3.5-12.82-.33c-4.84-2.94-7.85-1.35-11,.33S36.81,68.75,30.57,65a9.74,9.74,0,0,0-5.12-1.49c-3.33,0-6.28,1.72-8.47,3a8.5,8.5,0,0,1-2.05,1,1,1,0,0,0,.08,2h.09A8.29,8.29,0,0,0,18,68.26c2.69-1.57,7.19-4.19,11.56-1.53,7.2,4.38,11.05,2.35,14.78.38,2.67-1.41,5.2-2.74,9.07-.38,7.27,4.42,11.1,2.36,14.8.38,2.65-1.41,5.15-2.75,9-.38a19.91,19.91,0,0,0,4.18,2,11.62,11.62,0,0,0,3.57.6h0a1,1,0,0,0,.71-.3,1,1,0,0,0,.3-.72,1,1,0,0,0-.29-.73A1,1,0,0,0,85,67.24Z"/><path class="svg-primary" d="M85,55.94h0a10.19,10.19,0,0,1-3-.51,17.85,17.85,0,0,1-3.74-1.77c-4.87-3-7.86-1.36-11,.33s-6.53,3.5-12.82-.33c-4.84-2.94-7.85-1.36-11,.32s-6.58,3.47-12.82-.32a9.65,9.65,0,0,0-5.12-1.49c-3.33,0-6.28,1.72-8.47,3a8.5,8.5,0,0,1-2.05,1,1,1,0,0,0,.08,2h.09A8.29,8.29,0,0,0,18,57c2.69-1.57,7.19-4.19,11.56-1.54,7.2,4.39,11.05,2.36,14.78.39,2.67-1.41,5.2-2.74,9.07-.39,7.27,4.42,11.1,2.37,14.8.39,2.65-1.42,5.15-2.76,9-.39a19.49,19.49,0,0,0,4.18,2A11.93,11.93,0,0,0,85,58h0a1,1,0,0,0,.71-.3,1,1,0,0,0,0-1.45A1,1,0,0,0,85,55.94Z"/><path class="svg-accent" d="M46.16,46.83a1,1,0,0,0,1.05-1A12.11,12.11,0,0,1,59,33.36a12.23,12.23,0,0,1,3.25.35,11.78,11.78,0,0,1,9,11.88.77.77,0,0,0,.72.94,1.24,1.24,0,0,0,.84-.19,1.06,1.06,0,0,0,.48-.78,11.6,11.6,0,0,0-2.68-8.67,14.08,14.08,0,0,0-11.3-5.58A14.19,14.19,0,0,0,45.18,44a14.63,14.63,0,0,0-.07,1.75A1,1,0,0,0,46.16,46.83Z"/><path class="svg-accent" d="M59.26,25.58a1.1,1.1,0,0,0,1.1-1.1V18.23a1.1,1.1,0,1,0-2.19,0v6.25A1.09,1.09,0,0,0,59.26,25.58Z"/><path class="svg-accent" d="M72,28.69,76.2,24.5a1,1,0,0,0,0-1.5,1.14,1.14,0,0,0-.82-.37,1,1,0,0,0-.72.32l-4.18,4.18a1,1,0,0,0,0,1.5A1.08,1.08,0,0,0,72,28.69Z"/><path class="svg-accent" d="M78.6,40.16h4.68a1.1,1.1,0,0,0,0-2.2H78.6a1.1,1.1,0,0,0,0,2.2Z"/><path class="svg-accent" d="M46.09,26.68a1,1,0,0,0,1.41.38A1.08,1.08,0,0,0,48,25.55l-2.19-4a1,1,0,0,0-1.41-.4,1.09,1.09,0,0,0-.5,1.5Z"/><path class="svg-accent" d="M33.93,39.06A1.1,1.1,0,0,0,35,40.16h5A1.1,1.1,0,0,0,40,38H35A1.09,1.09,0,0,0,33.93,39.06Z"/></svg>
