<svg id="Calque_3" data-name="Calque 3" xmlns="http://www.w3.org/2000/svg" viewBox="0 0 100 100"><path class="svg-primary" d="M82.19,47.33H74V14.93a.94.94,0,0,0-.33-.71.92.92,0,0,0-.75-.21L37.83,19.64a.93.93,0,0,0-.79.92V35.77H17.81a.94.94,0,0,0-.94.93V85.06a.94.94,0,0,0,.94.94H82.19a.94.94,0,0,0,.94-.94V48.27A.94.94,0,0,0,82.19,47.33Zm-43,36.8H32.27V75.5h6.91Zm13.52,0H41.05V74.57a.94.94,0,0,0-.93-.94H31.33a.94.94,0,0,0-.93.94v9.56H18.74V37.64h34Zm.94-48.36H38.91V21.36L72.12,16V27.46H48.29v1.87H72.12v6.44H61.68v1.87H72.12v9.69H54.57V36.7A.93.93,0,0,0,53.64,35.77ZM71.37,84.13H64.46V75.5h6.91Zm9.89,0h-8V74.57a.94.94,0,0,0-.93-.94H63.52a.94.94,0,0,0-.93.94v9.56h-8V49.2H81.26Z"/><rect class="svg-primary" x="26.08" y="47.44" width="19.28" height="1.87"/><rect class="svg-primary" x="26.08" y="55.7" width="19.28" height="1.87"/><rect class="svg-primary" x="26.08" y="64.05" width="19.28" height="1.87"/><rect class="svg-accent" x="60.96" y="56.26" width="14.55" height="1.87"/><rect class="svg-accent" x="60.96" y="64.05" width="14.55" height="1.87"/></svg>
