<svg id="Calque_3" data-name="Calque 3" xmlns="http://www.w3.org/2000/svg" viewBox="0 0 100 100"><path class="svg-accent" d="M18,51.22a1.06,1.06,0,0,0,.55-.67,1.08,1.08,0,0,0,0-.86,1,1,0,0,0-1.44-.53L11.6,51.7a1.09,1.09,0,1,0,.91,2Z"/><path class="svg-accent" d="M56.44,31.05a1,1,0,0,0-.53,1.44,1.08,1.08,0,0,0,.61.58,1,1,0,0,0,.83,0l5.53-2.54a1.11,1.11,0,0,0,.55-.67,1.1,1.1,0,0,0,0-.87A1.05,1.05,0,0,0,62,28.41Z"/><path class="svg-accent" d="M45.75,14.71l-2.12,5.75a1.1,1.1,0,0,0,2.07.76l2.12-5.74a1.1,1.1,0,1,0-2.07-.77Z"/><path class="svg-accent" d="M29.16,21.84a1.07,1.07,0,0,0,0-.86l-2.54-5.53a1.06,1.06,0,0,0-1.45-.54,1.06,1.06,0,0,0-.53,1.45l2.55,5.53a1,1,0,0,0,.6.57,1.07,1.07,0,0,0,.84,0A.89.89,0,0,0,29.16,21.84Z"/><path class="svg-accent" d="M17.93,34a1.15,1.15,0,0,0-.65-1.42l-5.74-2.12a1.1,1.1,0,0,0-.77,2.07l5.75,2.12A1.14,1.14,0,0,0,17.93,34Z"/><path class="svg-accent" d="M24.08,36.38a14,14,0,0,1,13.14-9.17A14,14,0,0,1,50.82,37.8c.62-.14,1.26-.26,1.9-.34A15.95,15.95,0,1,0,28.43,54.52a14.78,14.78,0,0,1,3.14-.47A14,14,0,0,1,24.08,36.38Z"/><path class="svg-primary" d="M87.48,65.68l-.28-.35.4-.19-.39.19s-1.35-1.2-1.94-1.6l-.15-.11a11.72,11.72,0,0,0-6.61-2.07,15.88,15.88,0,0,0-2,.17l-.73.09.09-.47a18.3,18.3,0,0,0,.3-3.29,20.45,20.45,0,0,0-7.59-16l-.26-.21h0c-.91-.76-1.86-1.41-1.86-1.41h0l-.28-.17a20.42,20.42,0,0,0-10.68-3,20.67,20.67,0,0,0-2.74.18c-.64.08-1.28.2-1.9.34A20.77,20.77,0,0,0,35.09,54l-.07.33-.32-.05a22.1,22.1,0,0,0-2.5-.2l-.63,0a14.78,14.78,0,0,0-3.14.47A15,15,0,0,0,32.2,84H78.61A11.34,11.34,0,0,0,89.94,72.67,11,11,0,0,0,87.48,65.68Zm-9,16.42H32.1a13,13,0,0,1-.48-25.94l.48,0a15,15,0,0,1,3.62.53.73.73,0,0,0,.56,0l.13-.1c.15-.08.3-.2.39-.66,0-.21.05-.42.08-.63a18.58,18.58,0,0,1,14.29-15.4c.62-.14,1.26-.25,1.91-.33a19.12,19.12,0,0,1,2.28-.14A18.79,18.79,0,0,1,74.13,58.15a19.2,19.2,0,0,1-.84,5.38.75.75,0,0,0,.27.88.75.75,0,0,0,.84.15,8.85,8.85,0,0,1,4.11-.91A9.35,9.35,0,0,1,87.84,73,9.13,9.13,0,0,1,78.51,82.1Z"/></svg>
