<svg width="18" height="18" viewBox="0 0 18 18" xmlns="http://www.w3.org/2000/svg"
     xmlns:xlink="http://www.w3.org/1999/xlink">
    <defs>
        <path id="0opycmkhxa" d="M0 0h12v12H0z"/>
    </defs>
    <g fill="none" fill-rule="evenodd">
        <rect fill="#F36B43" width="18" height="18" rx="2"/>
        <g transform="translate(3 3)">
            <mask id="nqwhz3x6lb" fill="#fff">
                <use xlink:href="#0opycmkhxa"/>
            </mask>
            <path
                d="M9.487 5.244c-.363.362-.845.56-1.356.557A1.92 1.92 0 0 1 6.222 3.87a1.917 1.917 0 0 1 1.923-1.914 1.916 1.916 0 0 1 1.907 1.93c0 .514-.2.997-.565 1.359zm-3.22 2.028a3.828 3.828 0 0 0 1.856.485 3.84 3.84 0 0 0 2.734-1.124A3.884 3.884 0 0 0 12 3.893a3.892 3.892 0 0 0-1.119-2.746 3.84 3.84 0 0 0-5.458-.023A3.865 3.865 0 0 0 4.28 3.86 3.891 3.891 0 0 0 4.75 5.73L.11 10.35a.38.38 0 0 0-.076.423.272.272 0 0 0 .06.088l1.03 1.043a.296.296 0 0 0 .087.061.374.374 0 0 0 .423-.073l4.635-4.62z"
                fill="#FFF" mask="url(#nqwhz3x6lb)" class="svg-secondary"/>
        </g>
        <path
            d="M6.861 14.87a.305.305 0 0 0 .086.06.375.375 0 0 0 .424-.074l1.024-1.02a.307.307 0 0 0 .06-.086.38.38 0 0 0-.072-.425l-1.178-1.15-1.536 1.532 1.192 1.162z"
            fill="#FFF" class="svg-secondary"/>
    </g>
</svg>
