<svg width="22" height="22" viewBox="0 0 22 22" fill="none" xmlns="http://www.w3.org/2000/svg">
<rect width="22" height="22" rx="2" fill="#259DA5"/>
<path d="M11.2769 10.9829C13.186 10.9829 14.7133 9.43114 14.7133 7.49144C14.7133 5.55175 13.186 4 11.2769 4C9.36785 4 7.84058 5.55175 7.84058 7.49144C7.84058 9.43114 9.36785 10.9829 11.2769 10.9829ZM11.2769 5.29313C12.486 5.29313 13.4406 6.26297 13.4406 7.49144C13.4406 8.71992 12.486 9.68976 11.2769 9.68976C10.0678 9.68976 9.1133 8.71992 9.1133 7.49144C9.1133 6.26297 10.0678 5.29313 11.2769 5.29313Z" fill="white" stroke="white" stroke-width="0.6"/>
<path d="M12.6773 12.6636H9.87734C6.75916 12.6636 4.27734 15.2498 4.27734 18.3533C4.27734 18.7413 4.53189 18.9999 4.91371 18.9999C5.29553 18.9999 5.55007 18.7413 5.55007 18.3533C5.55007 15.8964 7.5228 13.9567 9.87734 13.9567H12.6773C15.0955 13.9567 17.0046 15.9611 17.0046 18.3533C17.0046 18.7413 17.2592 18.9999 17.641 18.9999C18.0228 18.9999 18.2773 18.7413 18.2773 18.3533C18.2773 15.2498 15.7319 12.6636 12.6773 12.6636Z" fill="white" stroke="white" stroke-width="0.6"/>
</svg>
