<svg width="26" height="26" viewBox="0 0 26 26" fill="none" xmlns="http://www.w3.org/2000/svg">
<path fill-rule="evenodd" clip-rule="evenodd" d="M13 1C6.37 1 1 6.33642 1 12.925C1 18.2017 4.435 22.6587 9.205 24.2388C9.805 24.3431 10.03 23.9854 10.03 23.6723C10.03 23.3891 10.015 22.45 10.015 21.4513C7 22.0028 6.22 20.7209 5.98 20.0501C5.845 19.7073 5.26 18.6489 4.75 18.3657C4.33 18.1421 3.73 17.5906 4.735 17.5757C5.68 17.5608 6.355 18.4402 6.58 18.798C7.66 20.6016 9.385 20.0948 10.075 19.7818C10.18 19.0067 10.495 18.485 10.84 18.1868C8.17 17.8887 5.38 16.8602 5.38 12.2989C5.38 11.0021 5.845 9.92881 6.61 9.09406C6.49 8.79594 6.07 7.57363 6.73 5.93395C6.73 5.93395 7.735 5.62092 10.03 7.15626C10.99 6.88795 12.01 6.75379 13.03 6.75379C14.05 6.75379 15.07 6.88795 16.03 7.15626C18.325 5.60601 19.33 5.93395 19.33 5.93395C19.99 7.57363 19.57 8.79594 19.45 9.09406C20.215 9.92881 20.68 10.9872 20.68 12.2989C20.68 16.8751 17.875 17.8887 15.205 18.1868C15.64 18.5595 16.015 19.275 16.015 20.393C16.015 21.9879 16 23.2699 16 23.6723C16 23.9854 16.225 24.358 16.825 24.2388C19.2072 23.4395 21.2772 21.9182 22.7438 19.8885C24.2103 17.859 24.9994 15.4236 25 12.925C25 6.33642 19.63 1 13 1Z" stroke="#004680" stroke-width="1.5" stroke-linejoin="round"/>
</svg>
