<svg width="24" height="24" viewBox="0 0 24 24" fill="none" xmlns="http://www.w3.org/2000/svg">
<g clip-path="url(#clip0_1917_67928)">
<path d="M22.125 0H1.875C0.839062 0 0 0.839062 0 1.875V22.125C0 23.1609 0.839062 24 1.875 24H22.125C23.1609 24 24 23.1609 24 22.125V1.875C24 0.839062 23.1609 0 22.125 0ZM22.5938 22.125C22.5938 22.3828 22.3828 22.5938 22.125 22.5938H1.875C1.61719 22.5938 1.40625 22.3828 1.40625 22.125V1.875C1.40625 1.61719 1.61719 1.40625 1.875 1.40625H22.125C22.3828 1.40625 22.5938 1.61719 22.5938 1.875V22.125Z" fill="#004680"/>
<path d="M8.64375 9.53418H6.30469V17.0201H8.64375V9.53418Z" fill="#004680"/>
<path d="M15.0324 9.46387C13.6918 9.46387 12.8527 10.1951 12.698 10.7107V9.53418H10.0684C10.1012 10.1576 10.0684 17.0201 10.0684 17.0201H12.698V12.9748C12.698 12.7451 12.6887 12.5201 12.7543 12.3607C12.9324 11.9107 13.3215 11.442 14.0199 11.442C14.934 11.442 15.3465 12.1357 15.3465 13.1482V17.0201H17.9996V12.8576C17.9996 10.542 16.6965 9.46387 15.0324 9.46387Z" fill="#004680"/>
<path d="M7.4248 6C6.5623 6 5.99512 6.55781 5.99512 7.29844C5.99512 8.025 6.54355 8.59687 7.39199 8.59687H7.41074C8.29199 8.59687 8.84043 8.02031 8.83574 7.29844C8.81699 6.55781 8.2873 6 7.4248 6Z" fill="#004680"/>
</g>
<defs>
<clipPath id="clip0_1917_67928">
<rect width="24" height="24" fill="white"/>
</clipPath>
</defs>
</svg>
