<svg class="social-network-logo" stroke="#004680" width="24" height="24" viewBox="0 0 24 24" fill="none"
		xmlns="http://www.w3.org/2000/svg">
	<g clip-path="url(#clip0_1939_70693)">
		<path d="M7.45195 22.2224C7.05139 22.2474 6.67587 22.3476 6.28366 22.4227C5.00689 22.6563 3.73846 22.89 2.46169 23.1236C2.25306 23.1654 2.04444 23.1904 1.83582 23.2405C1.15153 23.4157 0.325385 22.8149 0.417179 21.947C0.442214 21.7133 0.567388 21.5131 0.659182 21.3044C1.17657 20.1361 1.69395 18.9595 2.21134 17.7912C2.30313 17.5743 2.33651 17.374 2.19465 17.1654C1.96099 16.8232 1.81913 16.431 1.66892 16.0471C1.27671 15.0791 1.01801 14.0777 0.901185 13.0346C0.867805 12.7259 0.884495 12.4087 0.834426 12.1C0.85946 11.9164 0.85946 11.7328 0.834426 11.5492C0.884495 11.2238 0.867805 10.89 0.90953 10.5562C0.984634 9.8552 1.1265 9.17926 1.33512 8.50332C1.76906 7.09303 2.445 5.81626 3.37128 4.66466C3.65501 4.31417 3.95543 3.98037 4.28088 3.67161C5.26558 2.7036 6.39214 1.95256 7.64388 1.3851C8.5952 0.959511 9.57991 0.684129 10.6063 0.53392C11.2572 0.442126 11.9081 0.400401 12.559 0.433781C13.1182 0.458816 13.6773 0.525575 14.228 0.617369C14.6953 0.700819 15.1627 0.825992 15.6133 0.951166C16.0472 1.07634 16.4561 1.25993 16.865 1.44352C17.6745 1.80235 18.4339 2.25297 19.1348 2.80374C19.3852 3.00402 19.6355 3.21264 19.8608 3.4463C20.4033 3.99706 20.9707 4.52279 21.413 5.16535C21.897 5.86633 22.3143 6.59233 22.6481 7.37676C22.9234 8.01932 23.1404 8.67857 23.2906 9.36285C23.541 10.4727 23.6244 11.5909 23.5243 12.7175C23.3323 14.8955 22.5813 16.8733 21.2628 18.6257C20.0862 20.1946 18.5924 21.3712 16.815 22.1723C15.8052 22.6313 14.7454 22.94 13.6355 23.0736C13.1432 23.132 12.6508 23.182 12.1501 23.1737C10.7148 23.157 9.32956 22.8983 8.00271 22.3559C7.87754 22.3058 7.75237 22.2307 7.6105 22.2307C7.55209 22.1723 7.50202 22.1723 7.4436 22.2307L7.45195 22.2224ZM7.79409 7.1431C7.98603 7.2182 8.16961 7.25158 8.3532 7.11806C8.83721 7.11806 9.24611 6.93448 9.61329 6.62571C10.0973 6.20847 10.2976 5.32391 10.0389 4.66466C9.87198 4.23907 9.54653 3.97203 9.11259 3.86354C8.73707 3.76341 8.34486 3.71334 7.9443 3.78844C7.05139 3.93865 6.13345 4.60624 6.30035 5.85798C6.35042 6.2335 6.49228 6.5673 6.80105 6.81765C7.09312 7.05131 7.42692 7.15144 7.79409 7.15144V7.1431ZM19.235 10.3142C19.3017 10.2474 19.2934 10.1723 19.26 10.0972C19.3268 9.82182 19.3017 9.54644 19.2767 9.26271C19.2934 9.18761 19.3017 9.1125 19.235 9.04574C19.1265 8.51167 18.801 8.17787 18.3087 8.10277C18.2837 8.06104 18.2419 8.0527 18.2002 8.06939C17.9999 8.02766 17.7913 8.02766 17.591 8.06939C17.5326 8.04435 17.4742 8.04435 17.4325 8.10277C17.3908 8.10277 17.3574 8.11945 17.3156 8.11945C17.2155 8.11945 17.1237 8.13615 17.0403 8.21125C16.5229 8.35311 16.0973 8.65353 15.7134 9.01236C14.8456 9.82182 14.2197 10.7982 13.744 11.8747C13.6689 12.0416 13.5771 12.2085 13.4853 12.4004C13.4019 12.1667 13.4853 11.9665 13.452 11.7662C13.502 11.7328 13.5437 11.6994 13.5187 11.6243C13.5354 11.4574 13.6188 11.2989 13.6022 11.1236C13.6439 11.0986 13.6522 11.0652 13.6355 11.0151C13.6606 10.9651 13.6606 10.9067 13.6606 10.8482C13.7023 10.8232 13.7106 10.7898 13.694 10.7398C13.719 10.6897 13.719 10.6313 13.719 10.5729C13.7607 10.5478 13.7691 10.5144 13.7524 10.4644C13.7774 10.3309 13.8024 10.2057 13.8275 10.0722C13.8692 10.0471 13.8775 10.0138 13.8609 9.96368C13.8859 9.83016 13.9526 9.71334 13.936 9.57147C13.9777 9.54644 13.986 9.51306 13.961 9.46299C14.0027 9.38788 14.0027 9.31278 13.9944 9.23767C14.0361 9.21264 14.0444 9.17092 14.0277 9.12919C14.0778 9.00402 14.0611 8.87884 14.0611 8.75367C14.0611 8.41153 13.8942 8.21959 13.5521 8.2029C13.3184 8.18621 13.0764 8.16952 12.8428 8.21959C12.7844 8.2029 12.7259 8.2029 12.6842 8.26132C12.6425 8.26132 12.6091 8.26966 12.5674 8.27801C12.5257 8.26132 12.4839 8.27801 12.4589 8.31973C11.9165 8.44491 11.6077 8.80374 11.4408 9.30443C11.107 10.3392 10.9568 11.4157 10.84 12.4922C10.7899 13.0096 10.7732 13.5186 10.7816 14.036C10.7816 14.1695 10.7398 14.2697 10.6564 14.3615C10.381 14.6953 10.1056 15.0291 9.79687 15.3295C9.62163 15.4964 9.43804 15.6466 9.22107 15.7551C8.86224 15.9303 8.57017 15.8135 8.41162 15.4546C8.31148 15.221 8.30313 14.9706 8.26975 14.7286C8.29479 14.6035 8.29479 14.4699 8.26975 14.3448C8.29479 14.2363 8.29479 14.1195 8.2781 14.0026C8.36155 13.9025 8.33651 13.7857 8.31982 13.6772C8.34486 13.6188 8.34486 13.5603 8.32817 13.5019C8.40327 13.4185 8.38658 13.3267 8.36989 13.2349C8.38658 13.1765 8.39493 13.1181 8.37824 13.0596C8.43665 13.0179 8.43665 12.9595 8.41162 12.9011C8.445 12.826 8.445 12.7509 8.43665 12.6758C8.49506 12.6341 8.49507 12.5756 8.47838 12.5172C8.50341 12.4588 8.50341 12.4087 8.49507 12.3503C8.55348 12.3086 8.55348 12.2502 8.53679 12.1918C8.56182 12.1334 8.56182 12.0833 8.55348 12.0249C8.5952 11.9998 8.60355 11.9665 8.57851 11.9164C8.62024 11.8413 8.62024 11.7662 8.61189 11.6911C8.65362 11.666 8.66196 11.6243 8.64527 11.5826C8.67865 11.5075 8.67865 11.4324 8.67031 11.3573C8.71203 11.3323 8.72038 11.2905 8.70369 11.2488C8.72872 11.1904 8.72872 11.1403 8.72038 11.0819C8.77879 11.0402 8.77879 10.9818 8.75376 10.9233C8.78714 10.8482 8.77879 10.7731 8.77879 10.698C8.82052 10.673 8.82886 10.6396 8.81217 10.5896C8.84555 10.5144 8.84555 10.4393 8.83721 10.3642C8.89562 10.3225 8.89562 10.2641 8.87059 10.2057C8.90397 10.1139 8.89562 10.0221 8.89562 9.92196C8.95404 9.88023 8.95404 9.82182 8.929 9.75506C8.96238 9.62154 8.95404 9.49637 8.94569 9.36285C9.0208 9.25436 9.0208 9.14588 8.94569 9.0374C8.90397 8.67022 8.75376 8.52001 8.34486 8.43656C8.31982 8.39484 8.28644 8.38649 8.23637 8.40318C7.99437 8.35311 7.76071 8.36146 7.51871 8.40318C7.46029 8.37815 7.40188 8.37815 7.36016 8.43656C7.31843 8.43656 7.28505 8.44491 7.24333 8.45325C7.19326 8.43656 7.15988 8.45325 7.13484 8.49498C6.89284 8.5367 6.7176 8.67857 6.59242 8.87884C6.45056 9.1125 6.35876 9.36285 6.29201 9.62154C6.10842 10.3225 5.95821 11.0402 5.85807 11.7578C5.77462 12.3503 5.68283 12.9428 5.6411 13.5353C5.60772 14.011 5.62441 14.495 5.62441 14.9706C5.62441 15.6716 5.78297 16.3392 6.06669 16.9734C6.44221 17.8079 7.09312 18.2085 7.98602 18.2752C8.75376 18.3336 9.43804 18.1083 10.0806 17.6911C10.3393 17.5158 10.598 17.3406 10.8316 17.132C10.9985 16.9818 11.0486 16.9985 11.1404 17.2154C11.1821 17.3072 11.2239 17.399 11.2739 17.4908C11.4575 17.8663 11.7579 18.0833 12.1668 18.1501C12.7927 18.2585 13.3685 17.9498 13.6188 17.3573C13.719 17.1236 13.7857 16.89 13.8358 16.648C14.1279 15.1793 14.6119 13.7857 15.3462 12.4755C15.5298 12.1417 15.7301 11.8246 16.0138 11.5659C16.0889 11.4991 16.1724 11.424 16.2809 11.4741C16.381 11.5158 16.3894 11.616 16.381 11.7161C16.381 11.9915 16.381 12.2669 16.3643 12.5423C16.3059 13.2265 16.2058 13.9108 16.139 14.5951C16.0723 15.2544 16.0305 15.9136 16.0305 16.5812C16.0305 16.8065 16.0723 17.0235 16.1474 17.2321C16.2892 17.6076 16.5563 17.8496 16.9568 17.9498C17.3574 18.0416 17.7496 17.9915 18.1251 17.8663C18.4422 17.7578 18.6425 17.5242 18.7426 17.2071C18.8177 16.9734 18.8261 16.7314 18.8177 16.4978C18.8177 15.9637 18.8177 15.4296 18.8177 14.8955C18.8177 14.6368 18.8845 14.3865 18.8428 14.1195C18.9095 14.036 18.9012 13.9442 18.8678 13.8524C18.9262 13.7022 18.9012 13.552 18.8928 13.4018C18.9596 13.335 18.9513 13.2599 18.9179 13.1848C18.9679 13.0596 18.9513 12.9261 18.9429 12.7926C19.0097 12.7259 19.0013 12.6507 18.9763 12.5756C19.0097 12.4838 19.0013 12.3921 18.993 12.2919C19.0597 12.2335 19.0514 12.1501 19.0347 12.0749C19.0597 11.9998 19.0597 11.9247 19.0514 11.8496C19.1182 11.7912 19.1098 11.7161 19.0931 11.6327C19.1265 11.5576 19.1182 11.4825 19.1098 11.4074C19.1766 11.3489 19.1682 11.2738 19.1515 11.1904C19.1849 11.0986 19.1766 11.0068 19.1682 10.9067C19.2433 10.8232 19.2266 10.7314 19.2016 10.6396C19.235 10.5311 19.2266 10.4143 19.2183 10.2975L19.235 10.3142Z"
				stroke-miterlimit="10"/>
	</g>
	<defs>
		<clipPath id="clip0_1939_70693">
			<rect width="24" height="23.6912" fill="white"/>
		</clipPath>
	</defs>
</svg>
